<?xml version="1.0" encoding="utf-8"?>
<!-- Generator: Adobe Illustrator 22.0.1, SVG Export Plug-In . SVG Version: 6.00 Build 0)  -->
<svg version="1.1" id="Capa_1" xmlns="http://www.w3.org/2000/svg" xmlns:xlink="http://www.w3.org/1999/xlink" x="0px" y="0px"
	 viewBox="0 0 56 56" style="enable-background:new 0 0 56 56;" xml:space="preserve">
<style type="text/css">
	.st0{fill:#72302B;}
	.st1{fill:#471E1E;}
	.st2{fill:#A34334;}
	.st3{fill:#F4A96C;}
</style>
<g>
	<path class="st0" d="M24.9,12.5c-3,0.4-6.1,0.8-9.1,1.4c-4.3,0.9-8.5,2.2-12.8,2.8c-1,0.1-2.3,0.5-2.3,1.6c0,0.5,0.4,1,0.3,1.6
		c-0.1,0.7-1,1.1-1,1.8c0,0.4,0.3,0.7,0.5,1.1c0.3,0.7,0.1,1.5-0.1,2.3c-0.3,1.5-0.2,3-0.1,4.5c0.1,1.2,0.1,2.3,0.5,3.4
		c1,2.8,3.8,4.4,5.9,6.6c0.4,0.5,0.8,0.9,1.4,1.2C8.5,40.9,9,41,9.4,41.2c1.1,0.5,1.4,1.9,2.1,2.9c0.4,0.5,0.8,0.9,1.3,1.3
		c1.4,1.2,3,2.5,4.8,2.6c1,0.1,2-0.2,3-0.5c9.9-2.8,19.8-5.8,29.6-9.2c0.8-0.3,1.7-0.6,2.4-1.1c1.3-0.9,2-2.4,2-4
		c-0.4,0-0.9,0-1.3,0c1.1-0.7,1.9-1.9,2.1-3.2c-0.5,0.1-1-0.3-1.2-0.8c-0.2-0.5-0.1-1-0.1-1.6c0.2-1.4,0.6-2.9,1-4.3
		c0.2-0.5,0.4-1.1,0.3-1.7c-0.1-1.3-1.5-2.1-2.7-2.6c-4.2-1.9-8.5-3.8-12.7-5.7c-1.7-0.7-3.3-1.5-5.1-1.8c-1.8-0.3-3.7,0-5.5,0.2
		C27.9,12.1,26.4,12.3,24.9,12.5z"/>
	<path class="st1" d="M55.1,23.4c0.2-0.5,0.4-1.1,0.3-1.7c-0.1-1.3-1.5-2.1-2.7-2.6c-4.2-1.9-8.5-3.8-12.7-5.7
		c-1.7-0.7-3.3-1.5-5.1-1.8c-1.8-0.3-3.7,0-5.5,0.2c-1.5,0.2-3,0.4-4.5,0.6c-3,0.4-6.1,0.8-9.1,1.4c-0.1,0-0.2,0.1-0.4,0.1
		c0,0.4,0,0.8,0,1.2c0,4.1-2.1,8.1-2.1,12.2c0,1.6,0.8,3.6,2.4,3.6C13.9,32.6,14,36,16,37.3c0.3,0.2,0.6,0.4,0.8,0.7
		c0.2,0.3,0,0.8-0.3,0.8c-0.6,0.1-1.2,0.1-1.8,0.2c-0.6,0.6-0.2,1.7,0.5,2.2c0.7,0.5,1.6,0.7,2.3,1.2c0.7,0.5,1.2,1.5,0.7,2.2
		c-0.2,0.2-0.5,0.4-0.7,0.6c-0.7,0.5-1.2,1.4-1.3,2.3c0.5,0.2,1,0.3,1.5,0.4c1,0.1,2-0.2,3-0.5c9.9-2.8,19.8-5.8,29.6-9.2
		c0.8-0.3,1.7-0.6,2.4-1.1c1.3-0.9,2-2.4,2-4l-1.3,0c1.1-0.7,1.9-1.9,2.1-3.2c-0.5,0.1-1-0.3-1.2-0.8c-0.2-0.5-0.1-1-0.1-1.6
		C54.3,26.2,54.7,24.8,55.1,23.4z"/>
	<path class="st2" d="M52.8,19.2c-4.2-1.9-8.5-3.8-12.7-5.7c-1.7-0.7-3.3-1.5-5.1-1.8c-1.8-0.3-3.7,0-5.5,0.2
		c-1.5,0.2-3,0.4-4.5,0.6c-3,0.4-6.1,0.8-9.1,1.4c-4.3,0.9-8.5,2.2-12.8,2.8c-0.9,0.1-2.1,0.5-2.3,1.3c3,3.7,7,6.6,10.9,9.4
		c0.6,0.4,1.1,0.8,1.8,0.9c1.6,0.3,3.1-1.1,4.7-1.1c1.3,0,2.5,0.8,3.8,0.8c1.3-0.1,2.4-0.9,3.6-1c0.8,0,1.6,0.3,2.4,0.3
		c0.7,0,1.4-0.1,2.1-0.3c2.5-0.6,5-1.3,7.4-2.3c1.5-0.6,3.1-1.4,4.7-1.3c0.5,0,1,0.2,1.6,0.1c0.4,0,0.9-0.2,1.3-0.3
		c0.6-0.2,1.3-0.4,1.9-0.6c2.5-0.8,4.9-1.6,7.3-2.6C53.9,19.7,53.3,19.4,52.8,19.2z"/>
	<path class="st3" d="M22.6,18.9C22,20,20.5,20.1,19.2,20c-0.6,0-1.2-0.1-1.9-0.1c-0.4,0-0.7,0-1.1-0.2c-0.3-0.2-0.6-0.5-0.6-0.9
		c0-0.6,0.8-0.9,1.4-1.1c0.9-0.2,1.7-0.6,2.6-0.7c0.9-0.1,1.9,0,2.6,0.6c0.2,0.2,0.3,0.4,0.4,0.6C22.8,18.5,22.7,18.8,22.6,18.9z"/>
	<path class="st3" d="M41.6,19c-1.8-0.4-3.8,0-5.3,1.2c-0.2,0.3,0.3,0.6,0.7,0.6c1.2,0,2.4-0.2,3.5-0.6C41,20,41.7,19.6,41.6,19z"/>
	<path class="st3" d="M30.9,14.6c0.2,0.5,0.9,0.7,1.4,0.6c0.5-0.2,0.9-0.7,0.8-1.3c-0.1,0-0.2-0.1-0.3-0.2
		C32.1,14,31.5,14.3,30.9,14.6z"/>
	<path class="st3" d="M14.8,25.3c-0.2,0-0.4,0-0.5-0.2c1.4-1,3.3-1.3,4.9-0.9c0,0.2,0,0.4,0,0.5C17.8,25.2,16.3,25.3,14.8,25.3z"/>
</g>
</svg>
