<?xml version="1.0" encoding="utf-8"?>
<!-- Generator: Adobe Illustrator 21.0.2, SVG Export Plug-In . SVG Version: 6.00 Build 0)  -->
<svg version="1.1" xmlns="http://www.w3.org/2000/svg" xmlns:xlink="http://www.w3.org/1999/xlink" x="0px" y="0px"
	 viewBox="0 0 54 21" style="enable-background:new 0 0 54 21;" xml:space="preserve">
<style type="text/css">
	.st0{fill:#2B66B1;}
	.st1{fill:#212121;}
	.st2{fill:#478FCC;}
</style>
<g id="Layer_1">
</g>
<g id="Layer_2">
	<g>
		<g>
			<path class="st0" d="M48.8,1.7c-3.2,5-6.4,10-9.6,15c-1.7,2.7,2.6,5.2,4.3,2.5c3.2-5,6.4-10,9.6-15C54.9,1.5,50.6-1,48.8,1.7
				L48.8,1.7z"/>
		</g>
		<line class="st0" x1="51" y1="3" x2="41.4" y2="18"/>
	</g>
	<g>
		<g>
			<path class="st1" d="M10.4,1.7c-3.2,5-6.4,10-9.6,15c-1.7,2.7,2.6,5.2,4.3,2.5c3.2-5,6.4-10,9.6-15C16.5,1.5,12.2-1,10.4,1.7
				L10.4,1.7z"/>
		</g>
	</g>
	<g>
		<g>
			<path class="st1" d="M10.4,4.3c3.2,5,6.4,10,9.6,15c1.7,2.7,6.1,0.2,4.3-2.5c-3.2-5-6.4-10-9.6-15C13-1,8.7,1.5,10.4,4.3
				L10.4,4.3z"/>
		</g>
	</g>
	<g>
		<g>
			<path class="st2" d="M29.6,1.7c-3.2,5-6.4,10-9.6,15c-1.7,2.7,2.6,5.2,4.3,2.5c3.2-5,6.4-10,9.6-15C35.7,1.5,31.4-1,29.6,1.7
				L29.6,1.7z"/>
		</g>
		<line class="st0" x1="31.8" y1="3" x2="22.2" y2="18"/>
	</g>
	<g>
		<line class="st0" x1="27" y1="13.6" x2="36.6" y2="13.6"/>
		<g>
			<path class="st2" d="M27,16.1c3.2,0,6.4,0,9.6,0c3.2,0,3.2-5,0-5c-3.2,0-6.4,0-9.6,0C23.8,11.1,23.8,16.1,27,16.1L27,16.1z"/>
		</g>
	</g>
	<g>
		<g>
			<path class="st0" d="M29.6,4.3c3.2,5,6.4,10,9.6,15c1.7,2.7,6.1,0.2,4.3-2.5c-3.2-5-6.4-10-9.6-15C32.2-1,27.9,1.5,29.6,4.3
				L29.6,4.3z"/>
		</g>
		<line class="st0" x1="31.8" y1="3" x2="41.4" y2="18"/>
	</g>
</g>
</svg>
