<svg xmlns="http://www.w3.org/2000/svg" viewBox="1476 3494 300 426.652">
  <defs>
    <style>
      .cls-1, .cls-2 {
        fill: none;
      }

      .cls-1 {
        opacity: 0.4;
      }

      .cls-2 {
        stroke: #fff;
        stroke-width: 5px;
      }

      .cls-3, .cls-4 {
        fill: #fff;
      }

      .cls-4 {
        font-size: 35px;
        font-family: SegoeUI, Segoe UI;
      }
    </style>
  </defs>
  <g id="Something_else" data-name="Something else" transform="translate(252 3143)">
    <rect id="Rectangle_104" data-name="Rectangle 104" class="cls-1" width="300" height="300" rx="77" transform="translate(1224 351)"/>
    <g id="faq-icon" transform="translate(-2934 -2277.8)">
      <path id="Path_21" data-name="Path 21" class="cls-2" d="M4221.816,2784.105c-6.513-6.256-6.575-16.486-6.575-16.486v-29.049c0-24.436,26.028-25.866,26.028-25.866s51.576-.1,65.2-.1,21.63,12.8,21.63,12.8h-29.4c-18.387,0-30,5.407-36.2,14.5a36.947,36.947,0,0,0-5.9,12.9,63.337,63.337,0,0,0-1.46,16.4v23.909l-24.111,26.878.114-29.15S4228.329,2790.361,4221.816,2784.105Z" transform="translate(-3 -3)"/>
      <path id="Path_22" data-name="Path 22" class="cls-2" d="M4838.864,3041.485l28.389,31.888v-34.512s19.908-8.2,19.547-29c-.361-20.878,0-39.142,0-39.142s-1.651-30.947-30.947-30.947h-75.508s-33.015-.94-33.015,33.015v35.838s-1.625,32.742,32.742,32.742S4838.864,3041.485,4838.864,3041.485Z" transform="translate(-482.395 -205.573)"/>
      <g id="Group_1" data-name="Group 1" transform="translate(4309.461 2745.965)">
        <path id="Path_23" data-name="Path 23" class="cls-3" d="M5215.98,3083.557c.8.07,8.693,0,8.693,0s-2.425-11.067,8.079-11.149c1.159-.083,6.426.557,7.128,5.559a6.57,6.57,0,0,1-1.937,4.324c-2.456,1.817-6.825,4.755-6.825,4.755s-2.64,1.57-2.64,5.983V3103.1h8.725v-7.015s-.279-2.343,2.425-4.482c.462-.361,15.885-7.927,6.021-21.716-5.477-6.1-14.524-8.864-22.672-3.514A18.216,18.216,0,0,0,5215.98,3083.557Z" transform="translate(-5210.769 -3053.492)"/>
        <path id="Path_24" data-name="Path 24" class="cls-3" d="M5415.9,3740.9v9.009h8.75V3740.9Z" transform="translate(-5398.23 -3687.979)"/>
      </g>
    </g>
    <text id="Something_else-2" data-name="Something else" class="cls-4" transform="translate(1255 768.652)"><tspan x="0" y="0">Something else</tspan></text>
  </g>
</svg>
