<svg xmlns="http://www.w3.org/2000/svg" xmlns:xlink="http://www.w3.org/1999/xlink" viewBox="4744 5220 130 80">
  <defs>
    <style>
      .cls-1, .cls-3 {
        fill: #fff;
      }

      .cls-1 {
        stroke: #95989a;
      }

      .cls-2 {
        clip-path: url(#clip-path);
      }
    </style>
    <clipPath id="clip-path">
      <rect id="Rectangle_138" data-name="Rectangle 138" class="cls-1" width="130" height="80" transform="translate(532 514)"/>
    </clipPath>
  </defs>
  <g id="Mask_Group_5" data-name="Mask Group 5" class="cls-2" transform="translate(4212 4706)">
    <path id="gum-wrapped" class="cls-3" d="M79.455,14.708,65.292.545a1.862,1.862,0,0,0-2.632,0L.545,62.66a1.861,1.861,0,0,0,0,2.632L14.708,79.455a1.861,1.861,0,0,0,2.632,0L37.688,59.107a1.862,1.862,0,0,0,2.632,0l11.289-11.29a1.861,1.861,0,0,0,0-2.632L79.455,17.34A1.861,1.861,0,0,0,79.455,14.708ZM57.4,11.073l5.83,5.83-5.532,2.014a1.861,1.861,0,0,0-1.112,1.112l-2.716,7.462L46.4,30.208a1.861,1.861,0,0,0-1.112,1.112l-2.014,5.533-5.83-5.83ZM16.024,75.507,4.493,63.976l5.264-5.264,11.53,11.53ZM40.1,54.061,36.609,37.893a1.861,1.861,0,0,0-3.638.786L36.5,55.028,23.92,67.611l-11.53-11.53L34.815,33.655l7.867,7.867.061.061,4.892,4.892.027.028Zm8.875-11.507-2.8-2.8,2.311-6.348,7.462-2.717a1.861,1.861,0,0,0,1.112-1.112l2.716-7.462,6.347-2.311,2.8,2.8ZM71.559,19.972l-3.6-3.6c-.022-.023-.044-.045-.066-.066L60.028,8.441l3.948-3.948,11.53,11.53Z" transform="translate(557 514)"/>
  </g>
</svg>
