<svg xmlns="http://www.w3.org/2000/svg" xmlns:xlink="http://www.w3.org/1999/xlink" viewBox="4734 4900.708 151.6 93.292">
  <defs>
    <style>
      .cls-1 {
        fill: #fff;
      }

      .cls-2 {
        clip-path: url(#clip-path);
      }
    </style>
    <clipPath id="clip-path">
      <rect id="Rectangle_129" data-name="Rectangle 129" class="cls-1" width="151.6" height="93.292" transform="translate(830 296)"/>
    </clipPath>
  </defs>
  <g id="Mask_Group_2" data-name="Mask Group 2" class="cls-2" transform="translate(3904 4604.708)">
    <g id="coffee-cup" transform="translate(859.878 296)">
      <g id="Group_63" data-name="Group 63" transform="translate(0 0)">
        <g id="Group_62" data-name="Group 62">
          <path id="Path_38" data-name="Path 38" class="cls-1" d="M82.98,75.226H63.368A29.249,29.249,0,0,0,75.1,66.954c11.886-1.8,17.211-11.633,17.211-20.68,0-6.422-3.576-11.784-8.2-12.722,0-.049,0-.1,0-.146a3.3,3.3,0,0,0-3.217-3.217H6.9a3.176,3.176,0,0,0-2.252.965,3.176,3.176,0,0,0-.965,2.252C3.806,50.7,6.819,68.2,24.419,75.226H4.646A4.153,4.153,0,0,0,.464,79.408c0,1.93,1.287,3.378,3.539,3.86l20.428,1.448a1.21,1.21,0,0,1,1.126.8,4.637,4.637,0,0,0,4.182,2.574h26.7a4.241,4.241,0,0,0,4.021-2.574,1.21,1.21,0,0,1,1.126-.8l21.875-1.448h.161c2.252-.482,3.539-1.93,3.539-3.86A4.153,4.153,0,0,0,82.98,75.226Zm1.126-38.282c2.734.965,4.825,4.825,4.825,9.329,0,6.268-2.891,13.821-10.919,16.561q.2-.342.395-.69C82.874,54.395,83.793,45.063,84.106,36.944ZM6.9,33.405h73.99c-.161,21.714-4.826,41.821-37,41.821S7.059,55.12,6.9,33.405ZM83.3,80.051,61.748,81.5a5.015,5.015,0,0,0-3.86,2.574,1.641,1.641,0,0,1-1.287.8H29.739a1.64,1.64,0,0,1-1.287-.8,5.015,5.015,0,0,0-3.86-2.574L4.486,80.051c-.8-.161-.8-.482-.8-.643a1.038,1.038,0,0,1,.965-.965H83.14a1.038,1.038,0,0,1,.965.965C84.106,79.569,84.106,79.891,83.3,80.051Z" transform="translate(-0.464 5.198)"/>
          <path id="Path_39" data-name="Path 39" class="cls-1" d="M37.267,13.194c-2.413,2.413-3.7,4.825-3.7,7.4s1.287,5.147,3.7,7.721a1.555,1.555,0,0,0,2.252,0,1.555,1.555,0,0,0,0-2.252c-1.769-1.93-2.734-3.7-2.734-5.469a7.17,7.17,0,0,1,2.734-5.147c2.413-2.252,3.7-4.825,3.7-7.4a10.6,10.6,0,0,0-3.7-7.721,1.555,1.555,0,0,0-2.252,0,1.555,1.555,0,0,0,0,2.252C39.037,4.509,40,6.278,40,8.047A7.17,7.17,0,0,1,37.267,13.194Z" transform="translate(5.036 0.156)"/>
          <path id="Path_40" data-name="Path 40" class="cls-1" d="M48.74,20.593c0,2.574,1.287,5.147,3.7,7.721a1.46,1.46,0,0,0,1.126.482,1.147,1.147,0,0,0,.965-.482,1.555,1.555,0,0,0,0-2.252c-1.769-1.93-2.734-3.7-2.734-5.469a7.17,7.17,0,0,1,2.734-5.147c2.574-2.252,3.86-4.825,3.86-7.4a10.346,10.346,0,0,0-3.7-7.721,1.555,1.555,0,0,0-2.252,0,1.555,1.555,0,0,0,0,2.252c1.769,1.93,2.734,3.7,2.734,5.469s-.965,3.378-2.734,5.147C50.027,15.607,48.74,18.02,48.74,20.593Z" transform="translate(7.557 0.156)"/>
          <path id="Path_41" data-name="Path 41" class="cls-1" d="M19.775,20.593c0,2.574,1.287,5.147,3.7,7.721A1.46,1.46,0,0,0,24.6,28.8a1.147,1.147,0,0,0,.965-.482,1.555,1.555,0,0,0,0-2.252c-1.769-1.93-2.734-3.7-2.734-5.469a7.17,7.17,0,0,1,2.734-5.147c2.574-2.252,3.86-4.825,3.86-7.4a10.346,10.346,0,0,0-3.7-7.721,1.555,1.555,0,0,0-2.252,0,1.555,1.555,0,0,0,0,2.252c1.769,1.93,2.734,3.7,2.734,5.469s-.965,3.378-2.734,5.147C21.062,15.607,19.775,18.02,19.775,20.593Z" transform="translate(2.744 0.156)"/>
          <path id="Path_42" data-name="Path 42" class="cls-1" d="M32.964,65.125c-11.42-1.93-17.211-8.364-19.624-21.232a1.764,1.764,0,0,0-1.93-1.287,1.764,1.764,0,0,0-1.287,1.93c2.574,14.315,9.49,21.554,22.2,23.806h.322a1.566,1.566,0,0,0,1.609-1.287A1.669,1.669,0,0,0,32.964,65.125Z" transform="translate(1.136 7.257)"/>
        </g>
      </g>
    </g>
  </g>
</svg>
