<svg xmlns="http://www.w3.org/2000/svg" xmlns:xlink="http://www.w3.org/1999/xlink" viewBox="4429.375 3690 159.25 98">
  <defs>
    <style>
      .cls-1, .cls-3 {
        fill: #fff;
      }

      .cls-1 {
        stroke: #95989a;
      }

      .cls-2 {
        clip-path: url(#clip-path);
      }
    </style>
    <clipPath id="clip-path">
      <rect id="Rectangle_130" data-name="Rectangle 130" class="cls-1" width="159.25" height="98" transform="translate(1282 314)"/>
    </clipPath>
  </defs>
  <g id="Mask_Group_3" data-name="Mask Group 3" class="cls-2" transform="translate(3147.375 3376)">
    <g id="tea" transform="translate(1307.611 314)">
      <path id="Path_43" data-name="Path 43" class="cls-3" d="M21.88,29.254a8.229,8.229,0,0,0,2.431,5.861,1.8,1.8,0,1,0,2.546-2.546,4.684,4.684,0,0,1,0-6.631,8.285,8.285,0,0,0,0-11.725,1.8,1.8,0,0,0-2.546,2.546,4.69,4.69,0,0,1,0,6.635A8.234,8.234,0,0,0,21.88,29.254Z" transform="translate(4.923 -1.935)"/>
      <path id="Path_44" data-name="Path 44" class="cls-3" d="M54.215,29.254a8.229,8.229,0,0,0,2.431,5.861,1.8,1.8,0,1,0,2.546-2.546,4.684,4.684,0,0,1,0-6.631,8.285,8.285,0,0,0,0-11.725,1.8,1.8,0,1,0-2.546,2.546,4.69,4.69,0,0,1,0,6.635A8.234,8.234,0,0,0,54.215,29.254Z" transform="translate(12.198 -1.935)"/>
      <path id="Path_45" data-name="Path 45" class="cls-3" d="M37.419,24.424a10.462,10.462,0,0,0,3.088,7.449,1.8,1.8,0,0,0,2.548-2.546,6.931,6.931,0,0,1,0-9.807,10.53,10.53,0,0,0,0-14.9,1.8,1.8,0,0,0-2.546,2.546,6.931,6.931,0,0,1,0,9.807A10.461,10.461,0,0,0,37.419,24.424Z" transform="translate(8.419 -4.093)"/>
      <path id="Path_46" data-name="Path 46" class="cls-3" d="M84.527,67.349c.034,0,.061.02.1.02,13.343,0,23.406-9.289,23.406-21.606a1.8,1.8,0,0,0-1.8-1.8H89.944c.05-1.183.079-2.382.079-3.6a1.8,1.8,0,0,0-1.8-1.8H39.61v-1.8a1.8,1.8,0,0,0-3.6,0v1.8H12.6a1.8,1.8,0,0,0-1.8,1.8c0,17.475,5.3,31.294,15.036,39.61H1.8a1.8,1.8,0,0,0-1.8,1.8C0,84.5,12.9,89.26,13.032,89.309c7.409,2.663,19.91,5.839,37.381,5.839,33.458,0,49.048-11.449,49.7-11.937a1.8,1.8,0,0,0-1.082-3.239H74.988A38.34,38.34,0,0,0,84.527,67.349Zm19.816-19.785c-.859,9.047-8.185,15.552-18.224,16.147A60.338,60.338,0,0,0,89.7,47.563h14.638ZM50.413,91.545c-21.285,0-34.935-4.69-41.875-7.974H92.094C84.966,86.884,71.234,91.545,50.413,91.545ZM31.9,79.972C20.983,73.164,14.814,59.8,14.424,42.162H36.009v3.6h-3.6a1.8,1.8,0,0,0-1.8,1.8v13.5a1.8,1.8,0,0,0,1.8,1.8h10.8a1.8,1.8,0,0,0,1.8-1.8v-13.5a1.8,1.8,0,0,0-1.8-1.8h-3.6v-3.6H86.4c-.391,17.641-6.559,31-17.481,37.81Zm9.506-30.608v9.9h-7.2v-9.9Z" transform="translate(0 2.852)"/>
    </g>
  </g>
</svg>
