<?xml version="1.0" encoding="utf-8"?>
<!-- Generator: Adobe Illustrator 22.0.1, SVG Export Plug-In . SVG Version: 6.00 Build 0)  -->
<svg version="1.1" id="Capa_1" xmlns="http://www.w3.org/2000/svg" xmlns:xlink="http://www.w3.org/1999/xlink" x="0px" y="0px"
	 viewBox="0 0 56 56" style="enable-background:new 0 0 56 56;" xml:space="preserve">
<style type="text/css">
	.st0{fill-rule:evenodd;clip-rule:evenodd;fill:#C4DB42;}
	.st1{fill-rule:evenodd;clip-rule:evenodd;fill:#86AA00;}
	.st2{fill-rule:evenodd;clip-rule:evenodd;fill:#FABA03;}
	.st3{fill-rule:evenodd;clip-rule:evenodd;fill:#FEE252;}
	.st4{fill-rule:evenodd;clip-rule:evenodd;}
	.st5{fill-rule:evenodd;clip-rule:evenodd;fill:#EFEF5D;}
</style>
<g>
	<g>
		<path class="st0" d="M45.3,10.7l-1.6-0.5c0,0,3.1,2.5,0.7,6.4c-2.4,4,5,0.4,4.3-3.2c-0.8-3.6-0.9-2.4-0.9-2.4L45.3,10.7z"/>
		<path class="st1" d="M47.6,8.3l-1,2.7c0,0,1.3,0.3,0.9,3.6c-0.4,3.3-0.4,3.3-0.4,3.3l1.7,0.4c0,0,0.3-5.4,3.1-3.2
			C54.7,17.5,55.1,11.8,47.6,8.3z"/>
		<path class="st2" d="M45,15.5c0.1,1.1,4.2,1.4,4,2.4C39,57.1-8,37.1,1.6,23.4C4,20,22.2,43.2,45,15.5z"/>
		<path class="st3" d="M45.2,14.9c-11.3,28-47.3,13.8-43.4,7.9C4.2,19.3,22.4,42.6,45.2,14.9z"/>
		<path class="st4" d="M3.3,22.2c0.4,0.4,0.1,1.4-0.7,2.2c-0.8,0.8-1.7,1.1-2.2,0.7c-0.4-0.4-0.1-1.4,0.7-2.2
			C1.9,22.1,2.9,21.8,3.3,22.2z"/>
		<polygon class="st5" points="43.7,10.2 46.6,11 47.9,8.4 45.4,7.7 		"/>
	</g>
	<g>
		<path class="st0" d="M46.4,13.4l-1.7,0c0,0,3.6,1.6,2.3,6.1c-1.3,4.4,5-0.9,3.3-4.2c-1.6-3.3-1.5-2.1-1.5-2.1L46.4,13.4z"/>
		<path class="st1" d="M48.1,10.6l-0.3,2.9c0,0,1.4,0,1.8,3.3C50,20,50,20,50,20h1.8c0,0-1.1-5.3,2.2-3.8
			C57.3,17.7,56.2,12.1,48.1,10.6z"/>
		<path class="st2" d="M47.3,18.2c0.4,1.1,4.5,0.3,4.5,1.3C51.9,60,1.4,52.3,7.3,36.7C8.8,32.8,32.1,50.7,47.3,18.2z"/>
		<path class="st3" d="M47.4,17.6c-4,29.9-42.3,25.1-40,18.5C8.8,32.1,32.2,50.1,47.4,17.6z"/>
		<path class="st4" d="M8.6,35.1c0.5,0.3,0.4,1.3-0.1,2.3c-0.6,1-1.4,1.5-1.9,1.2s-0.4-1.3,0.1-2.3C7.3,35.4,8.1,34.8,8.6,35.1z"/>
		<polygon class="st5" points="44.8,13.4 47.8,13.4 48.4,10.6 45.7,10.5 		"/>
	</g>
</g>
</svg>
