<?xml version="1.0" encoding="iso-8859-1"?>
<!-- Generator: Adobe Illustrator 19.0.0, SVG Export Plug-In . SVG Version: 6.00 Build 0)  -->
<svg version="1.1" id="Layer_1" xmlns="http://www.w3.org/2000/svg" xmlns:xlink="http://www.w3.org/1999/xlink" x="0px" y="0px"
	 viewBox="0 0 512.001 512.001" style="enable-background:new 0 0 512.001 512.001;" xml:space="preserve">
<path style="fill:#97F2E3;" d="M432.935,158.6v0.011l-3.377,34.855l-22.596,233.009c0,29.76-61.874,53.903-138.202,53.903
	c-23.324,0-45.294-2.252-64.558-6.232c-43.816-9.041-73.655-26.997-73.655-47.671L107.95,193.466l-2.672-27.565l-0.705-7.289V158.6
	L432.935,158.6L432.935,158.6z"/>
<path style="fill:#76DDCE;" d="M432.935,158.6v0.011l-3.377,34.855c-34.98,20.037-93.954,33.206-160.809,33.206
	s-125.829-13.169-160.798-33.206l-3.377-34.855V158.6H432.935z"/>
<path style="fill:#E6E6E6;" d="M463.127,118.002c0,41.871-87.029,75.816-194.379,75.816c-31.739,0-61.704-2.968-88.154-8.222
	C117.548,173.053,74.38,147.489,74.38,118.002l26.371-52.47h336.004L463.127,118.002z"/>
<path style="fill:#CCCCCC;" d="M216.153,92.597l-35.56,92.999C117.548,173.053,74.38,147.489,74.38,118.002l26.371-52.47h85.482
	L216.153,92.597z"/>
<ellipse style="fill:#F2F2F2;" cx="268.751" cy="65.536" rx="168.008" ry="65.536"/>
<path style="fill:#CCCCCC;" d="M268.752,104.177c-39.676,0-77.132-5.687-105.466-16.014c-27.279-9.942-35.025-20.326-35.633-22.631
	c0.607-2.305,8.354-12.689,35.631-22.631c28.334-10.327,65.789-16.015,105.467-16.015c39.676,0,77.132,5.687,105.466,16.015
	c27.279,9.942,35.025,20.326,35.633,22.631c-0.607,2.305-8.355,12.689-35.634,22.631C345.883,98.49,308.429,104.177,268.752,104.177
	z"/>
<path style="fill:#76DDCE;" d="M204.201,474.145c-43.816-9.041-73.655-26.997-73.655-47.671L107.95,193.466l-2.672-27.565
	l83.583,39.278L204.201,474.145z"/>
<g>
	<path style="fill:#4CA1E0;" d="M49.298,448.461c-4.183,29.163,23.085,57.201,60.898,62.625
		c30.711,4.404,58.936-7.458,70.693-27.689"/>
	<path style="fill:#4CA1E0;" d="M354.871,489.986c0,0.762-0.046,1.524-0.159,2.286c-1.251,8.688-9.302,14.715-17.99,13.476
		l-162.447-23.301c-2.365,1.285-5.026,2.434-7.949,3.434c-13.464,4.594-32.444,5.993-52.947,3.048
		c-30.135-4.31-54.471-16.694-61.886-30.113c-1.899-3.423-2.684-6.914-2.195-10.348c2.434-16.933,35.048-26.258,72.871-20.833
		c24.961,3.582,45.931,12.691,56.62,23.346l162.447,23.301C349.163,475.408,354.871,482.208,354.871,489.986z"/>
</g>
<path style="fill:#3C91C6;" d="M166.326,485.881c-13.464,4.594-32.444,5.993-52.947,3.048c-30.135-4.31-54.471-16.694-61.886-30.113
	c0.011-0.091,0.045-0.182,0.068-0.273c3.503-11.736,32.194-13.532,64.092-4.003C141.524,462.262,161.561,475.067,166.326,485.881z"
	/>
<g>
</g>
<g>
</g>
<g>
</g>
<g>
</g>
<g>
</g>
<g>
</g>
<g>
</g>
<g>
</g>
<g>
</g>
<g>
</g>
<g>
</g>
<g>
</g>
<g>
</g>
<g>
</g>
<g>
</g>
</svg>
