<svg xmlns="http://www.w3.org/2000/svg" viewBox="0 0 520.264 93.424"><defs><style>.cls-2{fill:#fff}</style><filter id="luminosity-invert" filterUnits="userSpaceOnUse" color-interpolation-filters="sRGB"><feColorMatrix values="-1 0 0 0 1 0 -1 0 0 1 0 0 -1 0 1 0 0 0 1 0"/></filter><linearGradient id="New_Gradient_Swatch_1" x1="46.958" y1="85.29" x2="46.958" y2="8.242" gradientUnits="userSpaceOnUse"><stop offset="0" stop-color="#428ccb"/><stop offset=".297" stop-color="#408cca"/><stop offset=".404" stop-color="#398bc7"/><stop offset=".48" stop-color="#2e8bc2"/><stop offset=".542" stop-color="#1d8abb"/><stop offset=".594" stop-color="#0788b1"/><stop offset=".607" stop-color="#0088ae"/><stop offset=".623" stop-color="#0d93bb"/><stop offset=".656" stop-color="#23a6d0"/><stop offset=".695" stop-color="#34b5e0"/><stop offset=".743" stop-color="#3fbfec"/><stop offset=".811" stop-color="#46c5f2"/><stop offset="1" stop-color="#48c7f4"/></linearGradient><radialGradient id="radial-gradient" cx="439.959" cy="18.587" r="6.156" gradientUnits="userSpaceOnUse"><stop offset="0" stop-color="#428ccb"/><stop offset=".5" stop-color="#428ecc"/><stop offset=".68" stop-color="#4395d1"/><stop offset=".808" stop-color="#44a0d9"/><stop offset=".912" stop-color="#46b1e5"/><stop offset="1" stop-color="#48c7f4"/></radialGradient></defs><g style="isolation:isolate"><g id="Layer_1" data-name="Layer 1"><g id="logo"><path class="cls-2" d="M90.316 82.561a7.754 7.754 0 0 1-7.755 7.755h-71.7a7.754 7.754 0 0 1-7.754-7.755v-71.7a7.754 7.754 0 0 1 7.754-7.754H73.12V0H8.307A8.307 8.307 0 0 0 0 8.307v76.81a8.307 8.307 0 0 0 8.307 8.307h76.81a8.307 8.307 0 0 0 8.307-8.307V20.231h-3.108zM85.117 0h-5.076v3.108h2.52a7.754 7.754 0 0 1 7.755 7.754v2.447h3.108v-5A8.307 8.307 0 0 0 85.117 0z"/><path d="M90.316 81.443c0 6.735-3.982 8.873-8.893 8.873H11.011a8.884 8.884 0 0 1-8.894-8.873V11.98a8.883 8.883 0 0 1 8.894-8.872H81.8c7.031 0 8.52 2.083 8.52 8.871z" fill="#bbbdbf"/><g mask="url(#mask)"><path d="M90.316 81.443c0 6.735-3.982 8.873-8.893 8.873H11.011a8.884 8.884 0 0 1-8.894-8.873V11.98a8.883 8.883 0 0 1 8.894-8.872H81.8c7.031 0 8.52 2.083 8.52 8.871z" style="mix-blend-mode:multiply" fill="#a8a8a8" opacity=".81"/></g><path d="M90.316 81.443c0 6.735-3.982 8.873-8.893 8.873H11.011a8.884 8.884 0 0 1-8.894-8.873V11.98a8.883 8.883 0 0 1 8.894-8.872H81.8c7.031 0 8.52 2.083 8.52 8.871z" stroke="#e6e7e8" fill="none" stroke-miterlimit="10"/><path d="M84.37 32.48V15.246c0-4.435-2.969-6.955-8.2-6.955H48.858c-.421 0-.821.023-1.212.055a14.6 14.6 0 0 0-1.757-.1H17.622c-5.226 0-8.076 2.52-8.076 7.055v62.885c0 4.535 2.85 7.055 8.076 7.055h28.267c.432 0 .843-.023 1.244-.056a13.9 13.9 0 0 0 1.725.105h27.317c5.226 0 8.2-2.52 8.2-7.055V59.893a6.817 6.817 0 0 0-2.975-6.249L54.2 31.875V17.967h16.63V32.48zM70.83 60.5v15.115H54.2V59.138H40.663v16.226H23.086V18.119h17.577v15.218h.026a6.325 6.325 0 0 0 2.944 5.29z" fill="url(#New_Gradient_Swatch_1)"/><path d="M84.37 32.48V15.246c0-4.435-2.969-6.955-8.2-6.955H48.858c-.421 0-.821.023-1.212.055a14.6 14.6 0 0 0-1.757-.1H17.622c-5.226 0-8.076 2.52-8.076 7.055v62.885c0 4.535 2.85 7.055 8.076 7.055h28.267c.432 0 .843-.023 1.244-.056a13.9 13.9 0 0 0 1.725.105h27.317c5.226 0 8.2-2.52 8.2-7.055V59.893a6.817 6.817 0 0 0-2.975-6.249L54.2 31.875V17.967h16.63V32.48zM70.83 60.5v15.115H54.2V59.138H40.663v16.226H23.086V18.119h17.577v15.218h.026a6.325 6.325 0 0 0 2.944 5.29z" stroke="#d0d2d3" fill="none" stroke-miterlimit="10"/></g><path class="cls-2" d="M139.172 75.612A28.945 28.945 0 0 1 112.533 57.9a28.3 28.3 0 0 1-2.305-11.232 28.822 28.822 0 0 1 2.305-11.3 26.589 26.589 0 0 1 6.191-9.144 29.887 29.887 0 0 1 9.216-6.264 26.289 26.289 0 0 1 5.472-1.692 30.434 30.434 0 0 1 5.76-.54 28.958 28.958 0 0 1 11.3 2.232 36.243 36.243 0 0 1 4.828 2.66 27.293 27.293 0 0 1 4.32 3.528l-6.047 6.12a20.764 20.764 0 0 0-6.624-4.392 20.227 20.227 0 0 0-7.777-1.512 20.094 20.094 0 0 0-14.327 5.94 21.192 21.192 0 0 0-4.357 6.48 20.006 20.006 0 0 0 0 15.768 20.5 20.5 0 0 0 10.8 10.8 19.477 19.477 0 0 0 7.884 1.62 20.227 20.227 0 0 0 7.777-1.512 20.747 20.747 0 0 0 6.624-4.392l6.047 6.048a28.55 28.55 0 0 1-9.144 6.192 28.875 28.875 0 0 1-11.304 2.304zM184.387 76.188a18.867 18.867 0 0 1-7.236-1.4 19.692 19.692 0 0 1-10.223-10.228 18.778 18.778 0 0 1 4.139-20.628 17.927 17.927 0 0 1 6.084-4.14 18.867 18.867 0 0 1 7.236-1.4 18.506 18.506 0 0 1 7.345 1.476 18.967 18.967 0 0 1 10.115 10.112 18.52 18.52 0 0 1 1.477 7.344v3.96h-29.161a10.961 10.961 0 0 0 4 5.04 10.586 10.586 0 0 0 6.227 1.944 10.77 10.77 0 0 0 5.544-1.476 11.269 11.269 0 0 0 4.032-4l6.84 3.96a19.653 19.653 0 0 1-6.768 6.84 18.887 18.887 0 0 1-9.651 2.596zm-10.224-22.824h20.52a11.187 11.187 0 0 0-4-5.076 10.576 10.576 0 0 0-6.3-1.98 10.453 10.453 0 0 0-6.227 1.98 11.178 11.178 0 0 0-3.993 5.076zM212.9 74.532V17.508h8.639v57.024zM233.2 74.532V17.508h8.64v57.024zM291.883 39.972v34.56h-8.641v-4.68c-.1.1-.205.216-.324.36s-.229.264-.324.36a19.362 19.362 0 0 1-6.12 4.068 18.792 18.792 0 0 1-24.515-24.516A19.355 19.355 0 0 1 256.025 44a18.457 18.457 0 0 1 6.084-4.068 19.074 19.074 0 0 1 14.365 0 19.379 19.379 0 0 1 6.12 4.068 7.318 7.318 0 0 0 .648.72v-4.748zM269.273 67.4a10.219 10.219 0 0 0 7.2-2.952 10.233 10.233 0 0 0 2.161-3.2 9.816 9.816 0 0 0 .791-3.924 10.116 10.116 0 0 0-10.153-10.152 9.8 9.8 0 0 0-3.924.792 10.2 10.2 0 0 0-3.2 2.16 10.225 10.225 0 0 0-2.953 7.2 9.784 9.784 0 0 0 .793 3.924 10.116 10.116 0 0 0 5.363 5.364 9.787 9.787 0 0 0 3.922.788zM321.906 38.388a18.308 18.308 0 0 1 5.149.792 17.211 17.211 0 0 1 4.572 2.016l-4.752 7.2a7.791 7.791 0 0 0-2.233-.936 10.044 10.044 0 0 0-2.736-.432 14.376 14.376 0 0 0-4.068.5 10.16 10.16 0 0 0-2.807 1.26 6.885 6.885 0 0 0-1.764 1.656 15.9 15.9 0 0 0-1.08 1.692 12.264 12.264 0 0 0-.865 2.484q-.287 1.26-.432 2.376t-.179 2.088a39.028 39.028 0 0 0-.037 1.476v13.972h-8.711v-35.28h8.64v2.16a.063.063 0 0 1 .071-.072 20.626 20.626 0 0 1 11.232-2.952zM349.7 75.828a2.727 2.727 0 0 1-.432-.036 2.162 2.162 0 0 0-.361-.036 14.462 14.462 0 0 1-3.887-.54 17.074 17.074 0 0 1-3.6-1.44 14.928 14.928 0 0 1-2.988-2.124 9.168 9.168 0 0 1-2.051-2.664l3.24-1.656a6.251 6.251 0 0 0 1.475 1.872 10.715 10.715 0 0 0 2.232 1.512 13.7 13.7 0 0 0 2.736 1.044 11.207 11.207 0 0 0 2.916.4h.145a9.352 9.352 0 0 0 2.951-.216 12.51 12.51 0 0 0 3.348-1.224 9.494 9.494 0 0 0 2.808-2.268 5.859 5.859 0 0 0 1.332-3.492 5.163 5.163 0 0 0-1.224-4.032 8.324 8.324 0 0 0-3.492-2.052 16.494 16.494 0 0 0-5.219-.756q-.793 0-2.088-.108a21.133 21.133 0 0 1-2.772-.432 13.544 13.544 0 0 1-2.916-1.008 8.589 8.589 0 0 1-2.593-1.908 8.181 8.181 0 0 1-2.16-6.264 9.3 9.3 0 0 1 2.735-6.264 10.916 10.916 0 0 1 5.617-2.952 15.391 15.391 0 0 1 4.355-.4 17.441 17.441 0 0 1 4.356.756 13.767 13.767 0 0 1 4 1.944 9.073 9.073 0 0 1 2.629 2.88l-3.168 1.728Q356.464 44 353.082 43a11.821 11.821 0 0 0-3.42-.648 13.453 13.453 0 0 0-3.42.288 11.331 11.331 0 0 0-1.836.648 7.084 7.084 0 0 0-1.764 1.116 5.719 5.719 0 0 0-1.332 1.728 6.011 6.011 0 0 0-.611 2.484 4.223 4.223 0 0 0 1.152 3.528 5.286 5.286 0 0 0 1.944 1.332 12.07 12.07 0 0 0 2.267.684 17.837 17.837 0 0 0 2.088.288q.974.072 1.477.072a19.706 19.706 0 0 1 6.66 1.044 11.413 11.413 0 0 1 4.643 2.916 8.421 8.421 0 0 1 2.232 6.768 10.047 10.047 0 0 1-1.943 5.256 10.656 10.656 0 0 1-3.817 3.24 16.336 16.336 0 0 1-7.7 2.088zM387.713 42.852H380.3V74.46h-3.6V42.852h-5.4v-3.6h5.4V17.508h3.6v21.744h7.416zM413.346 75.684a18.423 18.423 0 1 1 7.054-1.4 18.234 18.234 0 0 1-7.054 1.4zm0-33.264a14.632 14.632 0 0 0-5.8 1.152 14.746 14.746 0 0 0-7.883 7.884 15.157 15.157 0 0 0 0 11.592 14.885 14.885 0 1 0 13.68-20.628zM469.072 43.428a16.078 16.078 0 0 1 4.752 11.448v19.656h-3.6V54.876a12.47 12.47 0 0 0-.972-4.9 12.133 12.133 0 0 0-2.7-4 13.384 13.384 0 0 0-4.034-2.7 12.075 12.075 0 0 0-4.894-1.008h-.072a12.079 12.079 0 0 0-4.9 1.008 12.683 12.683 0 0 0-6.695 6.7 12.051 12.051 0 0 0-1.008 4.9v19.656h-3.6v-34.56h3.6v4.752a13.525 13.525 0 0 1 1.15-1.296 16.067 16.067 0 0 1 11.45-4.752h.072a16.067 16.067 0 0 1 11.447 4.752zM501.832 75.756a18.158 18.158 0 0 1-7.094-1.4 18.4 18.4 0 0 1-5.939-4 18.665 18.665 0 0 1-4.069-6.012 17.988 17.988 0 0 1-1.4-7.02 18.172 18.172 0 0 1 1.4-7.092 18.676 18.676 0 0 1 4.07-6.012 18.4 18.4 0 0 1 5.939-4 18.158 18.158 0 0 1 7.094-1.4A17.941 17.941 0 0 1 509 40.26a18.673 18.673 0 0 1 5.867 3.96 18.487 18.487 0 0 1 3.959 5.9 18.18 18.18 0 0 1 1.442 7.2v1.8H487.07a14.556 14.556 0 0 0 1.656 5.112 15.746 15.746 0 0 0 3.241 4.14 14.874 14.874 0 0 0 22.752-3.636l3.095 1.8a18.82 18.82 0 0 1-6.623 6.7 18.008 18.008 0 0 1-9.359 2.52zM487.07 55.524h29.522a15.449 15.449 0 0 0-1.621-5.148 14.564 14.564 0 0 0-3.241-4.176 15.09 15.09 0 0 0-4.535-2.772 14.872 14.872 0 0 0-10.764 0 15.069 15.069 0 0 0-7.777 6.948 13.852 13.852 0 0 0-1.584 5.148z"/><path class="cls-2" transform="rotate(-48.901 427.138 32.299)" d="M415.135 30.397h24.001v3.806h-24.001z"/><path class="cls-2" transform="rotate(-76.073 458.156 22.006)" d="M456.254 10.005h3.806v24.001h-3.806z"/><path class="cls-2" d="M439.958 11.253a7.334 7.334 0 1 0 7.334 7.334 7.334 7.334 0 0 0-7.334-7.334zm0 13.426a6.092 6.092 0 1 1 6.092-6.092 6.092 6.092 0 0 1-6.091 6.092zM474.908 20.718a6.021 6.021 0 1 0 6.022 6.021 6.021 6.021 0 0 0-6.022-6.021zm0 11.268a5.248 5.248 0 1 1 5.248-5.247 5.247 5.247 0 0 1-5.248 5.247z"/><path d="M446.115 18.587a6.156 6.156 0 1 1-6.156-6.156 6.156 6.156 0 0 1 6.156 6.156z" fill="url(#radial-gradient)"/></g></g></svg>