<svg xmlns="http://www.w3.org/2000/svg" viewBox="1032 3494 300 426.652">
  <defs>
    <style>
      .cls-1, .cls-2 {
        fill: none;
      }

      .cls-1 {
        opacity: 0.4;
      }

      .cls-2 {
        stroke: #fff;
        stroke-width: 5px;
      }

      .cls-3 {
        fill: #fff;
        font-size: 35px;
        font-family: SegoeUI, Segoe UI;
      }
    </style>
  </defs>
  <g id="Order_snacks" data-name="Order snacks" transform="translate(-225 3171)">
    <rect id="Rectangle_104" data-name="Rectangle 104" class="cls-1" width="300" height="300" rx="77" transform="translate(1257 323)"/>
    <g id="Snacks-icon" transform="translate(1297.173 377.8)">
      <path id="Path_1" data-name="Path 1" class="cls-2" d="M1365.1,1181.4l10.745,21.942h177.631L1565.1,1181.4Z" transform="translate(-1355.373 -1028.342)"/>
      <path id="Path_2" data-name="Path 2" class="cls-2" d="M1514.583,1134.3H1379.9s2.708,92.644,66.71,92.644S1514.583,1134.3,1514.583,1134.3Z" transform="translate(-1350.615 -1077.142)"/>
      <path id="Path_3" data-name="Path 3" class="cls-2" d="M1450.58,1137.708s27.167-1.6,26.974,27.646c-.011,2.361-1.087,5.505-1.755,9.216l-.41.82-1.783,3.787c-17.272,25.709-35.307,4.388-35.307,4.388" transform="translate(-1288.549 -1073.953)"/>
      <line id="Line_1" data-name="Line 1" class="cls-2" y2="20.913" transform="translate(65.979 22.656)"/>
      <line id="Line_2" data-name="Line 2" class="cls-2" y2="24.399" transform="translate(95.59)"/>
      <line id="Line_3" data-name="Line 3" class="cls-2" y2="20.913" transform="translate(126.944 22.656)"/>
    </g>
    <text id="Order_snacks-2" data-name="Order snacks" class="cls-3" transform="translate(1307 740.652)"><tspan x="0" y="0">Order snacks</tspan></text>
  </g>
</svg>
