<svg xmlns="http://www.w3.org/2000/svg" xmlns:xlink="http://www.w3.org/1999/xlink" viewBox="4745 4610 130 80">
  <defs>
    <style>
      .cls-1 {
        fill: #fff;
      }

      .cls-2 {
        clip-path: url(#clip-path);
      }
    </style>
    <clipPath id="clip-path">
      <rect id="Rectangle_142" data-name="Rectangle 142" class="cls-1" width="130" height="80" transform="translate(1280 759)"/>
    </clipPath>
  </defs>
  <g id="Mask_Group_1" data-name="Mask Group 1" class="cls-2" transform="translate(3465 3851)">
    <g id="apple" transform="translate(1305.002 759)">
      <path id="Path_25" data-name="Path 25" class="cls-1" d="M64.522,24.343c-5.82-4.579-14.063-3.311-20.594-1.695a16.234,16.234,0,0,1-3.207.434c-.172-.862-.385-1.727-.646-2.586l5.047-.751A14.671,14.671,0,0,0,57.539,7.327l.745-5a1.336,1.336,0,0,0,.08-.539L58.629,0,51.3,1.091A14.672,14.672,0,0,0,38.884,13.509l-.439,2.95a16.126,16.126,0,0,0-6.624-6.975,1.352,1.352,0,1,0-1.273,2.385c4.126,2.2,6.4,6.651,7.4,11.125a16.042,16.042,0,0,1-1.875-.345c-6.531-1.616-14.776-2.886-20.594,1.695-5.212,4.1-7.715,12.221-7.65,24.82.047,9.308,5.408,20.046,13.036,26.113,5.037,4.007,10.454,5.509,15.656,4.334a15.909,15.909,0,0,1,6.959,0A15.767,15.767,0,0,0,46.953,80c4.1,0,8.257-1.6,12.181-4.722,7.628-6.068,12.987-16.807,13.036-26.113C72.236,36.563,69.733,28.445,64.522,24.343Zm-19.8-7.273-1.185.177,11.5-11.5-.177,1.185A11.976,11.976,0,0,1,44.723,17.07ZM51.7,3.765,53.459,3.5,41.3,15.666l.262-1.76A11.98,11.98,0,0,1,51.7,3.765Zm5.752,69.4c-3.049,2.427-7.842,5.063-13.379,3.811a18.666,18.666,0,0,0-8.148,0C30.4,78.222,25.6,75.589,22.547,73.162c-6.919-5.5-11.972-15.6-12.015-24.013-.061-11.711,2.1-19.13,6.617-22.682,3.822-3.007,9.461-3.375,18.274-1.195a18.966,18.966,0,0,0,2.982.46c.077.692.128,1.375.15,2.037A1.351,1.351,0,0,0,39.9,29.077h.043a1.352,1.352,0,0,0,1.308-1.393c-.02-.626-.069-1.27-.135-1.922a19.005,19.005,0,0,0,3.457-.488c8.813-2.179,14.451-1.811,18.274,1.195,4.514,3.552,6.678,10.972,6.617,22.683C69.426,57.558,64.372,67.657,57.453,73.162Z"/>
      <path id="Path_26" data-name="Path 26" class="cls-1" d="M26.748,27.285c-6.708,0-12.164,6.063-12.164,13.515a1.352,1.352,0,0,0,2.7,0c0-5.962,4.245-10.812,9.461-10.812a1.352,1.352,0,0,0,0-2.7Z"/>
      <path id="Path_27" data-name="Path 27" class="cls-1" d="M43.885,27.681a5.8,5.8,0,0,1-8.205,0,1.351,1.351,0,0,0-1.911,1.911,8.5,8.5,0,0,0,12.027,0,1.351,1.351,0,1,0-1.911-1.911Z"/>
    </g>
  </g>
</svg>
