<svg xmlns="http://www.w3.org/2000/svg" xmlns:xlink="http://www.w3.org/1999/xlink" viewBox="4143 4918 130 80">
  <defs>
    <style>
      .cls-1, .cls-3 {
        fill: #fff;
      }

      .cls-1 {
        stroke: #95989a;
      }

      .cls-2 {
        clip-path: url(#clip-path);
      }
    </style>
    <clipPath id="clip-path">
      <rect id="Rectangle_142" data-name="Rectangle 142" class="cls-1" width="130" height="80" transform="translate(852 766)"/>
    </clipPath>
  </defs>
  <g id="Mask_Group_9" data-name="Mask Group 9" class="cls-2" transform="translate(3291 4152)">
    <g id="chips-bag" transform="translate(957 846) rotate(180)">
      <path id="Path_73" data-name="Path 73" class="cls-3" d="M66.076,70.894c4.669-12.586,4.669-49.2,0-61.787l1.37-7.253A1.563,1.563,0,0,0,65.91,0H14.091a1.563,1.563,0,0,0-1.536,1.853l1.369,7.253c-4.669,12.584-4.669,49.2,0,61.787l-1.37,7.254A1.563,1.563,0,0,0,14.089,80H65.914a1.565,1.565,0,0,0,1.507-1.981ZM64.024,3.126l-.861,4.559H16.837l-.86-4.559ZM16.635,10.812H63.364c4.119,12.207,4.119,46.168,0,58.377H16.635C12.517,56.98,12.517,23.019,16.635,10.812Zm-.66,66.062.861-4.559H63.163l.86,4.559Z"/>
      <path id="Path_74" data-name="Path 74" class="cls-3" d="M23.657,52.529l.013,0c.03,0,.06.011.091.015a3.066,3.066,0,0,0,.382.022A21.221,21.221,0,0,0,29.2,51.339a34.705,34.705,0,0,1,6.837-1.672c.172-.01.342-.014.512-.014a19.6,19.6,0,0,1,4.377.684,26.838,26.838,0,0,0,6.321.9c1.994,0,6.983-.366,10.238-3.758a10.261,10.261,0,0,0,2.7-7.847c-.36-8.761-9.864-12.55-14.633-12.55-7.247,0-11.283,5.969-12.719,9.861-9.757,1.424-13.047,9.323-13.047,11.413A4.107,4.107,0,0,0,23.657,52.529Zm21.9-22.321c3.272,0,11.23,2.749,11.51,9.552a7.261,7.261,0,0,1-1.836,5.554c-2.491,2.595-6.74,2.8-7.983,2.8a23.931,23.931,0,0,1-5.614-.819,22.272,22.272,0,0,0-5.084-.765c-.23,0-.461.007-.687.019a22.6,22.6,0,0,0-4.5.884,33.647,33.647,0,0,0,4.145-8.591c0-.008,0-.015.006-.023s0-.009.005-.014C35.62,38.451,38.06,30.208,45.56,30.208ZM31.613,40.379c-1.491,3.571-4.281,8.549-7.654,9.036-1.038-.185-1.039-.706-1.039-1.047C22.964,47.542,24.974,42.107,31.613,40.379Z"/>
    </g>
  </g>
</svg>
