<?xml version="1.0" encoding="utf-8"?>
<!-- Generator: Adobe Illustrator 22.0.1, SVG Export Plug-In . SVG Version: 6.00 Build 0)  -->
<svg version="1.1" id="Layer_1" xmlns="http://www.w3.org/2000/svg" xmlns:xlink="http://www.w3.org/1999/xlink" x="0px" y="0px"
	 viewBox="0 0 300 300" style="enable-background:new 0 0 300 300;" xml:space="preserve">
<style type="text/css">
	.st0{fill:#CCCACA;}
	.st1{fill:#AC7048;}
	.st2{fill:#D69565;}
	.st3{fill:#A06841;}
	.st4{fill:#FEE5D7;}
	.st5{opacity:0.16;fill:#070707;}
	.st6{opacity:0.1;fill:#FDFEFF;}
	.st7{fill:#FFFAFA;}
</style>
<g>
	<g>
		<path class="st0" d="M202.2,120.2c-8.9-5.4-21.7-0.5-28.6,10.9c-6.9,11.4-5.3,25,3.5,30.4c8.9,5.4,21.7,0.5,28.6-10.9
			C212.7,139.2,211.1,125.6,202.2,120.2z M200.9,147.7c-4.8,8-13.8,11.4-20,7.6c-6.2-3.8-7.3-13.3-2.5-21.3c4.8-8,13.8-11.4,20-7.6
			C204.7,130.2,205.8,139.7,200.9,147.7z"/>
	</g>
	<polygon class="st0" points="152.9,100.9 113.1,100.9 126.9,184.1 152.9,184.1 179,184.1 192.8,100.9 	"/>
	<polygon class="st1" points="152.9,100.9 120.3,100.9 131.7,170.6 152.9,170.6 174.2,170.6 185.6,100.9 	"/>
	<g>
		<polygon class="st2" points="185.6,100.9 152.9,100.9 120.3,100.9 123.1,118 182.8,118 		"/>
	</g>
	<g>
		<polygon class="st3" points="130.6,163.7 131.7,170.6 152.9,170.6 174.2,170.6 175.3,163.7 		"/>
	</g>
	<path class="st4" d="M120.3,100.9l12.1-3.5c5.6-1.6,11.6-1.3,17,0.9l0,0c2.3,0.9,4.8,0.9,7.1,0h0c5.5-2.2,11.7-2.5,17.4-0.8
		l11.7,3.4H120.3z"/>
	<polygon class="st5" points="130.6,100.9 141.8,184.1 126.9,184.1 113.1,100.9 	"/>
	<polygon class="st6" points="181.4,100.9 167.7,184.1 160.1,184.1 163.1,100.9 	"/>
	<polygon class="st7" points="192.8,100.9 179,184.1 172,184.1 185.6,100.9 	"/>
	<g>
		<path class="st7" d="M202.2,120.2c-5.1-3.1-11.6-2.8-17.5,0.3l2.8,5.5c3.7-1.5,7.7-1.5,10.9,0.4c6.2,3.8,7.3,13.3,2.5,21.3
			c-0.9,1.5-1.9,2.8-3,3.9l3.5,4.7c1.6-1.6,3.1-3.5,4.4-5.6C212.7,139.2,211.1,125.6,202.2,120.2z"/>
	</g>
</g>
</svg>
