<svg xmlns="http://www.w3.org/2000/svg" viewBox="0 0 417.68 239.59">
  <defs>
    <style>
      .a,.b{fill:#333;}.a,.m{fill-rule:evenodd;}.c,.d,.e,.f,.g,.h,.i,.j,.k,.l,.n,.o,.p{fill:none;stroke-linecap:round;stroke-linejoin:round;}.c{stroke:#7f7fff;}.c,.d,.e,.f,.h,.i,.j,.k,.l,.n{stroke-width:0.14px;}.d{stroke:#adadad;}.e,.f{stroke:#090;}.f,.o{stroke-dasharray:0.01 0.01;}.g,.p{stroke:#000;}.g{stroke-width:0.71px;}.h{stroke:#ff7f00;}.i,.j{stroke:#4888c8;}.i,.l{stroke-dasharray:0.87 0.44 0.01 0.22 0.01 0.44;}.k,.l{stroke:#09c;}.m{fill:#26424c;}.n{stroke:#7f00ff;}.o{stroke:#848484;stroke-width:0.26px;}.p{stroke-width:0;}
    </style>
  </defs>
  <title>
    AlzaJankovcova_20170926_PSP_D-BC.07 Půdorys 4.NP-2
  </title>
  <path class="a" d="M89.39 220.97h-4v.61h4v13.53h.73L90.08 217h-.69v3.97"/>
  <path class="b" d="M119.49 217h.61v18.12h-.61zM148.62 217h.61v18.12h-.61zM252.19 91.54h3.45v.51h-3.45zM205.98 70.03h2.43v2.43h-2.43zM205.98 79.74h2.43v2.43h-2.43zM235.11 79.74h2.43v4.03h-2.43zM235.11 70.03h2.43v2.43h-2.43zM144.57 70.03h3.14v.51h-3.14z"/>
  <path class="a" d="M118.57 70.03l.01 2.43h2.43v9.71h-2.43v1.43h3V70.54h2.67v-.51h-3.24v2.42h-2.43v-2.42h-.01M108.79 65.01h2.47v17.16h-1.23v1.07h.48v-.59h1.26V64.5h-2.98v.51M89.45 72.45v7.29h.61v-7.28h1.82l-2.43-.01"/>
  <path class="b" d="M76.69 64.5h.92v.51h-.92zM176.84 141.02h2.43v1.84h-2.43z"/>
  <path class="a" d="M115.18 154.77v.95h9.53v-.95h-3.42v-12.79h3.42v-1h-9.53v1h3.22v12.79zm5.83-11.92v2.43h-2.43v-2.43zm-2.43 12.14v-2.43h2.43v2.43zM207.49 217h-.6v18.11h.6v-13.05h4.13v-.6h-4.13V217"/>
  <path class="b" d="M177.85 217h.61v18.12h-.61zM205.98 72.46h.55v7.28h-.55zM205.91 82.17h.61v3.92h-.61zM98.06 64.5h1v.51h-1zM133.96 70.03h.9v.51h-.9zM163.02 70.03h1v.51h-1zM115.18 134.58h9.53v.61h-9.53z"/>
  <path class="a" d="M217.16 86.09v.6h29.03v11.65h.51v-6.29h1.31v-.51h-1.21v-5.45h-29.64"/>
  <path class="b" d="M208.4 191.65h11.17v.61H208.4zM81.19 191.65h8.25v.61h-8.25z"/>
  <path class="a" d="M207.49 217v-14.18h-6.04v.61h5.44V217h.6M185.15 202.82h-13.86v.61h6.56V217h.61v-13.57h6.69v-.61M154.79 202.82h-11.6v.61h5.43V217h.61v-13.57h5.56v-.61M126.79 202.82h-13.86v.61h6.56V217h.61v-13.57h6.69v-.61M90 210.88v-7.45h6.53v-.61h-7.14v8.06H90"/>
  <path class="b" d="M87.53 81.56h1.92v.61h-1.92z"/>
  <path class="a" d="M87.35 65.01h.18v3.2h1.92v1.82h2.43v-2.42h-3.74v-2.6h.18v-.51h-.97v.51"/>
  <path class="b" d="M173.8 70.03h3.04v.51h-3.04zM150.14 70.03h3.1v.51h-3.1z"/>
  <path class="a" d="M268.43 1.57h-4.19v.48h2.43v1.22h1.76v-1.7"/>
  <path class="b" d="M235.11 1.57h2.43v.49h-2.43z"/>
  <path class="a" d="M205.97 1.57v.48h2.43v-.48H205.97M176.84 1.57v.48h2.43v-.48H176.84"/>
  <path class="b" d="M147.78 1.57h2.36v.49h-2.36zM118.58 1.57h2.43v.49h-2.43zM89.45 1.57h2.43v.49h-2.43zM60.32 1.57h2.43v.49h-2.43z"/>
  <path class="a" d="M.35 44.3h1.7v-5.83h2.43v1.21h26.7v-1.21h1.95V4.49h-1.95V2.05h2.43v2.44h1.94V2.05h7.77V.35H30.7v37.63H.35v6.32M32.16 54.54h-1.7v.73h1.7v7.28h-1.7v.73h1.7v6.75h1.45V40.9h-1.45v13.64M26.09 54.54H10.65v1.16h-8.6v.78h8.6v.49h.87v-1.7h14.57v-.73M12.01 72.45h12.13v1.12h.73v-1.99h-.73v.34h-8.01v-.24h-.72v.24h-3.89v-8.64h3.89v5h.72v-5h8.01v3.93h.73v-3.93h1.22v-.73H11.52v-1.21h-.87v10.44H4.48v.67h7.04v6.8h12.62v10.34h.73v-7.42h1.22v-.73h-1.22v-4.47h-.73v1.31H12.01v-5.83M.35 74.64h1.7V67.6H.35v7.04"/>
  <path class="b" d="M32.16 72.46h1.46v7.28h-1.46z"/>
  <path class="a" d="M30.43 94.79v.49h.75v-.73h2.43v1.94h-1.06v15.05h-1.37 2.43v1.94h2.43v6.11h26.69V107.4h21.72v-.83H82.5v-.97h-.51v.97H62.8V88.6h2.11v-.51h-2.17v-5.92h-2.42v-2.43h2.42v-7.29h-2.42v-2.42h2.42v-5.02h4.22v-.51h-4.7v5.28h-2.19v11.9H33.61v.49H59v2.66h2.76v34.04H37.01V94.55h-3.4V82.17h-1.06V94.3H30.6v.49h-.17"/>
  <path class="b" d="M30.46 81.44h.73v.73h-.73z"/>
  <path class="a" d="M23.9 95.28h2.16v-.49h-.17v-.49h-1.02v-.34h-.73v.34H2.05v-2.42H.35v6.31h1.7V94.55h2.43v.73h7.28v-.73h2.43v.73h7.29v-.73h2.42v.73M.35 115.67h1.7v-4.13h2.43-2.43v-1.7H.35v5.83"/>
  <path class="b" d="M4.48 112.51h7.28v.97H4.48zM14.19 112.51h7.28v.97h-7.28z"/>
  <path class="a" d="M23.9 113.48h.49v9.23h.73v-9.23h.48V113h.12v-.49H23.9v.97M31.18 112.51h-1.09v.49h.12v.48h.97v-.97"/>
  <path class="b" d="M32.16 113.49h1.46v29.37h-1.46z"/>
  <path class="a" d="M25.12 131.2v-3.64h-.73v.25H1.57v.48h22.82v2.91h.73M32.16 152.57h1.45v.73h1.36v-3.21h-1.36v-4.81h-2.43l.98.01v7.28M2.05 138.97H.35v66.52h1.7v-2.43h2.43v-10.92h15.29v1.31h.98v-6.31h4.37v-7.38h-1.95v6.55H4.48v-16.14h18.69v3.76h1.95v-7.77h-1.95v2.79H4.48v-16.38h18.69v1.94h1.95v-18.45h-.73v14.08H2.05v-11.17"/>
  <path class="b" d="M32.16 154.99h1.46v12.14h-1.46zM32.16 169.56h1.46v21.85h-1.46zM32.16 193.84h1.46v9.23h-1.46z"/>
  <path class="a" d="M325.42 2.05h2.42v-.48h-5.34v.48h2.43v2.43h.49V2.05M358.77 6.13V2.05h-1.55v2.92h-2.92V2.05h-2.23v4.08h6.7M358 41.81v-4.27h-4.47v4.27zm-.76-3.83v3.4h-2.91v-3.4zM328.33 41.81v-4.27h-3.4v4.27zm-.48-3.83v3.4h-2.43v-3.4zM65.9 141.08H52.24v14.69H65.9v-1.28h-3.15v.55h-2.43v-2.43h2.43v-7.33h-2.43v-2.43h2.43v-.55h3.15zm-13.11.59h7.34v3.9h2.11v6.82h-2.16v2.65h-7.29zM84.68 88.6v-.51H74.52v.51h7.47v12.63h.51V88.6h2.18M91.27 88.09v13.14h.61V88.6h19.9v-.51h-1.27v-.48h-.48v.48H91.27M91.24 106.55h-2v.85h2v27.79h5.46v-.61h-4.85V107.4h55.39v2h2.18v25.18h-6.24v.61h6.24v7.66h.73V107.4h46.46v28.51h9.38v6.94h.73v-7.77h-9.48V107.4h68.7v1.45l.78-.23V81.43h25.44v1.7h3.93v-1.7h6.56v31.32h-.73v.72h-1.51v.74h25v-3.4h2.43v3.4h26.46v-.93h-26v-3.69h-3.44v3.69h-21.44V81.43h19.08v-1.7h2.43v2.43h31.56v28.64h.75V78.23h.78v-.44h25.05v16.75h-5.44v10.88h6.07v6.12h.73v-6.85h-5.83v-9.18h5.1v-1.94h.73V77.79h-.73v-.71H358v-3.1h-4.47v4.27h3v3.45h-31.36v-3.62h2.92v-3.89h-2.92v-4.41h-2.93v2.91h2.19v6.8h-2.19v1.46H295.8v1.21h-2.43v-1.21h-26.7v1.21h-1v9.38h-3.26v.54h3.26v14.37h-19v-1.29h-.43v1.29h-37.31V86.69h3.87v-.61h-33V70.02h-.56v12.14h-2.42v1.61h2.42v2.92h29.13v19.73H179.8V91.08h-.56v15.36h-57.66V87.97h-.51v.11h-1.94v.51h.49v1.49h1.45v16.36H91.88v-.83h-.64zm231.23-36.53h2.43v2.43h-2.43zm2.92 4.37h2.43v3.4h-2.43zm31.8 0v3.4h-2.91v-3.4zM205.97 142.86h-2.91v13.45H248.85v13.07l1.77 12.53v9.86H237.6v.61h13.02v1.46h.73v-11.96l-1.66-11.75-.02-15.62h-12.14v.49h-2.42v-.49H208.4v.49h-2.43v-2.43h2.43v-7.29h-2.43v-2.42"/>
  <path class="a" d="M236.87 193.84v27.62h-4.13v.6h4.13v13.05h.66v2.42h.07v-45.76h-.07v2.07h-.66M265.69 79.74h-1.45 2.43v-7.29h-.98v7.29"/>
  <path class="b" d="M265.75 4.48h.85v65.55h-.85z"/>
  <path class="a" d="M365.29 115.55l-.3-2.07h18.69v-.73h-26.46v1.46h7.14l.21 1.44.72-.1"/>
  <path class="b" d="M386.11 112.51h7.28v.97h-7.28zM395.82 112.51h7.28v.97h-7.28zM386.11 94.55h7.28v.97h-7.28zM395.82 94.55h7.28v.97h-7.28zM405.53 94.55h7.28v.97h-7.28z"/>
  <path class="a" d="M394.12 139.22h1.21v-12.14h14.57v12.14h-4.37v.97h7.28v-.97h-1.7v-25.74h1.7v-.97h-7.28v.97h4.37v12.14h-14.57v-12.14h-1.21v25.74"/>
  <path class="b" d="M395.82 139.22h7.28v.97h-7.28z"/>
  <path class="a" d="M36.04 239.23v-1.7h-4.86v1.7h4.86M4.48 204.28v1.21h26.7v-1.21H20.75v-5h-.98v5H4.48M31.24 205.49v29.59h2.43v-25.1h26.7v25.1h.79v-13.51h4.08v-.6h-4.19v-26.95h1.88v-1.64h3v-1.58H52.24v12.38h7.94v6.07H33.62v-3.76zm21.6-2.91v-11.17h7.34v11.17h-7.39zm7.53-11.17h2.43v2.42h-2.48zM373.97 2.05h12.14v2.92h-2.43v33.01h2.43v1.22h26.7v-.73h2.43v112.04h-3.92v3.51h3.92v32.53h-2.43v-2.64h-26.7v3.13h-1.22v33.02h1.22v3.39h-1.22v11.17h1.22v2.91h-12.14v1.7h12.62V187.04h30.35v-45.88h.38v-29.62h-.38V37.98H386.59V.36l-.48-.01h-12.14v1.7"/>
  <path class="a" d="M383.68 41.38V74.4h2.43v-.97h29.13v-.73h-31.08V41.38h-.48"/>
  <path class="c" d="M124.52 147.33l-3.23-2.43M122.24 152.18a.88.88 0 1 1 .88.88.88.88 0 0 1-.88-.88zM123.68 151.56l.84-.83M122.44 151.56l-.83-.83M121.61 153.64l.83-.84M124.52 153.64l-.84-.84M122.9 143.61v.09M122.9 143.61h-.1M122.83 143.68l.47-.47M123.06 143.68l-.06.06M123.06 143.68l.07.06M123.06 143.77v-.65M123.3 143.68l-.47-.47M123.23 143.61h.09M123.23 143.61v.09M123.3 143.44l.06.07M123.39 143.44h-.66M122.83 143.44l-.07-.06M123.23 143.28v-.09M123.23 143.28h.09M123.06 143.21l.07-.07M123.06 143.21l-.06-.07M122.9 143.28h-.1M122.9 143.28v-.09M122.83 143.44l-.07.07M123.3 143.44l.06-.06M121.29 147.33l3.23-2.43"/>
  <path class="d" d="M198.71 194.45v-2.43M165.22 192.75v2.31M161.76 192.75v2.31M136.09 192.75v2.31M132.63 192.75v2.31"/>
  <path class="c" d="M124.52 154.76h-2.91M121.61 154.76v-12.77M124.52 147.33h-3.23M121.29 147.33v-2.43M121.29 144.9h3.23M124.52 141.99v12.77M124.52 141.99h-2.91M121.61 147.81h2.91M121.61 150.73h2.91M124.52 153.64h-2.91M227.59 156.79l7.52 1.46M235.11 158.25h12.28M247.39 167.75h1.46M247.39 158.25v9.5"/>
  <path class="e" d="M179.67 90.82h-.48M179.67 91.06h-.48M183.56 86.94h-4.37M179.67 86.69h-.48M179.68 90.82a3.89 3.89 0 0 0 3.88-3.89M179.19 86.69v.25M179.19 91.06v-.24M179.67 90.82v.24M179.67 86.69v.25M216.92 86.57v-.48M217.16 86.57v-.48M213.04 90.46v-4.37M212.79 86.57v-.48M213.04 90.45a3.88 3.88 0 0 0 3.88-3.88M212.79 86.09h.25M217.16 86.09h-.24M216.92 86.57h.24M212.79 86.57h.25M81.99 101.47a3.89 3.89 0 0 0-3.89 3.88M121.07 83.75h4.59M121.58 87.82a4.07 4.07 0 0 0 4.08-4.08M95.76 105.35a3.88 3.88 0 0 0-3.88-3.88M110.03 83.48a3.89 3.89 0 0 0-3.89 3.88M110.51 87.37h-4.37M82.5 105.35h-4.4M91.27 105.35h4.49M84.7 106.57v.83M89.07 107.4v4.37M84.7 107.4a4.37 4.37 0 0 0 4.37 4.37M26.09 54.54h4.37M26.09 55.27h4.37M26.33 54.54v.73M30.21 54.54v.73M26.09 62.55h4.37M26.09 63.28h4.37M26.33 62.55v.73M30.21 62.55v.73M10.65 61.34v-4.37M11.52 61.34v-4.37M10.65 61.09h.87M10.65 57.21h.87M24.15 67.45h.72M24.15 71.34h.72M16.13 68.52h-.72M16.13 71.44h-.72M24.87 73.81h-.72M24.87 76.73h-.72M26.09 81.44h4.37M26.09 82.17h4.37M26.33 81.44v.73M30.21 81.44v.73M24.15 89.84h.72M24.15 93.72h.72M82.5 101.23h-.51M81.99 101.23v.24M81.99 101.47h.51M82.5 101.47v-.24M121.07 83.75v-.15M121.58 83.6v.15M121.07 87.97h.51M121.58 87.97v-.14M121.58 87.83h-.51M121.07 87.83v.14M91.27 101.23h.61M91.88 101.23v.24M91.88 101.47h-.61M91.27 101.47v-.24M110.51 87.37v.24M110.51 87.61h-.48M110.03 87.61v-.24M110.51 83.24h-.48M110.03 83.24v.24M110.03 83.48h.48M110.51 83.48v-.24M82.5 105.35v.25M82.5 105.6h-.51M81.99 105.6v-.25M91.27 105.35v.25M91.27 105.6h.61M91.88 105.6v-.25M89.31 107.4h-.24M89.07 107.4v-.83M89.07 106.57h.24M84.7 106.57h-.25M84.45 107.4h.25M30.21 55.27v3.88M30.21 63.28v3.88M11.52 57.21h3.89M24.87 67.21v4.37M24.15 67.21v4.37M24.15 71.34h-3.89M15.41 68.28v3.4M16.13 68.28v3.4M16.13 71.44h2.92M24.15 73.57v3.4M24.87 73.57v3.4M24.87 76.73h2.92M30.21 82.17v3.88M30.19 94.79v.48M26.31 94.79v.48M30.43 95.27h-4.37M30.43 94.79h-4.37M30.19 95.27v3.89M24.87 89.59v4.37M24.15 89.59v4.37M24.15 93.72h-3.89M29.85 113v-.49M25.97 113v-.49M30.09 112.51h-4.37M30.09 113h-4.37M29.85 112.51v-3.88M25.12 127.32h-.73M25.12 122.95h-.73M25.12 135.82h-.73M25.12 131.45h-.73M24.39 122.71v4.85M25.12 122.71v4.85M24.39 131.2v4.86M25.12 131.2v4.86M24.39 127.32h-4.37M24.39 135.82h-4.37M23.17 166.16v-11.65M23.17 179.76v-5.83M19.78 199.27v-5.82"/>
  <path class="f" d="M28.21 132.73l-3.09 3.09"/>
  <path class="e" d="M19.05 192.96v6.8M19.78 192.96v6.8M19.05 192.96h.73M19.05 193.93h.73M19.05 198.79h.73M19.05 199.76h.73M19.29 193.93v2.43M19.78 196.85v2.42M19.53 196.36v2.43M22.45 173.57v6.79M23.17 173.57v6.79M22.45 173.57h.72M22.45 174.54h.72M22.45 179.39h.72M22.45 180.36h.72M22.69 174.54v2.42M22.93 176.96v2.43M26.33 55.26a3.89 3.89 0 0 0 3.91 3.89M26.33 63.28a3.89 3.89 0 0 0 3.91 3.88M11.52 61.08a3.89 3.89 0 0 0 3.89-3.88M24.17 67.45a3.91 3.91 0 0 0-3.93 3.91M19.05 71.43a2.91 2.91 0 0 0-2.91-2.91M27.79 76.72a2.92 2.92 0 0 0-2.91-2.91M26.33 82.16a3.89 3.89 0 0 0 3.91 3.92M26.31 95.27a3.89 3.89 0 0 0 3.93 3.89M24.17 89.83a3.91 3.91 0 0 0-3.93 3.91M29.85 108.62a3.89 3.89 0 0 0-3.88 3.89M24.39 122.95a4.37 4.37 0 0 0-4.37 4.37M24.39 131.44a4.37 4.37 0 0 0-4.37 4.37"/>
  <path class="f" d="M28.24 132.72a4.37 4.37 0 0 0-3.09-1.28"/>
  <path class="e" d="M23.66 160.33a5.57 5.57 0 0 0 3.58-1.25M29.24 165.92a5.59 5.59 0 0 0-5.59-5.59M23.17 165.92h.49M23.17 154.75h.49M23.66 154.75l3.56 4.3M23.17 166.16v-11.65M23.66 166.16v-11.65M23.66 165.92h5.58"/>
  <path class="g" d="M62.25 70.03V64.5M179.45 49.87h5.82M294.57 61.1v8.93M322.26 61.1h-27.69M287.05 4.91v76.04"/>
  <path class="h" d="M215.75 221.88v-.24M215.99 221.88v-.24M211.86 225.77v-4.13M211.86 225.76a3.89 3.89 0 0 0 3.89-3.88M211.86 221.64h.49M211.62 221.64h.24M211.86 221.88h.49M211.62 221.88h.24M212.35 221.88h20.39M212.35 221.64h20.39M91.27 82.17v1.55M84.68 82.17v1.55M84.44 83.96a3.89 3.89 0 0 0-3.88 3.89M84.68 87.85h-4.13M84.68 88.09h-.24M84.68 83.72h-.24M95.4 87.85a3.89 3.89 0 0 0-3.89-3.89M91.27 87.85h4.13M91.27 88.09h.24M87.29 81.92v.25M173.8 70.54h-9.78M173.56 70.27v-.24M164.02 70.03h9.78M164.26 70.03v.24M173.8 70.27h-9.78M163.02 70.54h-9.78M162.78 70.28v-.25M153.24 70.03h9.78M153.48 70.03v.24M163.02 70.27h-9.78M133.96 70.03h-9.71M133.96 70.54h-9.71M133.72 70.27v-.24M124.49 70.03v.24M133.96 70.27h-9.71M144.57 70.03h-9.71M144.57 70.54h-9.71M144.33 70.27v-.24M135.1 70.03v.24M144.57 70.27h-9.71M108.79 65.01h-9.74M108.54 64.74v-.24M99.05 64.5h9.74M99.3 64.5v.24M108.79 64.74h-9.74M98.06 65.01h-9.74M97.81 64.74v-.24M88.32 64.5h9.74M88.56 64.5v.24M98.06 64.74h-9.74M87.35 65.01h-9.73M87.11 64.74v-.24M77.62 64.5h9.73M77.86 64.5v.24M87.35 64.74h-9.73M76.69 64.5h-9.73M76.69 65.01h-9.73M76.45 64.74v-.24M67.2 64.5v.24M76.69 64.74h-9.73M248.16 91.54v4.4M248.16 95.93a3.88 3.88 0 0 0 3.88-3.85M262.43 92.05h-6.79M262.19 91.78v-.24M255.64 91.54h6.79M255.88 91.54v.24M262.43 91.78h-6.79M246.7 98.34v6.8M246.43 98.58h-.24M246.19 105.14v-6.8M246.19 104.89h.24M246.43 98.34v6.8M100.86 134.95h14.32M100.86 135.19h14.32M96.97 131.06v4.13M96.73 134.58v.49M100.86 134.94a3.88 3.88 0 0 0-3.88-3.88M96.97 135.19h3.89M96.73 135.19h.24M96.97 134.95h3.89M96.73 134.95h.24M139.04 134.95h-14.33M139.04 135.19h-14.33M124.96 134.95v.24M142.92 131.06v4.13M143.16 134.58v.49M142.92 131.08a3.88 3.88 0 0 0-3.88 3.88M142.92 135.19h-3.88M143.16 135.19h-.24M142.92 134.95h-3.88M143.16 134.95h-.24M81.26 221.52v-.25M81.02 221.52v-.25M85.14 225.4v-4.13M81.24 221.51a3.89 3.89 0 0 0 3.88 3.89M85.38 221.27h-.24M85.38 221.52h-.24M85.14 221.52h-19.9M85.14 221.27h-19.9M197.32 203.07v-.25M197.08 203.07v-.25M201.21 206.95v-4.13M201.45 203.07v-.25M197.33 203.08a3.88 3.88 0 0 0 3.88 3.89M201.21 202.82h-3.89M201.45 202.82h-.24M185.05 202.82h12.27M197.32 203.07h-12.27M201.21 203.07h-3.89M201.45 203.07h-.24M89.87 193.84v2.55M89.87 200.28v2.54M89.63 200.28h.24M89.63 200.52h.24M85.75 196.39h4.12M89.63 196.15h.24M85.75 196.39a3.88 3.88 0 0 0 3.88 3.88M89.87 196.39v3.89M89.63 200.28v2.54M89.63 196.39v3.89M89.63 193.84v2.55M206.76 196.39v-2.55M207.25 196.39v-2.55M219.57 192.26h15.6M207.25 200.28h-.49M211.13 196.39h-4.37M207.25 196.15h-.49M207.24 200.27a3.89 3.89 0 0 0 3.89-3.88M206.76 196.39v3.89M206.76 202.82v-2.54M207.25 200.28v2.54M207.25 196.39v3.89M158.92 203.07v-.25M159.16 203.07v-.25M155.03 206.95v-4.13M154.79 203.07v-.25M155.04 206.95a3.89 3.89 0 0 0 3.88-3.89M155.03 202.82h3.89M154.79 202.82h.24M171.19 202.82h-12.27M158.92 203.07h12.27M155.03 203.07h3.89M154.79 203.07h.24M112.68 203.07v-.25M112.93 203.07v-.25M96.77 206.95v-4.13M96.53 203.07v-.25M96.77 206.95a3.89 3.89 0 0 0 3.89-3.89M96.77 202.82h3.88M96.53 202.82h.24M112.93 202.82h-12.28M100.65 203.07h12.28M96.77 203.07h3.88M96.53 203.07h.24M139.06 203.07v-.25M138.82 203.07v-.25M142.94 206.95v-4.13M143.19 203.07v-.25M139.06 203.08a3.89 3.89 0 0 0 3.89 3.89M142.94 202.82h-3.88M143.19 202.82h-.25M126.79 202.82h12.27M139.06 203.07h-12.27M142.94 203.07h-3.88M143.19 203.07h-.25M81.19 191.65H65.9M219.57 191.78h15.54M185.29 202.82v.25M170.95 203.07v-.25M171.19 203.07v-.25M185.05 202.82v.25M127.03 203.07v-.25M126.79 203.07v-.25M65.48 221.52v-.25M65.24 221.52v-.25M81.19 191.89H65.9M84.44 81.92v1.8M91.51 82.17v1.55M119.13 88.09h-7.35M119.13 88.6h-7.35M118.89 88.34v-.25M112.03 88.09v.25M119.13 88.34h-7.35M64.91 88.09h9.61M64.91 88.6h9.61M65.15 88.09v.25M74.52 88.34h-9.61M74.28 88.09v.25M101.1 134.95v.24M138.79 134.95v.24M100.86 134.95v.24M114.94 134.95v.24M139.04 134.95v.24M87.53 81.92h-3.09M87.53 82.17h-2.85M84.68 87.85v.24M84.68 88.09h-.24M84.44 88.09v-.24M84.68 83.72h-.24M84.44 83.72v.25M84.44 83.97h.24M84.68 83.97v-.25M91.27 87.85v.24M91.27 88.09h.24M91.51 88.09v-.24M91.27 83.72h.24M91.51 83.72v.25M91.51 83.97h-.24M91.27 83.97v-.25M248.01 92.05h7.63M255.64 92.05v-.51M255.64 91.54h-7.63M248.01 91.54v.51M252.19 91.54v.51M252.04 91.54v.51M211.62 221.88v-.24M85.38 221.52v-.25M207.25 200.52h-.49M206.76 202.82h.49M232.74 221.88v-.24M232.5 221.88v-.24M91.51 82.41h-.24M81.19 191.89v-.24M66.14 191.89v-.24M65.9 191.89v-.24"/>
  <path class="g" d="M62.13 79.74v-7.28M207.74 145.29v7.28M121.07 83.6v-1.43M121.07 82.17h-2.24M235.36 83.53v-1.36M235.36 83.53h1.94M237.3 82.17v1.36M235.36 83.53v-1.36M235.36 83.53h1.94M235.36 83.51l.29-1.07M235.65 82.44l1.65-.27M177.1 83.51v-1.34M177.1 83.51h1.94M179.04 82.17v1.34M177.1 83.51v-1.34M177.1 83.51h1.94M118.83 83.43v-1.26M118.83 83.43h1.95M120.78 82.17v1.26M118.83 83.43v-1.26M118.83 83.43h1.95M205.98 145.29v7.28M111.26 70.54h.51M60.56 142.86v-1.54M60.56 141.32h1.94M62.5 141.32v1.54M147.71 154.99l-23 .01M115.18 154.99H65.9M89.45 154.76H65.9M91.88 154.76h23.54M147.71 154.77l-23-.01M127.88 191.65h-6.87M118.58 191.65h-6.87M147.71 191.65h-6.87M157.01 191.65h-6.87M176.84 191.65h-6.87M186.14 191.65h-6.87M60.56 142.86h1.94M89.93 67.85h1.7M91.63 67.85v2.18M91.63 70.03h-1.7M89.93 70.03v-2.18M140.84 195.05v-3.88M140.84 191.17h-12.96M127.88 191.17v3.88M127.88 195.05h.39M128.27 195.05v-3.28M128.27 191.77h12.18M140.45 191.77v3.28M140.45 195.05h.39M169.97 195.05v-3.88M169.97 191.17h-12.96M157.01 191.17v3.88M157.01 195.05h.39M157.4 195.05v-3.28M157.4 191.77h12.18M169.58 191.77v3.28M169.58 195.05h.39M111.71 195.05v-3.88M111.71 191.17H98.75M98.75 191.17v3.88M98.75 195.05h.38M99.13 195.05v-3.28M99.13 191.77h12.19M111.32 191.77v3.28M111.32 195.05h.39M199.11 195.05v-3.88M199.11 191.17h-12.97M186.14 191.17v3.88M186.14 195.05h.39M186.53 195.05v-3.28M186.53 191.77h12.19M198.72 191.77v3.28M198.72 195.05h.39M131.15 27.68v22.19M131.15 49.87h29.56M198.01 49.87v-22.2M94.81 50.53V64.5M94.81 50.53h16.96M95.05 50.77V64.5M95.05 50.77h16.48M131.15 27.68l66.86-.01M130.86 27.39V44.7M130.86 50.16H161M198.3 50.16V27.38M130.86 27.39l67.44-.01M130.86 49.87v.29M117.85 44.7v.2M117.12 44.9v4.97M117.85 49.87v.19M160.71 46.59v3.28M161 46.88v3.28M168.46 46.59v3.28M168.17 46.88v3.28M168.46 49.87h10.99M168.17 50.16h11.28M161 46.88h7.17M160.71 46.59h7.75M185.27 50.16h13.03M185.27 49.87h12.74M118.83 82.17h1.95M120.78 82.17v1.26M177.1 82.17h1.94M179.04 82.17v1.34M237.3 83.53v-1.36M237.3 82.17h-1.94M120.77 141.32h-1.95M118.82 141.32v1.54M118.82 142.86h1.95M120.77 142.86v-1.54M91.63 67.85h-1.7M89.93 67.85v2.18M89.93 70.03h1.7M91.63 70.03v-2.18M118.58 64.5V50.06M118.58 44.9H33.61M111.77 64.5V50.53M118.58 43.97H33.61M118.58 44.9h12.57M118.58 44.9H33.61M117.85 44.7H74.64M62.25 44.9v8.79M62.25 53.69h12.63M74.88 53.69V44.9M111.53 64.5V50.77M74.64 53.44H62.49M62.49 44.7H33.61M74.64 44.7v8.74M62.49 53.44V44.7M117.12 49.87h14.03M118.87 64.33V50.06M117.85 50.06h13.01M117.85 44.7h13.3M118.58 49.87V44.9M118.58 44.9v-.93M384.89 37.98V4.97M415.24 138.24v-23.79M98.75 191.65h-6.87M199.11 191.65h6.87M160.71 49.87h7.75M54.36 118.86v-10.32M61.76 108.54h-7.4M322.26 80.95V49.11M322.26 4.91H266.6M322.26 42.5V4.91M348.23 81.68V61.1M348.23 61.1h-25.97M322.02 42.26V5.15M322.02 49.35v31.6M322.02 5.15H266.6M287.05 2.05v2.86M287.05 2.05h-20.38M376.49 66.39l.49-.49M376.98 66.39l-.49-.49M376.49 58.23l.49-.49M376.98 58.23l-.49-.49M376.49 50.07l.49-.48M376.98 50.07l-.49-.48M376.49 41.92l.49-.49M376.98 41.92l-.49-.49M372.61 38.03l.48-.48M372.61 37.55l.48.48M266.67 2.78h1.21M267.88 2.78V1.57M81.19 114.44h.25M82.5 105.6h8.77M81.19 125.85h.25M81.19 131.19h.25M81.19 125.95h.25M81.19 131.09h.25M33.61 95.52h2.43M36.04 95.52v16.99M36.04 112.51h-2.43M33.61 95.52v16.99M25.12 151.35H2.05M24.39 151.35v-1.21M2.05 205.49H32.4M32.4 205.49v29.62M412.81 139.22h-1.7M411.11 139.22v-25.74M411.11 113.48h1.7M31.19.35v38.12M31.19 38.47H.35M416.94 111.54v29.62M386.11 186.55h30.83M386.11 186.55v52.68M416.94 38.47h-30.83M386.11 38.47V.35M179.45 48.41v15.92M185.27 64.5V48.41M185.27 48.41h-5.82M265.75 64.33h-80.31M179.45 64.33v5.7M118.58 70.03v-5.48M118.58 64.5h-6.81M118.58 63.04h-6.81M265.75 64.5h-80.48M179.28 50.16v14.17M185.44 50.16v14.17M308.91 49.35v-7.09M308.91 49.11h13.35M376.98 66.39v-.49M376.49 66.39h.49M376.49 66.39v-.49M373.09 37.55h-.48M373.09 38.03h-.48M376.49 65.9h.49M376.49 58.23h.49M376.49 57.74h.49M376.49 50.07h.49M376.49 49.59h.49M376.49 41.92h.49M376.49 41.43h.49M372.61 38.03v-.48M373.09 38.03v-.48M376.49 41.92v-.49M376.98 41.92v-.49M376.49 50.07v-.48M376.98 50.07v-.48M376.98 58.23v-.49M376.49 58.23v-.49M3.75 169.56v18.94M2.05 169.56v18.94M4.48 190.92h15.3M19.78 187.14l-15.3-.01M2.05 190.92h1.7M2.05 188.5h1.7M4.48 187.13v3.79M3.75 190.92v12.14M2.05 190.92v12.14M19.78 190.92v-3.78M3.75 152.57h-1.7M2.05 167.13h1.7M2.05 169.56h1.7M3.75 152.57v14.56M2.05 150.14v16.99M150.14 152.57v-7.29M147.71 145.28v7.29M322.26 42.5h-13.35M322.02 42.26h-13.11M322.02 49.35h-13.11M65.9 141.01h15.29M65.9 141.25h15.54M81.44 141.25v-10.06M81.44 131.09v-5.14M81.19 131.09v-5.14M81.44 125.85v-11.41M81.19 141.01v-26.57"/>
  <path class="i" d="M45.75 173.08a1.22 1.22 0 1 1 2.43 0 1.22 1.22 0 0 1-2.43 0z"/>
  <path class="j" d="M2.05 44.29V67.6M.35 44.29V67.6M1.08 44.29V67.6M1.33 44.29V67.6M2.05 74.64v17.24M.35 74.64v17.24M1.08 74.64v17.24M1.33 74.64v17.24"/>
  <path class="i" d="M56.59 173.08a1.22 1.22 0 1 1 2.43 0 1.22 1.22 0 0 1-2.43 0zM71.16 173.08a1.22 1.22 0 1 1 1.21 1.21 1.22 1.22 0 0 1-1.21-1.21zM85.72 173.08a1.22 1.22 0 1 1 2.43 0 1.22 1.22 0 0 1-2.43 0zM100.29 173.08a1.22 1.22 0 1 1 1.21 1.21 1.22 1.22 0 0 1-1.21-1.21zM114.86 173.08a1.21 1.21 0 1 1 1.21 1.21 1.22 1.22 0 0 1-1.21-1.21zM129.42 173.08a1.22 1.22 0 1 1 1.21 1.21 1.22 1.22 0 0 1-1.21-1.21zM143.99 173.08a1.21 1.21 0 1 1 1.21 1.21 1.22 1.22 0 0 1-1.21-1.21zM158.55 173.08a1.22 1.22 0 1 1 2.43 0 1.22 1.22 0 0 1-2.43 0zM173.12 173.08a1.22 1.22 0 1 1 1.21 1.21 1.22 1.22 0 0 1-1.21-1.21zM187.68 173.08a1.22 1.22 0 1 1 2.43 0 1.22 1.22 0 0 1-2.43 0zM202.24 173.08a1.22 1.22 0 1 1 1.21 1.21 1.22 1.22 0 0 1-1.21-1.21zM216.82 173.08a1.21 1.21 0 1 1 1.21 1.21 1.22 1.22 0 0 1-1.21-1.21zM231.38 173.08a1.22 1.22 0 1 1 2.43 0 1.22 1.22 0 0 1-2.43 0zM267.8 170.16a1.21 1.21 0 1 1 1.21 1.22 1.21 1.21 0 0 1-1.21-1.22zM296.93 168.08a1.22 1.22 0 1 1 1.21 1.21 1.22 1.22 0 0 1-1.21-1.21zM307.85 187.5a1.22 1.22 0 1 1 2.43 0 1.22 1.22 0 0 1-2.43 0zM307.85 197.74a1.22 1.22 0 1 1 1.22 1.22 1.22 1.22 0 0 1-1.22-1.22zM256.87 187.5a1.22 1.22 0 1 1 2.43 0 1.22 1.22 0 0 1-2.43 0zM256.87 197.74a1.22 1.22 0 1 1 1.22 1.22 1.22 1.22 0 0 1-1.22-1.22zM245.95 205.08a1.22 1.22 0 0 1 2.43 0 1.22 1.22 0 1 1-2.43 0zM169.48 94.71a1.21 1.21 0 1 1 1.21 1.22 1.21 1.21 0 0 1-1.21-1.22zM154.91 94.71a1.22 1.22 0 1 1 1.22 1.22 1.21 1.21 0 0 1-1.22-1.22zM140.35 94.71a1.21 1.21 0 1 1 1.21 1.22 1.21 1.21 0 0 1-1.21-1.22zM125.78 94.71a1.22 1.22 0 0 1 2.43 0 1.22 1.22 0 1 1-2.43 0z"/>
  <path class="j" d="M.35 98.19v11.65M2.05 98.19v11.65M1.33 98.19v11.65M1.08 98.19v11.65M2.05 115.67v23.3M.35 115.67v23.3M1.08 115.67v23.3M1.33 115.67v23.3M.72 55.7h.73M1.08 74.88h.25M89.39 217v-6.12M89.99 217v-6.12M1.08 91.63h.25M1.08 85.89h.25M1.08 86.13h.25M1.08 86.37h.25M1.08 80.14h.25M1.08 80.39h.25M1.08 80.63h.25M1.08 98.43h.25M1.08 109.6h.25M1.08 115.91h.25M1.08 138.73h.25M1.08 104.01h.25M1.08 103.77h.25M1.08 115.67h.25M1.08 115.42h.25M1.08 121.74h.25M1.08 121.49h.25M1.08 121.25h.25M1.08 127.56h.25M1.08 127.32h.25M1.08 127.08h.25M1.08 133.39h.25M1.08 133.15h.25M1.08 132.9h.25M94.3 238.26v.25M87.02 238.26v.25M123.44 238.26v.25M116.15 238.26v.25M101.59 238.26v.25M108.87 238.26v.25M269.09 238.26v.25M261.81 238.26v.25M298.23 238.26v.25M290.94 238.26v.25M330.27 238.26v.25M320.07 238.26v.25M359.4 238.26v.25M352.12 238.26v.25M337.55 238.26v.25M344.84 238.26v.25M65.17 238.26v.25M57.89 238.26v.25M72.46 238.26v.25M79.74 238.26v.25M43.32 238.26v.25M50.61 238.26v.25M312.79 238.26v.25M305.51 238.26v.25M283.66 238.26v.25M276.38 238.26v.25M152.57 238.26v.25M145.28 238.26v.25M130.72 238.26v.25M138 238.26v.25M181.7 238.26v.25M174.42 238.26v.25M159.85 238.26v.25M167.13 238.26v.25M210.83 238.26v.25M203.55 238.26v.25M188.98 238.26v.25M196.26 238.26v.25M239.96 238.26v.25M232.68 238.26v.25M218.11 238.26v.25M225.4 238.26v.25M247.25 238.26v.25M254.53 238.26v.25M94.3 1.33v-.25M87.02 1.33v-.25M123.44 1.33v-.25M116.15 1.33v-.25M101.59 1.33v-.25M108.87 1.33v-.25M269.09 1.33v-.25M261.81 1.33v-.25M298.23 1.33v-.25M290.94 1.33v-.25M330.27 1.33v-.25M320.07 1.33v-.25M359.4 1.33v-.25M352.12 1.33v-.25M337.55 1.33v-.25M344.84 1.33v-.25M65.17 1.33v-.25M57.89 1.33v-.25M72.46 1.33v-.25M79.74 1.33v-.25M50.61 1.33v-.25M312.79 1.33v-.25M305.51 1.33v-.25M283.66 1.33v-.25M276.38 1.33v-.25M152.57 1.33v-.25M145.28 1.33v-.25M130.72 1.33v-.25M138 1.33v-.25M181.7 1.33v-.25M174.42 1.33v-.25M159.85 1.33v-.25M167.13 1.33v-.25M210.83 1.33v-.25M203.55 1.33v-.25M188.98 1.33v-.25M196.26 1.33v-.25M239.96 1.33v-.25M232.68 1.33v-.25M218.11 1.33v-.25M225.4 1.33v-.25M247.25 1.33v-.25M254.53 1.33v-.25M352.85 237.53h5.82M36.04 238.51h337.93M36.04 238.26h337.93M36.04 237.53h337.93M36.04 239.23h337.93M87.02 238.38h7.28M116.15 238.38h7.29M261.81 238.38h7.28M290.94 238.38h7.29M320.07 238.38h10.2M352.12 238.38h7.28M57.89 238.38h7.28M145.28 238.38h7.29M174.42 238.38h7.28M203.55 238.38h7.28M232.68 238.38h7.28M43.32 1.08h330.65M43.32 1.33h330.65M43.32 2.05h330.65M43.32.35h330.65M87.02 1.2h7.28M116.15 1.2h7.29M261.81 1.2h7.28M290.94 1.2h7.29M320.07 1.2h10.2M352.12 1.2h7.28M57.89 1.2h7.28M145.28 1.2h7.29M174.42 1.2h7.28M203.55 1.2h7.28M232.68 1.2h7.28"/>
  <path class="k" d="M121.01 191.89h6.87M111.71 191.89h6.87M140.84 191.89h6.87M150.14 191.89h6.87M169.97 191.89h6.87M179.27 191.89h6.87M25.03 96.49H10.44M22.58 111.54v-7.4M14.48 104.14v7.4M15.83 104.14v7.4M13.09 103.89v-7.4M14.42 103.89v-7.4M15.74 103.89v-7.4M17.07 103.89v-7.4M18.4 103.89v-7.4M17.18 104.14v7.4M18.53 104.14v7.4M19.88 104.14v7.4M23.92 104.14v7.4M19.72 103.89v-7.4M25.49 103.89H10.44M25.73 103.65H10.17M21.23 104.14v7.4M21.05 103.89v-7.4M22.37 103.89v-7.4M23.7 103.89v-7.4M10.17 104.38h13.75M10.44 104.14h13.48"/>
  <path class="l" d="M10.17 104.38v-.73"/>
  <path class="k" d="M13.14 104.14v7.4M11.79 104.14v7.4M11.76 103.89v-7.4M10.44 103.89v-7.4M10.44 103.89v-8.62M25.73 112.51v-8.86M25.49 112.51v-8.62M25.03 103.89v-8.62M10.44 103.89v8.62M265.75 64.33v.22M99.35 190.92v-6.07M91.88 191.41v-6.56M91.63 191.41v-6.8M118.58 190.92v-6.31M91.88 184.85h26.7M91.63 184.61h26.95M98.75 190.68h19.83M98.75 190.92h19.83M117.3 190.68v-5.83M116.02 190.68v-5.83M114.73 190.68v-5.83M113.45 190.68v-5.83M112.17 190.68v-5.83M109.61 190.68v-5.83M108.33 190.68v-5.83M107.04 190.68v-5.83M105.76 190.68v-5.83M104.48 190.68v-5.83M103.2 190.68v-5.83M101.92 190.68v-5.83M100.64 190.68v-5.83M110.89 190.68v-5.83M198.5 190.92v-6.07M205.98 191.41v-6.56M206.22 191.41v-6.8M179.27 190.92v-6.31M205.98 184.85h-26.71M206.22 184.61h-26.95M199.11 190.68h-19.84M199.11 190.92h-19.84M180.55 190.68v-5.83M181.83 190.68v-5.83M183.12 190.68v-5.83M184.4 190.68v-5.83M185.68 190.68v-5.83M188.24 190.68v-5.83M189.53 190.68v-5.83M190.81 190.68v-5.83M192.09 190.68v-5.83M193.37 190.68v-5.83M194.65 190.68v-5.83M195.93 190.68v-5.83M197.22 190.68v-5.83M186.96 190.68v-5.83M123.44 69.84v.19"/>
  <path class="l" d="M118.58 64.3v5.54"/>
  <path class="k" d="M174.42 69.84v.19"/>
  <path class="l" d="M179.27 64.3v5.54"/>
  <path class="k" d="M322.26 48.72v-5.83M81.19 107.64v-.24M23.92 111.54H10.44"/>
  <path class="l" d="M119.45 64.79v4.76"/>
  <path class="k" d="M128.49 69.55h10M128.31 69.84h10.18"/>
  <path class="l" d="M126.25 64.79v4.76M127.61 64.79v4.76M128.97 64.79v3.47M130.33 64.79v1.29"/>
  <path class="k" d="M128.97 68.78v.77M130.33 66.59v2.96"/>
  <path class="l" d="M120.81 64.79v4.76M122.17 64.79v4.76M123.53 64.79v4.76M124.89 64.79v4.76"/>
  <path class="k" d="M134.41 64.74v4.81M135.77 64.74v4.81M137.13 64.74v4.81M138.49 64.3v5.73M131.69 64.74v4.81M133.05 64.74v4.81M131.48 64.74h7.01M131.63 64.5h6.86"/>
  <path class="l" d="M118.58 64.5h12.73M118.58 69.84h9.41M118.58 64.79h12.55M118.58 69.55h9.59M123.44 70.03h4.43"/>
  <path class="k" d="M128.19 70.03h10.3"/>
  <path class="l" d="M118.58 64.3h12.85"/>
  <path class="k" d="M131.75 64.3h6.74"/>
  <path class="l" d="M178.4 64.79v4.76"/>
  <path class="k" d="M169.36 69.55h-10M169.54 69.84h-10.18"/>
  <path class="l" d="M171.6 64.79v4.76M170.24 64.79v4.76M168.88 64.79v3.47M167.52 64.79v1.29"/>
  <path class="k" d="M168.88 68.78v.77M167.52 66.59v2.96"/>
  <path class="l" d="M177.04 64.79v4.76M175.68 64.79v4.76M174.32 64.79v4.76M172.96 64.79v4.76"/>
  <path class="k" d="M163.44 64.74v4.81M162.08 64.74v4.81M160.72 64.74v4.81M159.36 64.3v5.73M166.16 64.74v4.81M164.8 64.74v4.81M166.37 64.74h-7.01M166.22 64.5h-6.86"/>
  <path class="l" d="M179.27 64.5h-12.73M179.27 69.84h-9.41M179.27 64.79h-12.55M179.27 69.55h-9.59M174.42 70.03h-4.44"/>
  <path class="k" d="M169.66 70.03h-10.3"/>
  <path class="l" d="M179.27 64.3h-12.85"/>
  <path class="k" d="M166.1 64.3h-6.74M329.54 48.91V42.7M328.33 48.72v-5.83M327.11 48.72v-5.83M325.9 48.72v-5.83M321.05 48.72v-5.83M319.83 48.72v-5.83M318.62 48.72v-5.83M317.4 48.72v-5.83M316.19 48.72v-5.83M314.98 48.72v-5.83M313.76 48.72v-5.83M312.55 48.72v-5.83M311.33 48.72v-5.83M310.12 48.72v-5.83M308.91 42.89h20.63M323.47 48.72v-5.83M324.69 48.72v-5.83M308.91 48.72h20.63M308.91 48.91h20.63M308.91 42.7h20.63M62.98 129.49v-21.85M81.19 107.64H62.98M81.19 107.4H62.73M70.02 129.49v-14.81M69.78 124.63h-6.8M69.78 123.18h-6.8M71.02 107.64v6.8M73.94 107.64v6.8M75.4 107.64v6.8M69.78 120.27h-6.8M69.78 117.35h-6.8M69.78 115.9h-6.8M78.31 107.64v6.8M79.75 107.64v6.8M69.78 127.55h-6.8M72.48 107.64v6.8M69.78 126.09h-6.8M69.78 121.72h-6.8M62.73 129.49V107.4M70.02 114.68h11.42M69.78 114.44h11.66M69.78 114.44h-6.8M62.98 129h6.8M76.86 114.44v-6.8M69.78 129.49v-15.05M69.78 118.81h-6.8M62.73 129.49h.25M69.78 129.49h.24M122.34 149.3a.28.28 0 1 1 .28.28.28.28 0 0 1-.28-.28z"/>
  <path class="k" d="M122.41 149.3a.2.2 0 0 1 .21-.2.2.2 0 0 1 0 .4.2.2 0 0 1-.21-.2zM121.98 148.74v1.13M121.98 149.87a.39.39 0 0 0 .39.39M122.37 150.26h1.55M123.92 150.26a.4.4 0 0 0 .39-.39M124.3 149.87v-1.13M124.31 148.73a.4.4 0 0 0-.39-.39M123.92 148.35h-1.55M122.37 148.34a.39.39 0 0 0-.39.39M122.1 148.74v1.13M122.1 149.87a.27.27 0 0 0 .27.27M122.37 150.14h1.55M123.92 150.14a.27.27 0 0 0 .27-.27M124.18 149.87v-1.13M124.24 148.73a.27.27 0 0 0-.27-.27M123.92 148.47h-1.55M122.37 148.46a.27.27 0 0 0-.27.27"/>
  <path class="m" d="M131.8 49.14v-4.37h-.97v5.1h67.63v-5.1h-.97v4.37H131.8M111.71 195.05v-3.88H98.75v3.89h.39v-3.28h12.18v3.27h.39"/>
  <path class="g" d="M264.24 4.48V2.05M415.24 183.64h-2.43M412.81 186.55h2.43M412.81 183.64v2.91M415.24 186.55v-2.91M383.68 141.16h2.43M386.11 141.16v-2.04M386.11 139.12h-2.43M383.68 139.12v2.04M383.68 114.45h2.43M386.11 114.45v-2.91M386.11 111.54h-2.43M383.68 111.54v2.91M412.81 114.45h2.43M415.24 111.54h-2.43M412.81 141.16h2.43M415.24 138.24h-2.43M412.81 164.1h2.43M415.24 160.7h-2.43M395.82 141.16v-1.94M395.82 139.22h-2.43M393.39 139.22v1.94M412.81 138.24v2.92M405.53 141.16v-1.94M403.1 139.22v1.94M412.81 160.7v3.4M393.39 113.48h2.43M395.82 113.48v-1.94M395.82 111.54h-2.43M393.39 111.54v1.94M412.81 111.54v2.91M403.1 113.48h2.43M405.53 113.48v-1.94M405.53 111.54h-2.43M403.1 111.54v1.94M415.24 141.16v-2.92M415.24 164.1v-3.4M415.24 114.45v-2.91M405.53 141.16h-2.43M395.82 141.16h-2.43M405.53 139.22h-2.43M4.48 96.49H2.05M2.05 96.49v-1.94M2.05 94.55h2.43M4.48 94.55v1.94M4.48 113.49H2.05M2.05 113.49v-1.95M2.05 111.54h2.43M4.48 111.54v1.95M14.19 96.49h-2.43M11.76 96.49v-1.94M11.76 94.55h2.43M14.19 94.55v1.94M14.19 113.49h-2.43M11.76 113.49v-1.95M11.76 111.54h2.43M14.19 111.54v1.95M23.9 96.49h-2.43M21.47 96.49v-1.94M21.47 94.55h2.43M23.9 94.55v1.94M23.9 113.49h-2.43M21.47 113.49v-1.95M21.47 111.54h2.43M23.9 111.54v1.95M33.61 96.49h-2.42M31.19 96.49v-1.94M31.19 94.55h2.42M33.61 94.55v1.94M33.61 113.49h-2.42M31.19 113.49v-1.95M31.19 111.54h2.42M33.61 111.54v1.95M412.81 38.47h2.43M415.24 38.47v2.91M415.24 41.38h-2.43M412.81 41.38v-2.91M2.05 190.92h2.43M4.48 190.92v-2.42M4.48 188.5H2.05M2.05 188.5v2.42M2.05 169.56h2.43M4.48 169.56v-2.43M4.48 167.13H2.05M2.05 167.13v2.43M327.84 77.8v-3.4M327.84 74.4h-2.42M325.42 74.4v3.4M325.42 77.8h2.42M322.5 2.05v2.43M322.5 4.48h2.43M324.93 4.48V2.05M324.93 2.05h-2.43M325.42 4.97h2.42M327.84 4.97V2.05M327.84 2.05h-2.42M325.42 2.05v2.92M354.3 4.97h2.92M357.22 4.97V2.05M357.22 2.05h-2.92M354.3 2.05v2.92M383.68 4.97h2.43M386.11 4.97V2.05M386.11 2.05h-2.43M383.68 2.05v2.92M354.3 37.98h2.92M357.22 37.98v3.4M357.22 41.38h-2.92M354.3 41.38v-3.4M383.68 37.98h2.43M386.11 37.98v3.4M386.11 41.38h-2.43M383.68 41.38v-3.4M412.81 38.47h2.43M415.24 38.47v2.91M415.24 41.38h-2.43M412.81 41.38v-2.91M412.81 93.58h2.43M415.24 93.58v2.91M415.24 96.49h-2.43M412.81 96.49v-2.91M354.3 74.4h2.92M357.22 74.4v3.4M357.22 77.8h-2.92M354.3 77.8v-3.4M383.68 74.4h2.43M386.11 74.4v3.4M386.11 77.8h-2.43M383.68 77.8v-3.4M412.81 66.26h2.43M415.24 66.26v3.4M415.24 69.66h-2.43M412.81 69.66v-3.4M383.68 93.58h2.43M386.11 93.58v2.91M386.11 96.49h-2.43M383.68 96.49v-2.91M393.39 94.55h2.43M395.82 94.55v1.94M395.82 96.49h-2.43M393.39 96.49v-1.94M403.1 94.55h2.43M405.53 94.55v1.94M405.53 96.49h-2.43M403.1 96.49v-1.94M121.01 235.11h-2.43M354.3 150.63h2.92M357.22 150.63v-3.4M357.22 147.23h-2.92M354.3 147.23v3.4M383.44 150.63h2.91M386.35 150.63v-3.4M386.35 147.23h-2.91M383.44 147.23v3.4M176.84 82.17h2.43M179.27 82.17v-2.43M179.27 79.74h-2.43M176.84 79.74v2.43M62.74 152.57h-2.42M31.19 82.17h2.42M33.61 79.74h-2.42M31.19 79.74v2.43M89.45 235.11h2.43M91.88 235.11v2.42M31.19 4.48V2.05M31.19 2.05h2.42M33.61 2.05v2.43M60.32 82.17h2.42M62.74 82.17v-2.43M62.74 79.74h-2.42M60.32 79.74v2.43M60.32 72.46h2.42M62.74 72.46v-2.43M62.74 70.03h-2.42M60.32 70.03v2.43M325.42 234.62h2.42M327.84 234.62v2.91M327.84 237.53h-2.42M325.42 237.53v-2.91M386.11 237.53h-2.43M383.68 237.53v-2.91M383.68 234.62h2.43M386.11 234.62v2.91M386.11 223.45h-2.43M383.68 223.45v-3.39M383.68 220.06h2.43M386.11 220.06v3.39M386.11 187.04h-2.43M383.68 187.04v-3.4M383.68 183.64h2.43M386.11 183.64v3.4M354.3 234.62h2.92M357.22 234.62v2.91M357.22 237.53h-2.92M354.3 237.53v-2.91M354.3 194.32h2.92M357.22 194.32v-3.4M357.22 190.92h-2.92M354.3 190.92v3.4M237.53 82.17v-2.43M237.53 79.74h-2.42M235.11 79.74v2.43M31.19 72.46h2.42M33.61 70.03h-2.42M60.32 235.11h2.42M62.74 235.11v2.42M62.74 237.53h-2.42M60.32 237.53v-2.42M33.61 145.28v-2.42M33.61 142.86h-2.42M31.19 142.86v2.42M33.61 154.99v-2.42M33.61 152.57h-2.42M31.19 152.57v2.42M322.5 193.84h2.43M324.93 193.84v-2.43M324.93 191.41h-2.43M322.5 191.41v2.43M322.5 237.53h2.43M324.93 237.53v-2.42M324.93 235.11h-2.43M322.5 235.11v2.42M322.5 82.17h2.43M324.93 82.17v-2.43M324.93 79.74h-2.43M322.5 79.74v2.43M322.5 72.46h2.43M324.93 72.46v-2.43M324.93 70.03h-2.43M322.5 70.03v2.43M293.37 193.84h2.43M295.8 193.84v-2.43M295.8 191.41h-2.43M293.37 191.41v2.43M293.37 237.53h2.43M295.8 237.53v-2.42M295.8 235.11h-2.43M293.37 235.11v2.42M293.37 154.99h2.43M295.8 154.99v-2.42M295.8 152.57h-2.43M293.37 152.57v2.42M293.37 145.28h2.43M295.8 145.28v-2.42M295.8 142.86h-2.43M293.37 142.86v2.42M293.37 82.17h2.43M295.8 82.17v-2.43M295.8 79.74h-2.43M293.37 79.74v2.43M293.37 72.46h2.43M295.8 72.46v-2.43M295.8 70.03h-2.43M293.37 70.03v2.43M293.37 4.48h2.43M295.8 4.48V2.05M295.8 2.05h-2.43M293.37 2.05v2.43M264.24 193.84h2.43M266.67 193.84v-2.43M266.67 191.41h-2.43M264.24 191.41v2.43M264.24 237.53h2.43M266.67 237.53v-2.42M266.67 235.11h-2.43M264.24 235.11v2.42M264.24 154.99h2.43M266.67 154.99v-2.42M266.67 152.57h-2.43M264.24 152.57v2.42M264.24 145.28h2.43M266.67 145.28v-2.42M266.67 142.86h-2.43M264.24 142.86v2.42M264.24 82.17h2.43M266.67 82.17v-2.43M266.67 79.74h-2.43M264.24 79.74v2.43M264.24 72.46h2.43M266.67 72.46v-2.43M266.67 70.03h-2.43M264.24 70.03v2.43M264.24 4.48h2.43M266.67 4.48V2.05M266.67 2.05h-2.43M264.24 2.05v2.43M235.11 237.53h2.42M237.53 237.53v-2.42M237.53 235.11h-2.42M235.11 235.11v2.42M235.11 154.99h2.42M237.53 154.99v-2.42M237.53 152.57h-2.42M235.11 152.57v2.42M235.11 145.28h2.42M237.53 145.28v-2.42M237.53 142.86h-2.42M235.11 142.86v2.42M235.11 82.17h2.42M237.53 79.74h-2.42M235.11 72.46h2.42M237.53 72.46v-2.43M237.53 70.03h-2.42M235.11 70.03v2.43M235.11 4.48h2.42M237.53 4.48V2.05M237.53 2.05h-2.42M235.11 2.05v2.43M205.98 237.53h2.42M208.4 237.53v-2.42M208.4 235.11h-2.42M205.98 235.11v2.42M205.98 154.99h2.42M208.4 154.99v-2.42M208.4 152.57h-2.42M205.98 152.57v2.42M205.98 145.28h2.42M208.4 145.28v-2.42M208.4 142.86h-2.42M205.98 142.86v2.42M205.98 82.17h2.42M208.4 82.17v-2.43M208.4 79.74h-2.42M205.98 79.74v2.43M205.98 72.46h2.42M208.4 72.46v-2.43M208.4 70.03h-2.42M205.98 70.03v2.43M205.98 4.48h2.42M208.4 4.48V2.05M208.4 2.05h-2.42M205.98 2.05v2.43M176.84 237.53h2.43M179.27 237.53v-2.42M179.27 235.11h-2.43M176.84 235.11v2.42M176.84 154.99h2.43M179.27 154.99v-2.42M179.27 152.57h-2.43M176.84 152.57v2.42M176.84 145.28h2.43M179.27 145.28v-2.42M179.27 142.86h-2.43M176.84 142.86v2.42M176.84 72.46h2.43M179.27 72.46v-2.43M179.27 70.03h-2.43M176.84 70.03v2.43M176.84 4.48h2.43M179.27 4.48V2.05M179.27 2.05h-2.43M176.84 2.05v2.43M147.71 237.53h2.43M150.14 237.53v-2.42M150.14 235.11h-2.43M147.71 235.11v2.42M147.71 154.99h2.43M150.14 154.99v-2.42M150.14 152.57h-2.43M147.71 152.57v2.42M147.71 145.28h2.43M150.14 145.28v-2.42M150.14 142.86h-2.43M147.71 142.86v2.42M147.71 82.17h2.43M150.14 82.17v-2.43M150.14 79.74h-2.43M147.71 79.74v2.43M147.71 72.46h2.43M150.14 72.46v-2.43M150.14 70.03h-2.43M147.71 70.03v2.43M147.78 4.48h2.36M150.14 4.48V2.05M150.14 2.05h-2.36M147.78 2.05v2.43M118.58 237.53h2.43M121.01 237.53v-2.42M118.58 235.11v2.42M118.58 154.99h2.43M121.01 154.99v-2.42M121.01 152.57h-2.43M118.58 152.57v2.42M118.58 145.28h2.43M121.01 145.28v-2.42M121.01 142.86h-2.43M118.58 142.86v2.42M118.58 82.17h2.43M121.01 82.17v-2.43M121.01 79.74h-2.43M118.58 79.74v2.43M118.58 72.46h2.43M121.01 72.46v-2.43M121.01 70.03h-2.43M118.58 70.03v2.43M118.58 4.48h2.43M121.01 4.48V2.05M121.01 2.05h-2.43M118.58 2.05v2.43M89.45 237.53h2.43M89.45 235.11v2.42M89.45 154.99h2.43M91.88 154.99v-2.42M91.88 152.57h-2.43M89.45 152.57v2.42M89.45 145.28h2.43M91.88 145.28v-2.42M91.88 142.86h-2.43M89.45 142.86v2.42M89.45 82.17h2.43M91.88 82.17v-2.43M91.88 79.74h-2.43M89.45 79.74v2.43M89.45 72.46h2.43M91.88 72.46v-2.43M91.88 70.03h-2.43M89.45 70.03v2.43M89.45 4.48h2.43M91.88 4.48V2.05M91.88 2.05h-2.43M89.45 2.05v2.43M60.32 237.53h2.42M62.74 235.11h-2.42M60.32 154.99h2.42M62.74 154.99v-2.42M62.74 152.57h-2.42M60.32 152.57v2.42M60.32 145.28h2.42M62.74 145.28v-2.42M62.74 142.86h-2.42M60.32 142.86v2.42M60.32 4.48h2.42M62.74 4.48V2.05M62.74 2.05h-2.42M60.32 2.05v2.43M31.19 193.84h2.42M33.61 193.84v-2.43M33.61 191.41h-2.42M31.19 191.41v2.43M31.19 237.53h2.42M33.61 237.53v-2.42M33.61 235.11h-2.42M31.19 235.11v2.42M31.19 154.99h2.42M31.19 145.28h2.42M33.61 72.46v-2.43M31.19 70.03v2.43M31.19 4.48h2.42M31.19 169.56h2.42M33.61 169.56v-2.43M33.61 167.13h-2.42M31.19 167.13v2.43M31.19 40.9h2.42M33.61 40.9v-2.43M33.61 38.47h-2.42M31.19 38.47v2.43M325.42 194.32h2.42M327.84 194.32v-3.4M327.84 190.92h-2.42M325.42 190.92v3.4M354.3 114.21h2.92M357.22 114.21v-3.4M357.22 110.81h-2.92M354.3 110.81v3.4M266.67 154.99v-2.42M264.24 152.57v2.42M322.5 154.99h2.43M324.93 154.99v-2.42M324.93 152.57h-2.43M322.5 152.57v2.42M322.5 145.28h2.43M324.93 145.28v-2.42M324.93 142.86h-2.43M322.5 142.86v2.42M325.42 150.63h2.42M327.84 150.63v-3.4M327.84 147.23h-2.42M325.42 147.23v3.4M325.42 114.21h2.42M327.84 114.21v-3.4M327.84 110.81h-2.42M325.42 110.81v3.4M150.14 193.84h-2.43M147.71 193.84v-2.43M147.71 191.41h2.43M150.14 191.41v2.43M205.98 193.84h2.42M208.4 193.84v-2.43M208.4 191.41h-2.42M205.98 191.41v2.43M176.84 193.84h2.43M179.27 193.84v-2.43M179.27 191.41h-2.43M176.84 191.41v2.43M118.58 193.84h2.43M121.01 193.84v-2.43M121.01 191.41h-2.43M118.58 191.41v2.43M89.45 193.84h2.43M91.88 193.84v-2.43M91.88 191.41h-2.43M89.45 191.41v2.43M60.32 193.84h2.42M62.74 193.84v-2.43M62.74 191.41h-2.42M60.32 191.41v2.43M235.11 193.84h2.42M237.53 193.84v-2.43M237.53 191.41h-2.42M235.11 191.41v2.43M4.48 145.28v-2.42M2.05 142.86v2.42M2.05 145.28h2.43M4.48 142.86H2.05M2.05 72.46h2.43M4.48 72.46v-2.43M4.48 70.03H2.05M2.05 70.03v2.43M4.48 203.06v2.43M2.05 205.49v-2.43M2.05 205.49h2.43M4.48 203.06H2.05M2.05 40.9h2.43M4.48 40.9v-2.43M4.48 38.47H2.05M2.05 38.47v2.43M33.61 79.74v2.43M322.5 4.48h2.43M324.93 4.48V2.05M324.93 2.05h-2.43M322.5 2.05v2.43M31.19 205.49h2.42M33.61 205.49v-2.43M33.61 203.06h-2.42M31.19 203.06v2.43"/>
  <path class="k" d="M115.18 64.5v-1.1M118.58 47.38h-1.09"/>
  <path class="l" d="M118.58 67.17h11.07"/>
  <path class="k" d="M129.97 67.17h8.15"/>
  <path class="l" d="M179.27 67.17H168.2"/>
  <path class="k" d="M167.88 67.17h-8.15M308.91 45.8h20.63M79.75 111.04h-8.73M118.58 187.76H99.35M179.27 187.76h19.23M66.38 128.99v-14.55M10.44 107.84h13.24M25.03 100.19H10.68"/>
  <path class="n" d="M395.82 128.44l13.59 7.76M395.82 136.2l13.59-7.76M395.82 124.26l13.59-7.77M395.82 116.49l13.59 7.77M395.82 124.26h13.59M409.41 116.49h-13.59M395.82 116.49v7.77M395.82 128.44h13.59M409.41 128.44v7.76M409.41 136.2h-13.59M395.82 136.2v-7.76M23.17 171.62v10.69M5.21 182.31v-10.69M5.21 171.62l17.96 10.69M5.21 182.31l17.96-10.69M5.45 200.49l13.6-8.26M5.45 192.23l13.6 8.26M5.45 200.49h13.6M19.05 192.23H5.45M23.17 182.31H5.21M5.45 192.23v8.26M19.53 185.83h-7.28M12.25 184.85h7.28M19.05 200.49v-8.26M12.25 185.83v-.98M19.53 184.85v.98M5.21 165.92l17.96-10.68M5.21 155.24l17.96 10.68M5.21 171.62h17.96M5.21 165.92h17.96M23.17 155.24H5.21M5.21 155.24v10.68M19.53 153.3h-7.28M12.25 154.27h7.28M12.25 153.3v.97M19.53 154.27v-.97"/>
  <path class="l" d="M98.75 191.17v-.49M199.11 191.17v-.49"/>
  <path class="o" d="M24 71.58v.2M24 71.78h-7.72M16.28 71.78v-.1M24 67.21v-3.79M24 63.42h-7.72M16.28 63.42v4.86M11.67 63.42h3.59M15.26 63.42v4.86M15.26 71.78h-3.59M11.67 71.78v-8.36M15.26 71.68v.1M26.09 54.3H10.4M10.4 54.3v1.16M10.4 55.46H2.3M2.3 55.46V41.14M2.3 41.14h2.42M4.72 41.14v-1.22M4.72 39.92h26.22M30.94 39.92v1.22M30.94 41.14h.97M31.91 41.14V54.3M31.91 54.3h-1.45M24 76.97v1.17M24 78.14H12.15M12.15 78.14v-5.68"/>
  <path class="g" d="M149.65 70.03V50.16M148.2 50.16v19.87M149.65 27.68V4.48M148.2 4.48v23.2M148.2 5.45h1.45M148.2 5.45l1.45-.97M149.65 5.45l-1.45-.97M246.7 106.43h18.99M179.19 106.43V91.06M179.8 91.06v15.37M61.76 118.87V84.83M208.32 86.69v19.74M208.93 86.69v10.2M208.93 86.69v19.74M179.19 91.06h.61M91.88 106.43h29.19M179.8 106.43h28.52M208.93 106.43h37.26M121.07 106.43V90.06M121.58 87.97v18.46M91.88 237.53h-2.49M121.01 237.53h-2.43M150.14 237.53h-2.43M179.27 237.53h-2.43M208.4 237.53h-2.42M237.6 237.53h-2.43M90.08 217v18.11M206.89 235.11v-31.68M236.87 235.11v-13.05M236.87 221.46v-27.62M60.32 209.99v27.54M32.4 239.23h3.64M89.39 217v3.97M89.39 221.58v15.95M61.11 235.11v-13.53M61.05 220.97v-26.95M177.75 235.11v-31.68M178.36 235.11v-31.68M207.49 202.82v18.64M207.49 222.06v13.05M179.8 86.09h26.11M206.52 86.09h6.27M217.16 86.09h29.64M179.19 86.69h29.13M208.93 86.69h3.86M217.16 86.69h29.03M179.19 86.69v-2.92M179.8 70.03v16.06M212.79 86.09v.6M217.16 86.69v-.6M265.69 106.43V92.05M237.6 237.53v-45.15M148.62 235.11v-31.68M149.23 235.11v-31.68M119.49 235.11v-31.68M120.1 235.11v-31.68M91.27 88.09v13.14M91.88 79.74v2.43M91.88 88.6v12.63M265.75 70.03V4.48M43.32.35H30.7M43.32.35v1.7M43.32 2.05h-7.76M60.32 1.57h2.42M91.88 4.48V1.57M91.88 1.57h-2.43M121.01 1.57h-2.43M150.14 1.57h-2.36M179.27 1.57h-2.36M208.4 1.57h-2.36M208.4 1.57v2.91M205.98 1.57v2.91M237.53 1.57h-2.42M268.37 1.57h-4.07M205.98 4.48h2.42M235.11 154.51H208.4M203.06 156.31h45.79M196.6 107.4v28.51M237.53 154.51h12.14M248.85 156.31v13.07M249.67 169.98v-15.47M251.35 181.88l-1.68-11.9M248.85 169.38l1.77 12.53M197.2 107.4v27.69M33.61 113.48v36.61M33.61 209.26h26.52M33.13 4.48v33.99M33.61 38.47v43.21M33.61 81.68h26.46M265.69 72.46v7.28M62.74 88.09h2.17M82.5 88.6v12.63M81.99 101.23V88.6M62.8 88.6h2.11M82.5 101.23h-.51M62.26 69.78V64.5M62.26 64.5h4.7M66.96 64.5v.51M66.96 65.01h-4.22M235.11 79.74v4.03M235.11 83.77h2.42M237.53 83.77v-4.03M111.77 64.5v18.15M111.26 65.01v17.16M111.26 65.01h-2.47M108.79 65.01v-.51M108.79 64.5h2.98M88.14 65.01v2.59M87.53 65.01v3.2M121.07 88.09h-1.94M121.58 83.6h-3M121.58 83.6V70.54M121.58 70.54h2.67M124.25 70.54v-.51M124.25 70.03h-5.67M121.07 88.09v-.12M121.07 87.97h.51M91.88 82.17h-4.35M91.27 101.23h.61M265.69 91.54h-3.26M262.43 91.54v.51M262.43 92.05h3.26M246.7 92.05h1.31M248.01 92.05v-.51M248.01 91.54h-1.21M246.8 91.54v-5.45M118.58 83.6v-3.86M179.27 145.28v-4.26M179.27 141.02h-2.43M176.84 141.02v4.26M176.84 79.74v4.03M176.84 83.77h2.35M179.19 79.74v-7.28M144.57 70.03v.51M144.57 70.54h3.14M144.57 70.03h8.67M153.24 70.03v.51M153.24 70.54h-3.1M179.8 70.03h-6M173.8 70.03v.51M173.8 70.54h3.04M246.19 98.34h.51M246.19 106.43v-1.29M246.19 105.14h.51M246.7 105.14v1.29M246.7 98.34v-6.29M88.14 67.6h3.74M87.53 68.21h1.92M110.51 87.61h-.48M110.51 83.24h-.48M89.45 68.21v13.47M90.06 72.46v7.28M30.7.35v37.63M30.7 37.98H.35M.35 37.98v6.31M386.59 239.23v-52.19M386.59 187.04h30.35M416.94 187.04v-45.88M416.94 37.98h-30.35M386.59 37.98V.36M386.59.36L373.97.35M147.23 107.4H91.88M91.88 107.4v27.18M96.73 135.19v-.61M37.01 118.87h24.75M150.14 145.28V107.4M149.41 142.86v-7.67M149.41 134.58v-25.22M143.16 135.19v-.61M91.27 135.19h5.46M143.16 135.19h6.25M91.88 134.58h4.85M143.16 134.58h6.25M124.71 141.02v.97M91.27 105.6v.95M91.88 105.6v.83M82.5 106.57v-.97M91.27 107.4h-1.96M62.73 107.4v12.2M36.04 119.6h26.69M81.99 106.57v-.97M82.5 105.6h-.51M91.27 105.6h.61M115.18 141.02h9.53M150.14 152.57v2.42M118.4 154.77v-12.78M124.71 141.99h-3.42M121.29 141.99v12.78M205.91 70.03v16.06M206.52 72.46v7.28M206.52 82.17v3.92M205.91 70.03h2.49M89.99 203.43v7.45M60.13 191.41v11.17M60.13 203.19v6.07M89.39 202.82v8.06M89.39 202.82h7.14M112.93 202.82h13.86M143.19 202.82h11.6M171.19 202.82h13.86M201.45 202.82h6.04M89.99 203.43h6.54M112.93 203.43h6.56M120.1 203.43h6.69M143.19 203.43h5.43M149.23 203.43h5.56M171.19 203.43h6.56M178.36 203.43h6.69M201.45 203.43h5.44M201.45 203.43v-.61M185.05 202.82v.61M154.79 203.43v-.61M171.19 202.82v.61M96.53 203.43v-.61M112.93 202.82v.61M143.19 203.43v-.61M126.79 202.82v.61M250.62 181.91v9.86M250.62 192.38v1.46M251.35 181.88v11.96M52.18 190.81v12.38M52.79 191.41v11.17M52.18 203.19h7.95M52.98 202.58h7.15M52.18 190.81l13.72-.01M52.79 191.41h7.34M237.53 191.77h13.09M237.6 192.38h13.02M33.61 209.99h26.71M265.69 91.54v-9.37M246.19 98.34V86.69M266.71 107.4V81.44M121.58 106.43h57.61M33.13 38.47h.48M33.61 153.3v49.76M34.97 150.09v3.21M59 84.83v-2.66M2.05 40.9h2.43M32.16 40.9v13.64M2.05 40.9v3.39M2.05 72.46v2.18M2.05 72.46h9.47M32.16 72.46v7.28M33.61 209.99v25.12M266.67 4.48V3.27M266.6 70.03V4.48M266.67 80.95V70.03M295.8 2.05h-2.43M327.84 1.57h-5.34M110.03 88.09H91.27M111.78 88.09h-1.27M111.78 88.6h-19.9M91.27 107.4v27.79M84.45 107.4H62.73M74.52 88.09h10.16M74.52 88.6h7.47M119.61 88.6h-.48M147.23 109.36v-1.96M87.53 81.68v.49M82.5 88.6h2.18M31.19 79.74v1.7M2.05 113.48v2.19M2.05 67.6v2.43M.35 67.6v7.04M2.05 91.88v2.42M.35 91.88v6.31M208.4 142.86v11.65M206.7 135.09v7.77M205.98 135.91v6.95M31.19 40.9h.97M4.48 39.68h26.71M1.45 55.7h9.2M10.65 54.54h15.44M30.46 54.54v.73M26.09 54.54v.73M11.52 55.27h14.57M30.46 54.54h1.7M30.46 55.27h1.7M32.16 55.27v7.28M2.05 56.48h8.6M11.52 62.55h14.57M11.52 63.28h3.89M32.16 63.28v6.75M30.46 62.55v.73M26.09 62.55v.73M30.46 63.28h1.7M30.46 62.55h1.7M10.65 56.48v.49M10.65 56.97h.87M10.65 61.34h.87M10.65 61.34v10.44M24.87 63.28v3.93M24.87 63.28h1.22M16.13 63.28h8.02M24.15 67.21h.72M24.15 71.58h.72M24.87 71.58v1.99M16.13 68.28h-.72M16.13 71.68h-.72M24.87 73.57h-.72M24.87 76.97h-.72M24.87 76.97v4.47M12.01 78.28h12.14M24.87 81.44h1.22M24.87 82.17h1.22M24.87 82.17v7.42M12.01 72.46h12.14M30.46 81.44v.73M26.09 81.44v.73M30.46 81.44h.73M30.46 82.17h2.08M32.54 82.17V94.3M2.05 96.49v1.7M30.6 94.3v.49M25.89 94.3v.49M24.15 89.59h.72M24.15 93.96h.72M24.87 93.96v.34M.35 109.84v5.83M2.05 109.84v1.7M30.21 113.48V113M25.6 113.48V113"/>
  <path class="p" d="M2.05 127.81"/>
  <path class="g" d="M2.05 145.28v4.86M2.05 142.86h2.43M4.48 142.86v2.42M4.48 145.28H2.05M20.75 187.14v6.31M33.61 203.06v2.43M33.61 205.49v3.77M20.75 199.27v5.01M.35 138.97v65.31M2.05 138.97v3.89M416.94 111.54V37.98M417.33 141.16v-29.62M60.32 1.57v2.91M60.32 4.48h2.42M62.74 1.57v2.91M91.27 106.55h-1.96M62.8 106.57V88.6M89.39 217h.69M89.39 210.88h.6M196.6 107.4h-46.46M197.2 107.4h68.74M237.53 72.46h-2.42M235.11 72.46v-2.43M235.11 70.03h2.42M237.53 70.03v2.43M33.61 150.09h1.36M34.97 153.3h-1.36M61.76 84.83H59M59 82.17H33.61M373.97 2.05h9.71M36.04 239.23v-1.7M36.04 237.53h-2.43M33.61 237.53v-2.42M386.59 239.23h-12.62M373.97 239.23v-1.7M373.97 237.53h9.71M383.68 237.53v-2.91M383.68 234.62h1.21M384.89 234.62v-11.17M384.89 223.45h-1.21M383.68 223.45v-3.39M383.68 220.06h1.21M384.89 220.06v-33.02M384.89 187.04h-1.21M383.68 187.04v-3.4M383.68 183.64h2.43M386.11 183.64v.27M386.11 183.91h26.7M412.81 183.91v-.27M412.81 183.64h2.43M415.24 183.64V164.1M415.24 164.1h-2.43M412.81 164.1v-3.4M412.81 160.7h2.43M415.24 160.7v-6.68M415.24 154.02h-3.92M411.32 154.02v-3.51M411.32 150.51h3.92M415.24 150.51v-9.35M415.24 141.16h-2.43M412.81 141.16v-.97M412.81 111.54h2.43M415.24 111.54V96.49M415.24 96.49h-2.43M412.81 96.49v-.97M412.81 93.58h2.43M415.24 93.58V73.43M415.24 41.38h-2.43M412.81 41.38V39.2M412.81 39.2h-26.7M386.11 39.2v2.18M386.11 41.38h-1.95M383.68 41.38v-3.4M383.68 37.98V4.97M383.68 4.97V2.05M62.74 237.53h-2.42M37.01 118.87V94.55M37.01 94.55h-3.4M33.61 94.55V82.17M31.19 72.46h.97M324.93 37.55h3.4M328.33 37.55v4.27M328.33 41.82h-3.4M324.93 41.82v-4.27M352.07 2.05h6.7M358.77 2.05v4.08M358.77 6.13h-6.7M352.07 6.13V2.05M353.53 37.55h4.46M357.99 37.55v4.27M357.99 41.82h-4.46M353.53 41.82v-4.27M383.68 74.4V41.38M415.24 72.7h-31.08M405.53 94.55h-2.43M403.1 94.55h-7.28M403.1 96.49h2.43M405.53 96.49v-.97M395.82 94.55h-2.43M393.39 96.49h2.43M395.82 96.49v-.97M386.11 93.58h-1.7M383.68 95.52v.97M383.68 96.49h2.43M386.11 96.49v-.97M386.11 73.43v.97M386.11 74.4v3.4M386.11 77.8h-1.7M383.68 77.07V74.4M353.53 73.96h4.46M357.99 73.96v3.11M357.99 78.23h-.77M353.53 78.23v-4.27M266.67 70.03h-.07M266.6 4.48h.07M322.26 80.95V79.5M322.26 79.5h2.19M324.45 79.5v-6.8M324.45 72.7h-2.19M322.26 72.7v-2.92M322.26 69.78h2.91M325.17 69.78v4.37M325.17 74.15h2.92M328.09 74.15v3.89M328.09 78.04h-2.92M325.17 78.04v3.64M325.17 81.68h31.32M357.22 78.23v34.52M356.49 78.23h-2.96M357.99 77.07h25.69M357.99 77.8h25.06M357.99 77.8v.43M386.11 73.43h29.13M384.16 41.38V72.7M415.24 72.7v-3.04M356.49 110.81V82.17M356.49 82.17H322.5M322.5 82.17v-.73M322.5 81.44h-19.08M296.09 81.44v1.7M296.09 83.14h-3.93M292.16 83.14v-1.7M292.16 81.44h-25.45M356.49 81.68v-3.45M322.26 80.95H295.8M295.8 80.95v-1.21M295.8 70.03h-.49M293.37 79.74v1.21M293.37 80.95h-26.7M295.8 79.74h-2.43M295.31 70.03h-1.94M293.37 72.46h2.43M293.37 70.03v2.43M295.8 72.46v-2.43M412.81 69.66v-3.4M415.24 66.26V41.38M415.24 69.66h-2.43M412.81 66.26h2.43"/>
  <path class="p" d="M395.82 94.55"/>
  <path class="g" d="M386.11 94.55v-.97M412.81 94.55h-7.28M403.1 95.52v.97M395.82 95.52h7.28M393.39 95.52v.97M405.53 95.52h7.28M412.81 94.55v-.97M393.39 94.55h-7.28M393.39 95.52h-7.28M384.41 77.8v15.78M383.05 77.8v16.75M383.05 94.55h-5.44M377.61 94.55v10.87M377.61 105.42h6.07M383.68 105.42v7.33M383.68 112.75h-26.46M383.68 95.52h-5.1M378.58 95.52v9.17M378.58 104.69h5.83M384.41 104.69v6.85M384.41 111.54h1.7M386.11 111.54v.97M386.11 112.51h7.28M409.9 113.48h-14.57M405.53 112.51h7.28M403.1 111.54h2.43M395.82 112.51h7.28M393.39 111.54h2.43M403.1 112.51v-.97M405.53 111.54v.97M393.39 112.51v-.97M395.82 111.54v.97M412.81 112.51v-.97M266.67 3.27h1.7M268.37 3.27v-1.7M111.26 82.17h-1.23M110.03 82.17v1.07M111.77 82.65h-1.26M110.51 82.65v.59M110.03 87.61v.48M110.51 87.61v.48M81.99 106.57H62.8M89.31 106.55v.85M84.45 106.57v.83M84.45 106.57H82.5M119.61 90.06V88.6M121.07 90.06h-1.46M149.41 109.36h-2.18M89.45 81.68h-1.92M84.68 88.6v-.51M32.16 79.74h-.97M32.54 94.3H30.6M31.19 111.54v.97M31.19 112.51h-1.1M23.9 112.51v-.97M23.9 111.54h-2.43M21.47 111.54v.97M21.47 112.51h-7.28M14.19 112.51v-.97M14.19 111.54h-2.43M11.76 111.54v.97M11.76 112.51H4.48M4.48 112.51v-.97M4.48 111.54H2.05M32.16 113.48h-1.95M32.16 113.48v29.38M36.04 119.6v-6.12M36.04 113.48h-2.43M2.05 44.29H.35M2.05 67.6H.35M.35 74.64h1.7M197.2 135.09h9.5M206.7 142.86h1.7M196.6 135.91h9.38M303.42 81.44v31.85M303.42 113.29h21.49M324.91 113.29v-3.69M324.91 109.6h3.44M328.35 109.6v3.69M328.35 113.29h25.95M354.3 113.29v-2.48M354.3 110.81h2.19M302.64 81.44v31.31M302.64 81.44h-6.55M302.64 112.75h-.72M301.92 112.75v.73M301.92 113.48h-1.46M266.71 108.86v-1.46M265.94 108.86v-1.46M300.46 114.21h63.9M364.36 114.21l.21 1.44M364.99 113.48l.3 2.07M364.99 113.48h18.69M383.68 113.48v.97M383.68 114.45h2.43M386.11 114.45v-.97M23.17 167.86H4.48M32.16 169.56v21.85M31.19 167.13v2.43M32.16 154.99v12.14M31.19 152.57v2.42M4.48 152.57h18.69M31.19 154.99h.97M32.16 167.13h-.97M31.19 169.56h.97M4.48 167.86v-15.29M23.17 167.86v-1.7M31.19 152.57h.97M31.19 204.28H20.75M32.16 193.84v9.22M31.19 191.41v2.43M32.16 191.41h-.97M31.19 193.84h.97M25.12 166.16v7.77M19.78 204.28v-5.01M19.78 192.14H4.48M4.48 192.14v12.14M23.17 186.31v-6.55M23.17 169.32H4.48M4.48 169.32v16.99M4.48 186.31h18.69M4.48 40.9v-1.22M31.19 39.68v1.22M2.05 70.03h2.43M10.65 55.7v-1.16M15.41 71.92v-.24M2.05 56.48v-.78M4.48 71.78h6.17M31.19 70.03h.97M4.48 70.03v1.75M31.19 72.46v-2.43M11.52 71.92h3.89M11.52 62.55v-1.21M11.52 56.97v-1.7M11.52 71.92v-8.64M16.13 71.92v-.24M24.15 94.3v-.34M16.13 71.92h8.02M24.15 67.21v-3.93M24.15 71.92v-.34M15.41 68.28v-5M16.13 68.28v-5M24.15 73.57v-1.11M12.01 78.28V72.5M24.15 78.28v-1.31M11.52 79.25v-6.79M11.52 79.25h12.63M.35 91.88h1.7M24.15 94.3H2.05M23.9 95.27v1.22M23.9 96.49h-2.43M21.47 96.49v-1.22M14.19 95.27v1.22M14.19 96.49h-2.43M11.76 96.49v-1.22M4.48 95.27v1.22M4.48 96.49H2.05M11.76 95.27H4.48M21.47 95.27h-7.28M30.6 94.79h-.17M25.89 94.3h-1.02M30.43 94.79v.48M26.06 94.79v.48M26.06 95.27H23.9M26.06 94.79h-.17M24.15 89.59V79.25M31.19 95.27v1.22M31.19 96.49h1.35M31.19 95.27h-.76M32.54 96.49v15.05M32.54 111.54h-1.35M.35 98.19h1.7M.35 109.84h1.7M32.16 145.29v7.28M31.19 142.86v2.43M32.16 142.86h-.97M31.19 145.29h.97M25.12 113.48v9.23M24.39 113.48v9.23M24.39 113.48H2.05M30.21 113h-.12M30.09 113v-.49M25.72 113v-.49M25.72 113h-.12M25.6 113.48h-.48M25.72 112.51H23.9M25.12 122.71h-.73M25.12 127.56h-.73M25.12 131.2h-.73M25.12 136.06h-.73M24.39 127.56v.25M25.12 127.56v3.64M24.39 136.06v14.08M25.12 136.06v18.45M24.39 127.81H1.57M24.39 128.29H1.57M24.39 128.29v2.91M2.05 115.67H.35M2.05 138.97H.35M25.12 154.51h-1.95M23.17 154.51v-1.94M24.39 150.14H2.05M25.12 166.16h-1.94M25.12 173.93h-1.95M25.12 179.76h-1.95M23.17 173.93v-4.61M25.12 179.76v7.38M19.78 204.28H4.48M31.19 203.06v1.22M32.16 203.06h-.97M20.75 199.27h-.97M20.75 193.45h-.97M19.78 193.45v-1.31M25.12 187.14h-4.37M2.05 138.97H.35M1.57 128.29v-.48M409.9 113.48v12.14M409.9 139.22h-14.57M395.33 139.22v-12.14M395.33 127.08h14.57M409.9 125.62h-14.57M394.12 139.22v-25.74M394.12 113.48h-8.01M395.33 125.62v-12.14M409.9 127.08v12.14M373.97.35v1.7M412.81 140.19h-7.28M394.12 139.22h-.73M405.53 141.16h-2.43M403.1 140.19h-7.28M395.82 141.16h-2.43M405.53 140.19v.97M403.1 141.16v-.97M395.82 140.19v.97M393.39 139.22v1.94M416.94 141.16h.39M417.33 111.54h-.39M237.53 79.74h-2.42M208.4 79.74h-1.88M206.52 82.17h1.88M208.4 82.17v-2.43M206.52 72.46h1.88M208.4 72.46v-2.43M179.19 79.74h-2.35M176.84 70.54v1.92M176.84 72.46h2.35M150.14 79.74h-2.43M147.71 79.74v2.43M147.71 82.17h2.43M150.14 82.17v-2.43M147.71 70.54v1.92M147.71 72.46h2.43M150.14 72.46v-1.92M121.01 79.74h-2.43M118.58 70.03v2.43M118.58 72.46h2.43M121.01 79.74v-7.28M91.88 79.74h-1.82M90.06 72.46h1.82M91.88 72.46V67.6M62.74 88.09V65.01M235.11 237.53v-2.42M235.11 235.11h1.76M205.98 237.53v-2.42M205.98 235.11h.91M208.4 235.11v2.42M176.84 237.53v-2.42M176.84 235.11h.91M179.27 235.11v2.42M147.71 237.53v-2.42M147.71 235.11h.91M150.14 235.11v2.42M118.58 237.53v-2.42M118.58 235.11h.91M121.01 235.11v2.42M90.08 235.11h1.8M91.88 235.11v2.42M265.69 79.74h-1.45M264.24 79.74v2.43M264.24 82.17h1.45M265.75 70.03h-1.51M264.24 70.03v2.43M264.24 72.46h1.45M176.84 154.99h2.43M179.27 154.99v-2.42M179.27 152.57h-2.43M176.84 152.57v2.42M176.84 145.28h2.43M91.88 4.48h-2.43M89.45 4.48V1.57M35.56 2.05v2.43M35.56 4.48h-2.43M121.01 1.57v2.91M121.01 4.48h-2.43M118.58 4.48V1.57M150.14 1.57v2.91M150.14 4.48h-2.36M147.78 4.48V1.57M179.27 1.57v2.91M179.27 4.48h-2.43M176.84 4.48V1.57M208.4 1.57v2.91M208.4 4.48h-2.42M205.98 4.48V1.57M237.53 1.57v2.91M237.53 4.48h-2.42M235.11 4.48V1.57M265.75 4.48h-1.51M264.24 4.48V1.57M237.53 154.51v-1.94M237.53 152.57h-2.42M235.11 152.57v1.94M205.98 142.86h-2.92M62.74 235.11v2.42M62.74 154.44v-1.87M62.74 142.86v2.42M89.45 154.99h2.43M91.88 154.99v-2.42M91.88 152.57h-2.43M89.45 152.57v2.42M91.88 145.28h-2.43M89.45 145.28v-2.42M89.45 142.86h2.43M91.88 142.86v2.42M150.14 154.99h-2.43M150.14 152.57h-2.43M147.71 152.57v2.42M147.71 145.28h2.43M147.71 142.86v2.42M150.14 193.84h-2.43M147.71 193.84v-2.43M147.71 191.41h2.43M150.14 191.41v2.43M179.27 193.84h-2.43M176.84 193.84v-2.43M176.84 191.41h2.43M179.27 191.41v2.43M118.58 191.41h2.43M121.01 191.41v2.43M121.01 193.84h-2.43M118.58 193.84v-2.43M89.45 191.41h2.43M91.88 191.41v2.43M91.88 193.84h-2.43M89.45 193.84v-1.58M236.87 193.84h-1.76M235.11 193.84v-2.43M235.11 191.41h2.42M237.53 191.41v.36M62.93 194.02v-1.64M208.4 193.84h-2.42M205.98 193.84v-2.43M205.98 191.41h2.42M208.4 191.41v.24M76.69 65.01h.93M77.62 65.01v-.51M77.62 64.5h-.93M76.69 64.5v.51M87.35 65.01h.18M88.32 65.01v-.51M88.32 64.5h-.97M87.35 64.5v.51M98.06 65.01h.99M99.05 65.01v-.51M99.05 64.5h-.99M98.06 64.5v.51M133.96 70.54h.9M134.86 70.54v-.51M134.86 70.03h-.9M133.96 70.03v.51M163.02 70.54h1M164.02 70.54v-.51M164.02 70.03h-1M163.02 70.03v.51M203.06 142.86v13.45M74.52 88.09v.51M64.91 88.6v-.51M119.13 88.6v-.51M115.18 134.58h9.53M124.71 134.58v.61M124.71 135.19h-9.53M115.18 135.19v-.61M65.9 155.73H52.18M52.18 155.73v-14.7M52.18 141.03H65.9M121.29 154.77h3.42M124.71 154.77v.96M124.71 155.73h-9.53M115.18 155.73v-.96M115.18 154.77h3.22M115.18 141.02v.97M115.18 141.99h3.22M207.49 222.06h4.13M211.62 222.06v-.6M211.62 221.46h-4.13M236.87 222.06h-4.13M232.74 222.06v-.6M232.74 221.46h4.13M89.39 221.58h-4.01M85.38 221.58v-.61M85.38 220.97h4.01M61.11 221.58h4.13M65.24 221.58v-.61M65.24 220.97h-4.19M65.9 155.73v-1.29M65.9 154.44h-3.16M62.74 154.44v-1.87M62.74 152.57v-7.29M62.74 145.28v-2.98M62.74 142.3h3.16M60.07 154.99h-7.28M52.79 154.99v-13.37M52.79 141.62h7.34M60.13 141.62v3.91M89.45 191.65v-.24M89.45 191.41h2.43M91.88 191.41v2.43M91.88 193.84h-2.43M65.9 190.8v1.58M65.9 192.38h-2.97M89.45 191.65h-8.26M81.19 191.65v.61M81.19 192.26h8.26M219.57 191.65v.61M219.57 192.26H208.4M62.26 69.78h-2.19M60.07 69.78v11.9M88.14 65.01h.18M61.11 235.11h1.63M61.05 194.02h1.88M120.1 235.11h.91M149.23 235.11h.91M178.36 235.11h.91M207.49 235.11h.91M208.4 192.26v1.58M149.41 142.86h-1.7M219.57 191.65H208.4M60.07 152.34v2.65M62.26 152.34h-2.19M60.13 145.53h2.13M62.26 145.53v6.81M295.8 2.05v2.43M295.8 4.48h-2.43M293.37 4.48V2.05M325.42 4.97v-.49M322.5 4.48V1.57M327.84 1.57v3.4M327.84 4.97h-2.42M325.42 4.48h-2.92M65.9 142.3v-1.27M111.78 88.6v-.51"/>
</svg>
