<?xml version="1.0" encoding="utf-8"?>
<!-- Generator: Adobe Illustrator 22.0.1, SVG Export Plug-In . SVG Version: 6.00 Build 0)  -->
<svg version="1.1" id="Capa_1" xmlns="http://www.w3.org/2000/svg" xmlns:xlink="http://www.w3.org/1999/xlink" x="0px" y="0px"
	 viewBox="0 0 296.3 296.3" style="enable-background:new 0 0 296.3 296.3;" xml:space="preserve">
<style type="text/css">
	.st0{fill:#EEEEEE;}
	.st1{fill:#DDDBDB;}
	.st2{fill:#B7B3B3;}
	.st3{fill:#FFFAFA;}
	.st4{fill:#CCCACA;}
	.st5{fill:#482C18;}
	.st6{fill:#33261C;}
	.st7{fill:#FFC994;}
	.st8{opacity:0.1;fill:#FCFCFC;}
	.st9{opacity:0.16;fill:#050505;}
	.st10{fill:#FFBD76;}
</style>
<g>
	<path class="st0" d="M283.6,224.7H12c-6.6,0-11.9-5.3-11.9-11.9l0,0c0-6.6,5.3-11.9,11.9-11.9h271.6c6.6,0,11.9,5.3,11.9,11.9l0,0
		C295.5,219.4,290.2,224.7,283.6,224.7z"/>
	<rect x="52.9" y="224.7" class="st1" width="189.9" height="12.8"/>
	<rect x="52.9" y="226" class="st2" width="189.9" height="6.4"/>
	<g>
		<path class="st0" d="M251.6,89.8c-24.2,0-43.9,19.6-43.9,43.9c0,24.2,19.6,43.9,43.9,43.9c24.2,0,43.9-19.6,43.9-43.9
			C295.5,109.4,275.9,89.8,251.6,89.8z M251.6,161.9c-15.6,0-28.3-12.7-28.3-28.3s12.7-28.3,28.3-28.3c15.6,0,28.3,12.7,28.3,28.3
			S267.3,161.9,251.6,161.9z"/>
	</g>
	<g>
		<path class="st3" d="M295.5,133.6c0-24.2-19.6-43.9-43.9-43.9c-4.4,0-8.6,0.7-12.5,1.8l2.1,15.7c3.2-1.3,6.7-2,10.4-2
			c15.6,0,28.3,12.7,28.3,28.3c0,7.7-3.1,14.7-8.1,19.8l8.5,13.3C289.6,158.7,295.5,146.8,295.5,133.6z"/>
	</g>
	<path class="st4" d="M258.6,60.4H147.8H37c0,0-19,104.7,70.4,140.5h40.4h40.4C277.6,165.1,258.6,60.4,258.6,60.4z"/>
	<g>
		<path class="st5" d="M56.3,76.1c-4,0-7.3,3.2-7.3,7.2c0,7.8,0.6,17,2.2,26.9c8,48.6,49.1,83.8,96.6,83.8s88.6-35.2,96.6-83.8
			c1.6-9.9,2.2-19.1,2.2-26.9c0-4-3.3-7.2-7.3-7.2H56.3z"/>
	</g>
	<path class="st6" d="M147.8,194.1c24.7,0,47.6-9.6,65.1-25.5H82.7C100.2,184.5,123.1,194.1,147.8,194.1z"/>
	<path class="st7" d="M49,81.5l0,0.1h197.5c0,0,0-0.1,0-0.1c0-6.1-5-10.9-11.1-10.9H60.1C54.1,70.6,49.1,75.5,49,81.5z"/>
	<path class="st8" d="M147.8,200.9c0,0,59.3-22.6,54.2-140.5h33.2C235.2,60.4,248.1,177,147.8,200.9z"/>
	<path class="st9" d="M188.2,200.9c0,0-113.6-16.2-105.5-140.5H37c0,0-17.8,103.9,70.4,140.5H188.2z"/>
	<g>
		<path class="st3" d="M283.6,200.9H12c-6.6,0-11.9,5.3-11.9,11.9h295.4C295.5,206.2,290.2,200.9,283.6,200.9z"/>
	</g>
	<path class="st3" d="M251.6,60.4c0,0,26.6,82.8-63.4,140.5c0,0,72-51.1,54.5-140.5H251.6z"/>
	<g>
		<path class="st10" d="M246.5,83.4c0-4-3.3-7.2-7.3-7.2h-183c-4,0-7.3,3.2-7.3,7.2c0,6.5,0.4,13.9,1.5,21.9H245
			C246.1,97.3,246.5,89.8,246.5,83.4z"/>
	</g>
</g>
</svg>
