<svg xmlns="http://www.w3.org/2000/svg" viewBox="0 0 417.68 239.59">
  <defs>
    <style>
      .a,.b,.c,.d,.e,.f,.h,.i,.j,.k,.l,.m,.n{fill:none;stroke-linecap:round;stroke-linejoin:round;}.a{stroke:#000;stroke-width:0.71px;}.b{stroke:#099;}.b,.c,.d,.e,.f,.j,.k,.l,.n{stroke-width:0.14px;}.c,.d,.e,.i{stroke:#09c;}.d{stroke-dasharray:0.87 0.44 0.01 0.22 0.01 0.44;}.e{stroke-dasharray:0.66 0.29 0.01 0.15 0.01 0.29;}.f{stroke:#090;}.g{fill:#5b5b5b;}.g,.o{fill-rule:evenodd;}.h{stroke:#ff007f;stroke-width:0.99px;}.i{stroke-width:0;}.j{stroke:#ff7f00;}.k{stroke:#4888c8;}.l{stroke:#7f7fff;}.m{stroke:#848484;stroke-width:0.26px;stroke-dasharray:0.01 0.01;}.n{stroke:#7f00ff;}.o,.p{fill:#333;}
    </style>
  </defs>
  <title>
    AlzaJankovcova_20170926_PSP_D-BC.05 Půdorys 3.NP
  </title>
  <path class="a" d="M412.81 38.47h2.43M415.24 38.47v2.91M415.24 41.38h-2.43M412.81 41.38v-2.91M31.19 96.49h2.42M412.81 141.16h2.43M31.19 154.99h2.42M322.5 193.84h2.43M324.93 191.41h-2.43M322.5 191.41v2.43M327.84 237.53v-2.91M327.84 234.62h-2.42M325.42 234.62v2.91M324.93 193.84v-2.43M325.42 194.32h2.42M327.84 194.32v-3.4M327.84 190.92h-2.42M325.42 190.92v3.4M357.22 234.62h-2.92M354.3 234.62v2.91M357.22 237.53v-2.91M354.3 194.32h2.92M357.22 190.92h-2.92M354.3 190.92v3.4M357.22 194.32v-3.4M383.68 237.53h2.43M386.11 237.53v-2.91M386.11 234.62h-2.43M383.68 234.62v2.91M386.11 183.64h-2.43M383.68 187.04h2.43M386.11 187.04v-3.4M383.68 183.64v3.4M383.68 223.45h2.43M386.11 220.06h-2.43M383.68 220.06v3.39M415.24 183.64h-2.43M412.81 186.55h2.43M415.24 186.55v-2.91M118.58 72.46h2.43M118.58 79.74h2.43M118.58 145.28h2.43M118.58 152.57h2.43M4.48 96.49H2.05M2.05 96.49v-1.94M2.05 94.55h2.43M4.48 94.55v1.94M4.48 113.48H2.05M2.05 113.48v-1.94M2.05 111.54h2.43M4.48 111.54v1.94M14.19 96.49h-2.43M11.76 96.49v-1.94M11.76 94.55h2.43M14.19 94.55v1.94M14.19 113.48h-2.43M11.76 113.48v-1.94M11.76 111.54h2.43M14.19 111.54v1.94M23.9 96.49h-2.43M21.47 96.49v-1.94M21.47 94.55h2.43M23.9 94.55v1.94M23.9 113.48h-2.43M21.47 113.48v-1.94M21.47 111.54h2.43M23.9 111.54v1.94M31.19 79.74h2.42M31.19 96.49v-1.94M31.19 94.55h2.42M33.61 94.55v1.94M33.61 113.48h-2.42M31.19 113.48v-1.94M31.19 111.54h2.42M33.61 111.54v1.94M60.32 145.28h2.42M60.32 152.57h2.42M60.32 79.74h2.42M31.19 72.46h2.42M60.32 72.46h2.42M89.45 145.28h2.43M89.45 152.57h2.43M89.45 79.74h2.43M89.45 72.46h2.43M147.71 145.28h2.43M147.71 152.57h2.43M147.71 79.74h2.43M147.71 72.46h2.43M176.84 145.28h2.43M176.84 152.57h2.43M176.84 79.74h2.43M205.98 79.74h2.42M176.84 72.46h2.43M205.98 72.46h2.42M235.11 79.74h2.42M235.11 72.46h2.42M264.24 145.28h2.43M264.24 152.57h2.43M264.24 79.74h2.43M293.37 145.28h2.43M293.37 152.57h2.43M293.37 79.74h2.43M264.24 72.46h2.43M293.37 72.46h2.43M324.93 82.17v-2.43M322.5 79.74h2.43M322.5 145.28h2.43M322.5 152.57h2.43M324.93 142.86h-2.43M322.5 154.99h2.43M322.5 142.86v2.42M325.42 150.63h2.42M327.84 150.63v-3.4M327.84 147.23h-2.42M325.42 147.23v3.4M325.42 114.21h2.42M327.84 114.21v-3.4M327.84 110.81h-2.42M325.42 110.81v3.4M322.5 72.46h2.43M325.42 41.38h2.42M327.84 41.38v-3.4M327.84 37.98h-2.42M325.42 37.98v3.4M354.3 150.63h2.92M357.22 147.23h-2.92M354.3 147.23v3.4M357.22 150.63v-3.4M354.3 114.21h2.92M357.22 110.81h-2.92M354.3 110.81v3.4M357.22 114.21v-3.4M383.68 77.8h2.43M386.11 77.8v-3.4M386.11 74.4h-2.43M383.68 74.4v3.4M383.68 96.49h2.43M386.11 96.49v-2.91M386.11 93.58h-2.43M383.68 93.58v2.91M383.68 114.45h2.43M386.11 114.45v-2.91M386.11 111.54h-2.43M383.68 111.54v2.91M383.68 41.38h2.43M386.11 41.38v-3.4M386.11 37.98h-2.43M383.68 37.98v3.4M383.68 2.05h2.43M386.11 2.05v2.92M386.11 4.97h-2.43M383.68 4.97V2.05M412.81 96.49h2.43M415.24 93.58h-2.43M412.81 114.45h2.43M415.24 111.54h-2.43M415.24 138.24h-2.43M412.81 164.1h2.43M395.82 141.16v-2.04M395.82 139.12h-2.43M393.39 139.12v2.04M412.81 138.24v2.92M403.1 141.16h2.43M405.53 141.16v-1.94M405.53 139.22h-2.43M403.1 139.22v1.94M393.39 96.49h2.43M395.82 96.49v-1.94M395.82 94.55h-2.43M393.39 94.55v1.94M393.39 113.48h2.43M395.82 113.48v-1.94M395.82 111.54h-2.43M393.39 111.54v1.94M412.81 93.58v2.91M403.1 96.49h2.43M405.53 96.49v-1.94M405.53 94.55h-2.43M403.1 94.55v1.94M412.81 111.54v2.91M403.1 113.48h2.43M405.53 113.48v-1.94M405.53 111.54h-2.43M403.1 111.54v1.94M415.24 141.16v-2.92M415.24 96.49v-2.91M415.24 114.45v-2.91M415.24 69.66v-3.4M354.55 37.98v3.4M356.97 37.98h-2.42M356.97 41.38v-3.4M354.55 41.38h2.42M354.55 4.97V2.05M356.97 4.97h-2.42M356.97 2.05v2.92M354.55 74.4v3.4M356.97 74.4h-2.42M356.97 77.8v-3.4M354.55 77.8h2.42M322.5 70.03v2.43M324.93 154.99v-2.42M386.11 141.16v-2.04M393.39 141.16h2.43M235.11 145.28h2.42M235.11 152.57h2.42M205.98 145.28h2.42M205.98 152.57h2.42M31.19 145.28h2.42M31.19 152.57h2.42M386.11 150.63v-3.4M415.24 160.55h-2.43M412.81 160.55v3.55M415.24 164.1v-3.55M412.81 183.64v2.91M383.68 147.23v3.4M383.68 150.63h2.43M383.68 141.16h2.43M386.11 139.12h-2.43M383.68 139.12v2.04M386.11 220.06v3.39M412.81 69.66h2.43M415.24 66.26h-2.43M412.81 66.26v3.4M322.5 79.74v2.43M324.93 72.46v-2.43M322.5 82.17h2.43M322.5 70.03h2.43M324.93 145.28v-2.42M322.5 152.57v2.42M327.84 237.53h-2.42M383.68 147.23h2.43M357.22 237.53h-2.92M356.97 2.05h-2.42M118.58 193.84h2.43M121.01 193.84v-2.43M121.01 191.41h-2.43M118.58 191.41v2.43M118.58 237.53h2.43M121.01 237.53v-2.42M121.01 235.11h-2.43M118.58 235.11v2.42M2.05 190.92h2.43M4.48 190.92v-2.42M4.48 188.5H2.05M2.05 188.5v2.42M2.05 205.49h2.43M4.48 205.49v-2.43M4.48 203.06H2.05M2.05 203.06v2.43M31.19 237.53h2.42M33.61 237.53v-2.42M33.61 235.11h-2.42M31.19 235.11v2.42M60.32 193.84h2.42M62.74 193.84v-2.43M62.74 191.41h-2.42M60.32 191.41v2.43M89.45 237.53h2.43M91.88 237.53v-2.42M91.88 235.11h-2.43M89.45 235.11v2.42M89.45 193.84h2.43M91.88 193.84v-2.43M91.88 191.41h-2.43M89.45 191.41v2.43M176.84 237.53h2.43M179.27 237.53v-2.42M179.27 235.11h-2.43M176.84 235.11v2.42M147.71 193.84h2.43M150.14 193.84v-2.43M150.14 191.41h-2.43M147.71 191.41v2.43M176.84 193.84h2.43M179.27 193.84v-2.43M179.27 191.41h-2.43M176.84 191.41v2.43M235.11 193.84h2.42M237.53 193.84v-2.43M237.53 191.41h-2.42M235.11 191.41v2.43M264.24 237.53h2.43M266.67 237.53v-2.42M266.67 235.11h-2.43M264.24 235.11v2.42M264.24 193.84h2.43M266.67 193.84v-2.43M266.67 191.41h-2.43M264.24 191.41v2.43M293.37 237.53h2.43M295.8 237.53v-2.42M295.8 235.11h-2.43M293.37 235.11v2.42M293.37 193.84h2.43M295.8 193.84v-2.43M295.8 191.41h-2.43M293.37 191.41v2.43M322.5 237.53h2.43M324.93 237.53v-2.42M324.93 235.11h-2.43M322.5 235.11v2.42M118.58 2.05h2.43M121.01 2.05v2.43M121.01 4.48h-2.43M118.58 4.48V2.05M2.05 145.28h2.43M4.48 145.28v-2.42M4.48 142.86H2.05M2.05 142.86v2.42M2.05 169.56h2.43M4.48 169.56v-2.43M4.48 167.13H2.05M2.05 167.13v2.43M2.05 72.46h2.43M4.48 72.46v-2.43M4.48 70.03H2.05M2.05 70.03v2.43M31.19 40.9h2.42M33.61 40.9v-2.43M33.61 38.47h-2.42M31.19 38.47v2.43M31.19 2.05h2.42M33.61 2.05v2.43M33.61 4.48h-2.42M31.19 4.48V2.05M60.32 2.05h2.42M62.74 2.05v2.43M62.74 4.48h-2.42M60.32 4.48V2.05M89.45 2.05h2.43M91.88 2.05v2.43M91.88 4.48h-2.43M89.45 4.48V2.05M147.71 2.05h2.43M150.14 2.05v2.43M150.14 4.48h-2.43M147.71 4.48V2.05M176.84 2.05h2.43M179.27 2.05v2.43M179.27 4.48h-2.43M176.84 4.48V2.05M205.98 2.05h2.42M208.4 2.05v2.43M208.4 4.48h-2.42M205.98 4.48V2.05M235.11 2.05h2.42M237.53 2.05v2.43M237.53 4.48h-2.42M235.11 4.48V2.05M264.24 2.05h2.43M266.67 2.05v2.43M266.67 4.48h-2.43M264.24 4.48V2.05M147.71 82.17h2.43M150.14 82.17v-2.43M150.14 70.03h-2.43M147.71 70.03v2.43M118.58 82.17h2.43M121.01 82.17v-2.43M121.01 70.03h-2.43M118.58 70.03v2.43M60.32 82.17h2.42M62.74 82.17v-2.43M62.74 70.03h-2.42M60.32 70.03v2.43M264.24 82.17h2.43M266.67 82.17v-2.43M266.67 70.03h-2.43M264.24 70.03v2.43M205.98 82.17h2.42M208.4 82.17v-2.43M208.4 70.03h-2.42M205.98 70.03v2.43M235.11 82.17h2.42M237.53 82.17v-2.43M237.53 70.03h-2.42M235.11 70.03v2.43M293.37 82.17h2.43M295.8 82.17v-2.43M295.8 70.03h-2.43M293.37 70.03v2.43M293.37 154.99h2.43M295.8 154.99v-2.42M295.8 142.86h-2.43M293.37 142.86v2.42M118.58 154.99h2.43M121.01 154.99v-2.42M121.01 142.86h-2.43M118.58 142.86v2.42M147.71 154.99h2.43M150.14 154.99v-2.42M150.14 142.86h-2.43M147.71 142.86v2.42M89.45 154.99h2.43M91.88 154.99v-2.42M91.88 142.86h-2.43M89.45 142.86v2.42M60.32 154.99h2.42M62.74 154.99v-2.42M62.74 142.86h-2.42M60.32 142.86v2.42M176.84 154.99h2.43M179.27 154.99v-2.42M179.27 142.86h-2.43M176.84 142.86v2.42M60.32 237.53h2.42M62.74 237.53v-2.42M62.74 235.11h-2.42M60.32 235.11v2.42M176.84 82.17h2.43M179.27 82.17v-2.43M179.27 70.03h-2.43M176.84 70.03v2.43M235.11 154.99h2.42M237.53 154.99v-2.42M237.53 142.86h-2.42M235.11 142.86v2.42M205.98 154.99h2.42M208.4 154.99v-2.42M208.4 142.86h-2.42M205.98 142.86v2.42M205.98 193.84h2.42M208.4 193.84v-2.43M208.4 191.41h-2.42M205.98 191.41v2.43M205.98 237.53h2.42M208.4 237.53v-2.42M208.4 235.11h-2.42M205.98 235.11v2.42M264.24 154.99h2.43M266.67 154.99v-2.42M266.67 142.86h-2.43M264.24 142.86v2.42M33.61 154.99v-2.42M33.61 142.86h-2.42M31.19 142.86v2.42M91.88 82.15v-2.41M91.88 70.03h-2.43M89.45 70.03v2.43M33.61 70.03h-2.42M31.19 70.03v2.43M2.05 40.9h2.43M4.48 40.9v-2.43M4.48 38.47H2.05M2.05 38.47v2.43M31.19 82.17h2.42M33.61 82.17v-2.43M147.71 79.74v2.43M118.58 79.74v2.43M60.32 79.74v2.43M264.24 79.74v2.43M205.98 79.74v2.43M235.11 79.74v2.43M293.37 79.74v2.43M176.84 79.74v2.43M89.45 79.74v2.41M31.19 79.74v2.43M33.61 72.46v-2.43M150.14 72.46v-2.43M121.01 72.46v-2.43M62.74 72.46v-2.43M266.67 72.46v-2.43M208.4 72.46v-2.43M237.53 72.46v-2.43M295.8 72.46v-2.43M179.27 72.46v-2.43M91.88 72.46v-2.43M295.8 145.28v-2.42M121.01 145.28v-2.42M150.14 145.28v-2.42M91.88 145.28v-2.42M62.74 145.28v-2.42M179.27 145.28v-2.42M237.53 145.28v-2.42M208.4 145.28v-2.42M266.67 145.28v-2.42M33.61 145.28v-2.42M293.37 152.57v2.42M118.58 152.57v2.42M147.71 152.57v2.42M89.45 152.57v2.42M60.32 152.57v2.42M176.84 152.57v2.42M235.11 152.57v2.42M205.98 152.57v2.42M264.24 152.57v2.42M31.19 152.57v2.42M31.19 193.84h2.42M33.61 193.84v-2.43M33.61 191.41h-2.42M31.19 191.41v2.43M235.11 237.53h2.42M237.53 237.53v-2.42M237.53 235.11h-2.42M235.11 235.11v2.42M293.37 4.48h2.43M295.8 4.48V2.05M295.8 2.05h-2.43M293.37 2.05v2.43M322.5 4.48h2.43M324.93 4.48V2.05M324.93 2.05h-2.43M322.5 2.05v2.43M325.42 4.97h2.42M327.84 4.97V2.05M327.84 2.05h-2.42M325.42 2.05v2.92M325.42 77.8h2.42M327.84 77.8v-3.4M327.84 74.4h-2.42M325.42 74.4v3.4M31.19 169.56h2.42M33.61 169.56v-2.43M33.61 167.13h-2.42M31.19 167.13v2.43M62.74 38.47h-2.42M60.32 38.47v2.43M60.32 40.9h2.42M62.74 40.9v-2.43"/>
  <path class="b" d="M235.11 152.27h-26.46M4.48 190.92h15.3M19.78 187.53H4.48M4.48 187.53v3.39M412.81 113.48v25.74M295.56 142.86v-.78M295.56 142.08h-1.95M293.61 142.08v.78M293.61 142.86h1.95M399.7 85.08h9.23M408.93 85.08v-1.46M408.93 83.62h-9.23M399.7 83.62v1.46M409.41 85.08h5.83M415.24 85.08v-1.46M415.24 83.62h-5.83M409.41 83.62v1.46M3.75 169.56v18.94M2.05 169.56v18.94M2.05 190.92h1.7M2.05 188.5h1.7M2.05 203.06h1.7M3.75 190.92v12.14M2.05 190.92v12.14M264.24 235.11h2.43M266.67 235.35v-.24M412.81 185.34h-26.7M386.11 234.62h-.98M386.11 187.04h-.98M386.11 220.06h-.98M32.64 151.35H2.05M3.75 152.57h-1.7M2.05 167.13h1.7M2.05 169.56h1.7M3.75 152.57v14.56M2.05 152.57v14.56M264.97 152.57v-7.29M394.41 113.48v.25M266.18 145.28v7.29M266.67 235.35h2.18M268.85 235.35v2.18M357.7 150.63h-.48M353.62 143.75h-1.4M353.62 150.55h-.92M357.46 150.63v-3.79M354.3 146.84h3.16M262.68 235.11v2.42M264.24 235.31h-1.56M385.13 187.04h-.43M386.11 113.73v-.25M384.31 92.12v1.46M32.64 149.7v1.65M2.05 149.7v1.65M354.3 146.6v.63M352.7 143.75v6.8M353.62 151.04v-7.29M19.78 187.53H4.48M19.78 190.92H4.48M4.48 187.53v3.39M416.94 186.55h-30.83M386.11 239.23v-52.68M.35 38.47h30.84M31.19.35v38.12M294.2 82.17h1.6M386.11 38.47h30.83M386.11.35v38.12M386.11 147.23v3.4M415.24 154.34v-6.07M415.24 171.58v6.06M386.11 147.23h-2.43M32.69 79.74h-1.5M409.41 85.08h5.83M409.41 83.62h5.83M399.7 85.08h9.23M408.93 83.62h-9.23M399.7 83.62v1.46M409.41 85.08v-1.46M408.93 85.08v-1.46M294.2 82.17v1.06M293.22 82.17v1.06M330.37 215.98h12.92M330.37 215.26h12.71M343.29 215.98l10.57-6.41M364.44 203.15l20.26-12.29M343.08 215.26l11.02-6.69M363.44 202.91l21.26-12.9M353.86 209.57l6.23 10.28M354.1 208.57l6.61 10.9M363.44 202.91l1.93 3.17M364.44 203.15l1.55 2.55M360.09 219.85l.62-.38M365.37 206.08l.62-.38M15.41 79.25h4.12M15.41 80.71h4.12M8.85 80.71v-1.7M11.04 79.25v1.46M10.31 79.01v1.7M11.04 79.25h3.88M8.85 80.71h1.46M11.04 80.71h3.88M14.92 80.71v-1.46M15.41 80.71v-1.46M10.31 79.01H8.85M23.32 79.25v1.46M20.02 80.71h3.3M20.02 79.25h3.3M20.02 80.71v-1.46M19.53 80.71v-1.46M19.78 190.92v-3.39M415.24 83.62v1.46M383.68 147.23v-.83M353.39 189.59h4.66M358.05 189.59v6.07M358.05 195.66h-4.66M353.39 195.66v-6.07M32.69 78.52v1.22M290.45 82.17h2.77M386.11 39.68h26.7M384.89 234.62v-11.17M384.89 220.06v-33.02M413.96 83.62v1.46M328.23 88.7h4.99M328.23 88.46h4.99M344.45 88.7V76.44M344.21 88.46V76.44M333.22 88.46v.24M337.59 88.46v.24M31.19 154.99v12.14M337.59 88.7h6.86M337.59 88.46h6.62M416.94 141.16v-29.62M415.24 38.47v5.82M415.24 63.59v8.38M415.24 49.88v8.13M235.11 152.57v-7.29M219.67 145.82v-.54M219.67 145.28h15.44M208.65 145.82v6.45M219.67 145.82h-11.02"/>
  <path class="c" d="M235.11 148.2v4.37M235.11 147.96v-2.67M235.11 146.55v-1.26M235.11 147.86h-21.15M23.9 111.54h-5.39M26.33 96.49H11.76M22.55 111.54v-7.4"/>
  <path class="d" d="M14.46 104.14v7.4M15.81 104.14v7.4"/>
  <path class="c" d="M11.76 103.89v-7.4M13.22 103.89v-7.4M14.68 103.89v-7.4M16.13 103.89v-7.4M17.59 103.89v-7.4"/>
  <path class="d" d="M17.16 104.14v7.4M18.51 104.14v7.4"/>
  <path class="c" d="M19.86 104.14v7.4M23.9 104.14v7.4M19.05 103.89v-7.4M26.33 103.89H10.46"/>
  <path class="d" d="M10.46 104.14h9.4M10.22 104.38h9.59"/>
  <path class="c" d="M26.57 104.38v-.73M26.57 103.65H10.22M21.21 104.14v7.4M20.5 103.89v-7.4M21.96 103.89v-7.4M23.42 103.89v-7.4M19.81 104.38h6.76M19.86 104.14h6.47"/>
  <path class="d" d="M18.51 111.54h-8.05M10.22 104.38v-.73M11.76 103.89v7.65"/>
  <path class="c" d="M24.87 103.89v-7.4"/>
  <path class="d" d="M13.11 104.14v7.4M10.46 103.89v8.62"/>
  <path class="c" d="M26.33 104.14v-8.62M235.11 146.55v-1.27M401.13 104.5h6.97M401.27 104.26h6.59M392.9 96.49h14.96M392.9 111.54h3.92M407.86 103.77H392.9M403.28 103.53h-10.62M401.06 103.77v-7.28M399.7 103.77v-7.28M398.34 103.77v-7.28M399.7 107.1v4.44M398.34 109.33v2.21M401.06 104.62v6.92M397.27 110.76v-6.26M398.73 108.36v-3.86M400.19 105.71v-1.21M396.98 103.77v-7.28M395.62 103.77v-7.28M394.26 103.77v-7.28M392.9 103.77v-8.25M392.9 103.77v.49M392.66 103.53v.97M394.36 111.54v-7.04M392.9 112.51v-8.01M395.82 111.54v-7.04M392.9 104.26h8.13M392.66 104.5h8.23M407.86 103.77v-8.25M406.5 103.77v-7.28M408.1 104.5v-.97M407.86 104.26v-.49M405.14 103.77v-7.28M403.78 103.77v-7.28M402.42 103.77v-7.28M408.1 103.53h-4.82M407.86 104.26v8.25M406.5 104.26v7.28M405.14 104.26v7.28M403.78 104.26v7.28M402.42 104.26v7.28M397.06 111.54h10.8"/>
  <path class="e" d="M235.11 148.15h-21.15M213.96 146.98h-3.98M209.57 151.89v-4.79M235.11 147.86h-20.86M214.25 148.15v4.42M213.96 147.86h-4.39M213.96 148.15v-2.38M214.25 147.86v-2.09M209.28 151.89v-4.71M215.46 148.15v4.42M216.69 148.15v4.42M217.91 148.15v4.42M219.14 148.15v4.42M220.37 148.15v4.42M221.6 148.15v4.42M222.83 148.15v4.42M224.05 148.15v4.42M225.28 148.15v4.42M226.51 148.15v4.42M227.74 148.15v4.42M228.97 148.15v4.42M231.42 148.15v4.42M232.65 148.15v4.42M233.88 148.15v4.42M209.57 146.86v-1.09M209.28 146.94v-1.17M230.19 148.15v4.42M213.96 146.11h-.93"/>
  <path class="c" d="M212.18 146.11h-2.61M19.86 104.14l-1.53 8.37M209.57 145.82v1.04M209.57 136.65v10.21M209.28 152.23v-5.05M214.25 147.56v-1.8M213.96 147.86v-6.7M214.25 141.16v-4.51M209.28 152.27v-5.09M213.96 145.14h-4.39M213.96 143.92h-4.39M214.25 145.52l-4.97 1.42M214.25 145.76l-4.97 1.42M214.25 145.52v-4.07M209.28 146.94v-1.12M209.57 147.1v5.13M209.57 147.1v5.17M209.28 146.94v-10.59M214.25 143.95h20.86M214.25 144.19h20.86M216.05 136.35h-6.77M216.05 141.45h-1.8M216.05 141.45v-.29M216.05 136.65h-6.48M216.05 141.16h-2.09M213.96 142.67h-4.39M215.81 141.16v-4.51M216.05 136.65v-.3"/>
  <path class="f" d="M36.32 102.98a3.53 3.53 0 0 0 2.49 1M38.81 104.01a3.53 3.53 0 0 0-3.52 3.52M378.51 102.36a3.22 3.22 0 0 0 2.28-.94M381.91 105.76a3.4 3.4 0 0 0-3.4-3.4M408.44 93.81a2.91 2.91 0 0 0-2.91-2.91M405.53 89.2a2.91 2.91 0 0 0 2.91-2.91M405.53 77.43a2.91 2.91 0 0 0 2.91-2.91M408.44 82.36a2.91 2.91 0 0 0-2.91-2.91M387.95 91.46a2.91 2.91 0 0 0-2.91-2.91M387.95 82.53a2.91 2.91 0 0 0-2.91-2.92M11.24 94.06a2.91 2.91 0 0 0-2.91-2.92M19.57 90.17a2.91 2.91 0 0 0 2.92-2.91M8.85 87.26a2.91 2.91 0 0 0 2.92 2.91M27.93 94.06a3.88 3.88 0 0 0-3.88-3.89M55.56 230.1a3.88 3.88 0 0 0-3.88-3.88M32.89 125.23a4.44 4.44 0 0 0-4.37 4.37M5.45 72.16a2.91 2.91 0 0 0 2.92 2.91M27.79 79.01a2.91 2.91 0 0 0 2.91 2.91M37.99 93.36a4.77 4.77 0 0 0-4.37-4.37M384.17 48.23a3.89 3.89 0 0 0 3.88-3.89M393.97 44.49a3.89 3.89 0 0 0 3.89 3.88M384.17 59a3.88 3.88 0 0 0 3.88-3.88M241.42 69.78a3.8 3.8 0 0 0-3.73-3.88.38.38 0 0 0-.15 0M239.99 53.77a4.31 4.31 0 0 0-4.48-3.18M238.87 47.21a4.3 4.3 0 0 0-4.48-3.17M233.51 34.97a4.11 4.11 0 0 0 3.88-3.89M237.39 29.58a4.21 4.21 0 0 0-3.88-3.89M250.16 34.19a3.94 3.94 0 0 0 3.88-3.83M255.5 30.36a4.17 4.17 0 0 0 3.89 3.88M264.92 31.13a4 4 0 0 0 3.88 3.89M250.24 50.99a4.24 4.24 0 0 0 3.88 3.88M250.24 65.85a3.79 3.79 0 0 0 3.7 3.88h.18M282.64 130.57a3.9 3.9 0 0 0 3.89-3.89"/>
  <path class="f" d="M286.53 126.68a3.81 3.81 0 0 0 3.74 3.89h.14M316.78 130.57a3.89 3.89 0 0 0 3.88-3.89"/>
  <path class="f" d="M320.66 126.68a3.81 3.81 0 0 0 3.74 3.89h.14M331.15 130.57a3.89 3.89 0 0 0 3.88-3.89"/>
  <path class="f" d="M335.03 126.68a3.81 3.81 0 0 0 3.74 3.89h.15M243.24 81.53a4.21 4.21 0 0 0-4-4.37h-.35M247.95 133.48a3.53 3.53 0 0 0-3.52-3.52"/>
  <path class="f" d="M244.43 129.96a3.45 3.45 0 0 0 3.52-3.39v-.13M266.18 155.62a3.5 3.5 0 0 0-3.4 3.4M266.18 166.5a3.49 3.49 0 0 0-3.4 3.4M248.32 189.75a4.2 4.2 0 0 0-3.89-3.88M247.95 173.93a3.52 3.52 0 0 0-3.52-3.52"/>
  <path class="f" d="M244.43 170.41a3.45 3.45 0 0 0 3.52-3.39v-.13M226.24 208.01a4.21 4.21 0 0 0 3.89-3.88M220.64 204.13a4.21 4.21 0 0 0 3.88 3.88M253.7 190.14a4.71 4.71 0 0 0-4.36 4.37M313.13 138.92a3.88 3.88 0 0 0-3.88 3.88"/>
  <path class="f" d="M309.24 142.8a3.81 3.81 0 0 0-3.74-3.88h-.14M272.32 142.8a4.07 4.07 0 0 0-3.74-4.37h-.62M297.16 216.89a3.6 3.6 0 0 0 3.88-3.32 2.62 2.62 0 0 0 0-.56M316.24 213.01a3.62 3.62 0 0 0 3.33 3.88 2.62 2.62 0 0 0 .56 0M332.07 147.63a3.76 3.76 0 0 0 3.88-3.67.74.74 0 0 0 0-.21M353.63 138.99a4 4 0 0 0-3.89 3.89M349.74 151.47a4 4 0 0 0 3.89 3.88M361.83 150.62a3.72 3.72 0 0 0-3.57-3.88h-.31M381.3 176.3a2.86 2.86 0 0 0-2.91 2.8v.12M374.6 139.36a4.37 4.37 0 0 0-4.37-4.37M378.97 134.99a4.28 4.28 0 0 0-4.37 4.2v.17M32.89 50.6A4.45 4.45 0 0 0 29 54.97M29 56.72a4.45 4.45 0 0 0 3.89 4.37M369.83 135.42a3.68 3.68 0 0 0-3.67-3.69"/>
  <path class="f" d="M366.15 131.73a3.62 3.62 0 0 0 3.69-3.55v-.14M364.89 74.98a4.45 4.45 0 0 0 4.37-4.37M272.3 187.86a4.19 4.19 0 0 0-3.88 3.88M278.52 170.14a4.72 4.72 0 0 0-4.37-4.37M274.15 176.3a4.19 4.19 0 0 0 3.88-3.88M243.56 160.62a4.29 4.29 0 0 0-4.37 4.21v.16M211.24 164.85a4.29 4.29 0 0 0-4.21-4.37h-.16M245.65 85.68a3.53 3.53 0 0 0 3.52-3.52"/>
  <path class="f" d="M249.17 82.16a3.45 3.45 0 0 0 3.38 3.52h.14M370.09 66.87a4.37 4.37 0 0 0-4.37-4.37"/>
  <path class="b" d="M39.44 155.24h-6.31"/>
  <path class="f" d="M26.09 70.75a3.64 3.64 0 0 0 3.64 3.61M333.46 92.58a3.89 3.89 0 0 0 3.89-3.88"/>
  <path class="b" d="M33.13 154.99v.25M33.13 166.89v.24"/>
  <path class="f" d="M33.62 161.06a5.83 5.83 0 0 0 5.82-5.83M39.44 166.89a5.83 5.83 0 0 0-5.82-5.83"/>
  <path class="b" d="M272.57 143.27h.85"/>
  <path class="f" d="M394.85 123.29v-5.83M395.33 123.29v-5.83M395.33 122.56h-.48M395.33 118.19h-.48M394.85 120.28h.24M395.09 118.19v4.37M395.33 120.47h-.24M394.85 135.23v-5.83M395.33 135.23v-5.83M395.33 134.5h-.48M395.33 130.13h-.48M394.85 132.22h.24M395.09 130.13v4.37M395.33 132.42h-.24M394.85 123.29v-5.83M395.33 123.29v-5.83M395.33 122.56h-.48M395.33 118.19h-.48M394.85 120.28h.24M395.09 118.19v4.37M395.33 120.47h-.24M394.85 135.23v-5.83M395.33 135.23v-5.83M395.33 134.5h-.48M395.33 130.13h-.48M394.85 132.22h.24M395.09 130.13v4.37M395.33 132.42h-.24M38.81 100.25h.48M38.81 100.49h.48M38.81 107.78h.48M35.29 107.53h4M38.81 107.78v-.25M38.81 100.49v-.24M39.29 107.78v-.25M39.29 100.49v-.24M36.32 102.98l2.49-2.49M380.88 101.33l-2.25-2.49M378.63 98.84h-.49M381.91 105.88h-3.77M378.63 106.13v-.25M378.63 98.84v-.24M378.14 98.84v-.17M34.22 203.06v-.6M33.61 152.57v-2.43M405.04 86.29h3.4M405.04 82.41h3.4M405.04 74.52h3.4M385.04 88.31h-.73M385.04 91.71h-.73M405.04 77.43h.49M405.04 79.49h.49M405.04 89.21h.49M405.04 90.9h.49M383.68 44.35h4.37M383.68 48.23h.48M393.97 44.49h4.37M398.34 48.38h-.48M388.05 55.13h-3.89M365.71 62.51v-.25M365.23 66.87h4.85M378.97 134.99v4.86M370.23 139.85v-4.86M369.83 135.43h-4.46M369.84 128.05h-4.47M233.5 25.7h-.48M237.39 29.58h-4.37M233.02 34.97h.48M233.02 31.09h4.37M254.04 30.31v-.48M250.16 29.83v4.37M255.5 30.31v-.48M259.38 29.83v4.37M264.92 31.14h4.37M268.8 35.02h.49M234.56 47.95l.04.24M235.04 47.87l.04.24M254.58 69.74h-.49M254.58 65.85h-4.37M254.58 54.88h-.49M254.58 50.99h-4.37M237.05 69.78h4.37M237.05 65.9h.48M235.03 50.68l.48-.08M233.9 44.12l.48-.08M235.68 54.51l4.31-.74M331.14 125.91v4.66M338.91 125.91v4.66M282.64 130.57v-4.66M290.41 130.57v-4.66M243.26 82.17v-.64M238.89 82.17v-5.01M252.68 81.53v4.16M245.64 81.53v4.16M243.94 133.49h4.01M243.94 126.45h4.01M305.36 138.92v4.81M313.13 138.92v4.81M267.95 138.44v5.29M272.32 142.81v.92M266.86 159.02h-4.08M266.18 155.63h.68M266.86 169.9h-4.08M266.18 166.5h.68M274.14 165.77h-.48M278.51 170.14h-4.85M273.66 172.43h4.37M273.66 176.31h.48M272.3 187.87v4.36M268.41 191.75v.48M253.7 190.15V195M249.33 194.52v.48M248.31 189.76h-4.8M244.43 185.87h-.92M243.51 185.87v-.24M247.95 173.93h-4.25M243.7 166.89h4.25M230.15 203.64v.49M226.27 203.64v4.37M224.52 203.64v4.37M220.64 203.64v.49M297.16 216.9v-4.37M301.04 212.53v.49M320.12 216.9v-4.37M316.24 212.53v.49M332.07 147.64v-4.49M335.95 143.15v.6M354.23 155.36h-.61M354.23 151.47h-4.49M354.3 139h-.68M354.3 142.88h-4.56M357.95 146.74v4.49M361.83 150.63v.6M378.39 179.22h3.52M381.3 176.31h.61M33.61 61.09h-.73M33.61 56.72h-.73M33.61 54.98h-.73M32.88 50.61h.73M7.88 94.3h.49M7.88 90.91h.49M7.88 94.3v-.24M7.88 91.15v-.24M8.61 86.78v.48M12.01 86.78v.48M8.61 86.78h.24M11.76 86.78h.25M8.61 87.26h.24M11.76 87.26h.25M19.33 86.78v.48M22.73 86.78v.48M19.33 86.78h.24M22.49 86.78h.24M19.33 87.26h.24M22.49 87.26h.24M8.37 94.3v-.24M8.37 91.15v-.24M19.57 86.78v3.4M11.76 86.78v3.4M23.32 94.3h.73M23.32 94.3v-.24M23.32 90.18v-.25M24.05 94.3v-.24M24.05 90.18v-.25M32.69 93.58h.92M32.69 88.72h.92M32.69 93.58v-.25M32.69 88.96v-.24M33.61 93.58v-.25M33.61 88.96v-.24M51.67 230.93v-4.71M51.43 230.11v.82M55.56 230.11v.82M55.8 230.11v.82M33.61 129.6h-5.1M33.61 125.23h-.73M16.13 75.61h.49M8.85 75.32v-.24M8.85 72.16v-.24M8.37 75.32v-.24M8.37 72.16v-.24M5.45 72.16h3.4M8.37 75.08h.48M29.73 70.03v4.37M32.88 56.48v.24M32.88 61.09v.25M32.88 55.22v-.24M32.88 50.61v-.25M26.09 70.03v.73M26.09 70.76h-.25M29.73 70.76h.24M7.88 94.06h3.4M27.54 78.52v.49M30.94 78.52v.49M30.7 81.92v-3.4M27.79 79.01v-.49M23.32 94.06h4.61M363.97 70.61h5.29M363.97 74.98h.92M32.88 125.23v-.24M33.61 125.23v-.24M32.88 129.6v.24M33.61 129.6v.24M384.16 59.01h-.48M384.16 59.01v.24M383.68 59.01v.24M244.43 165h-5.24M244.43 160.63h-.87M205.98 164.85h5.24M205.98 160.48h.87M397.86 44.49v-.24M398.34 44.49v-.24M398.34 48.62v-.24M397.86 48.62v-.24M365.23 62.51v-.25M365.71 67.12v-.25M364.89 70.61v-.24M363.97 70.61v-.24M363.97 74.98v.24M364.89 74.98v.24M366.15 128.05v-.24M365.37 128.05v-.24M282.4 125.91h.24M282.4 126.69h.24M290.41 125.91h.24M290.41 126.69h.24M316.53 126.69h.24M316.53 125.91h.24M324.54 125.91h.24M324.54 126.69h.24M330.9 125.91h.24M331.14 126.69h-.24M338.91 125.91h.25M338.91 126.69h.25M252.68 82.17h.25M252.93 81.53h-.25M245.64 82.17h-.24M245.4 81.53h.24M243.51 82.17h-.25M243.26 81.53h.25M238.89 82.17h-.24M238.65 81.53h.24M237.05 69.78v.25M237.53 69.78v.25M237.05 65.9v-.24M237.53 65.66v.24M235.72 54.75l-.04-.24M236.2 54.67l-.04-.24M235.03 50.68l-.04-.24M235.51 50.6l-.05-.24M233.9 44.12l-.04-.24M234.38 44.04l-.04-.24M233.02 35.22v-.25M233.5 35.22v-.25M233.02 31.09v-.24M233.5 31.09v-.24M233.5 29.58v.25M233.02 29.58v.25M233.5 25.7v-.24M233.02 25.46v.24M249.92 29.83h.24M250.16 30.31h-.24M254.04 29.83h.25M254.29 30.31h-.25M255.5 30.31h-.24M255.26 29.83h.24M259.38 29.83h.25M259.38 30.31h.25M269.29 31.14v-.25M268.8 31.14v-.25M269.29 35.02v.24M268.8 35.02v.24M254.58 50.75v.24M254.09 50.75v.24M254.09 54.88v.24M254.58 54.88v.24M254.58 65.61v.24M254.09 65.61v.24M254.09 69.74v.24M254.58 69.74v.24M243.94 126.2v.25M244.43 126.2v.25M244.43 133.49v.24M243.94 133.49v.24M243.56 160.38l-.01.25M244.43 160.38v.25M243.56 165.24V165M244.43 165.24V165M243.7 166.89v-.24M244.43 166.89v-.24M243.7 173.93v.24M244.43 173.93v.24M244.43 185.87v-.24M243.51 189.76v.24M244.43 189.76v.24M220.4 203.64h.24M220.4 204.13h.24M224.52 203.64h.25M224.52 204.13h.25M226.03 203.64h.24M226.03 204.13h.24M230.15 203.64h.25M230.15 204.13h.25M249.09 194.52h.24M249.09 195h.24M253.7 194.52h.25M253.7 195h.25M268.17 191.75h.24M268.17 192.23h.24M272.3 191.75h.24M272.3 192.23h.24M273.66 176.55v-.24M274.14 176.31v.24M273.66 172.18v.25M274.14 172.18v.25M274.14 170.14v.25M273.66 170.14v.25M273.66 165.77v-.24M274.14 165.77v-.24M266.86 166.5v-.24M266.18 166.5v-.24M266.86 169.9v.24M266.18 169.9v.24M266.18 155.63v-.25M266.86 155.63v-.25M266.18 159.02v.25M266.86 159.02v.25M267.95 142.81h-.24M267.95 143.73h-.24M272.32 142.81h.25M272.32 143.73h.25M305.36 142.81h-.24M305.36 143.73h-.24M313.13 142.81h.24M313.13 143.73h.24M301.28 212.53h-.24M297.16 212.53h-.25M301.28 213.02h-.24M297.16 213.02h-.25M320.37 212.53h-.25M316.24 212.53H316M320.37 213.02h-.25M316.24 213.02H316M354.23 155.36v.24M353.62 155.36v.24M353.62 151.47v-.24M354.23 151.47v-.24M331.82 143.15h.25M331.82 143.75h.25M335.95 143.15h.24M335.95 143.75h.24M353.62 139v-.25M354.3 139v-.25M353.62 142.88v.24M354.3 142.88v.24M357.95 150.63h-.25M357.95 151.23h-.25M362.07 150.63l-.24-.01M362.07 151.23h-.24M370.23 139.36h-.24M370.23 139.85h-.24M379.21 139.36h-.24M379.21 139.85h-.24M365.37 135.43v.24M366.15 135.43v.24M381.91 176.31v-.24M381.3 176.31v-.24M381.3 179.22v.25M381.91 179.22v.25M383.68 44.1v.25M384.16 44.1v.25M384.16 48.23v.24M383.68 48.23v.24M205.98 160.48v-.24M206.85 160.48v-.24M206.85 164.85v.24M205.98 164.85v.24M405.04 93.82h3.4M51.43 230.11h.24M55.56 230.11h.24M51.43 230.93h.24M55.56 230.93h.24M32.69 93.33h5.29M32.69 88.96h.92M23.32 90.18h.73M22.49 86.78v.48M7.88 91.15h.49M8.85 86.78v.48M29.73 70.03h.24M25.84 70.03h.25M27.54 79.01h.25M30.7 79.01h.24M27.54 78.52h.25M30.7 78.52h.24M33.61 61.34v-.25M33.61 56.72v-.24M33.61 55.22v-.24M33.61 50.61v-.25M387.95 91.46h-3.64M385.04 88.55h-.73M385.04 91.46v.25M384.31 91.71v-.25M384.31 88.55v-.24M385.04 88.31v.24M384.31 79.37v.25M384.31 79.62h.73M385.04 79.62v-.25M385.04 82.77v-.24M387.95 82.53h-3.64M384.31 82.53v.24M405.04 86.05v.24M405.04 89.21v.24M405.53 86.05v.24M405.53 89.21v.24M405.04 90.66v.24M405.04 93.82v.24M405.53 90.66v.24M405.53 93.82v.24M405.04 79.25v.24M405.04 82.41v.24M405.53 82.65v-.24M405.53 79.49v-.24M405.53 77.68v-.25M405.53 74.52v-.24M405.04 77.68v-.25M405.04 74.52v-.24M235.04 47.87l3.83-.66M316.77 130.57v-4.66M324.54 130.57v-4.66M32.88 54.98H29M32.88 56.72H29M378.63 98.6v.24M378.63 98.84h-.49M378.14 98.84v-.24M378.14 105.88v.25M378.63 106.13v-.25M234.56 47.95l.48-.08M39.44 166.89h-6.31M273.42 142.81v.92M272.57 142.81h1.09M272.57 143.73h1.09M272.57 142.81v.92M365.71 62.51h-.48M365.23 67.12v-.25M384.16 55.13h-.48M384.16 55.13v-.25M383.68 55.13v-.25M337.34 88.7h.25M337.34 88.46h.25M333.46 88.46v4.13M337.34 88.46v.24M23.9 173.78v5.83M333.22 88.7h.24M333.22 88.46h.24M24.15 174.51v4.37M24.39 173.78v5.83M22.99 151.35v16.27M22.99 166.02h.43M22.99 165.77h.43M22.99 154.61h.43M22.99 154.36h.43M23.42 165.77H29M23.42 154.61l3.49 4.35M23.42 151.37v16.25M20.26 193.35v5.83M19.78 199.18v-5.83M19.78 194.08h.48M19.78 198.45h.48M20.02 198.45v-4.37M23.9 173.78v5.83M23.42 179.61v-5.83M23.42 174.51h.48M23.42 178.88h.48M23.66 178.88v-4.37M29 165.77a5.58 5.58 0 0 0-5.58-5.58M23.42 160.19a5.6 5.6 0 0 0 3.49-1.23M19.78 193.35v5.83M20.26 193.35v5.83M19.78 194.08h.48M19.78 198.45h.48M19.78 196.39h.24M20.02 194.08v4.37M23.9 174.51h.49M23.9 178.88h.49M24.15 176.61h.24M23.9 176.8h.25M384.41 44.1v4.37"/>
  <path class="g" d="M293.61 142.86l.29-.5 1.66-.28h-1.95v.78"/>
  <path class="c" d="M394.24 51.36a1.21 1.21 0 1 1 1.21 1.22 1.21 1.21 0 0 1-1.21-1.22zM318.86 74.42a1.22 1.22 0 1 1 1.22 1.21 1.22 1.22 0 0 1-1.22-1.21zM213.94 40.29a1.22 1.22 0 1 1 1.21 1.21 1.22 1.22 0 0 1-1.21-1.21zM256.87 145.27a1.22 1.22 0 1 1 1.21 1.21 1.22 1.22 0 0 1-1.21-1.21zM244.4 197.25a1.22 1.22 0 1 1 1.21 1.21 1.22 1.22 0 0 1-1.21-1.21zM362.71 145.22a1.22 1.22 0 1 1 1.21 1.21 1.22 1.22 0 0 1-1.21-1.21zM22.47 67.88a1.22 1.22 0 1 1 1.21 1.21 1.21 1.21 0 0 1-1.21-1.21z"/>
  <path class="c" d="M319.89 74.42a.18.18 0 0 1 .19-.19.19.19 0 1 1 0 .37.18.18 0 0 1-.19-.18zM214.97 40.29a.19.19 0 0 1 .18-.18.18.18 0 1 1 0 .36.19.19 0 0 1-.18-.18zM245.44 197.25a.17.17 0 0 1 .17-.18.18.18 0 0 1 .18.18.18.18 0 0 1-.18.17.17.17 0 0 1-.17-.17zM23.56 67.88a.12.12 0 0 1 .12-.12.12.12 0 1 1 0 .24.12.12 0 0 1-.12-.12zM395.24 51.36a.24.24 0 0 1 .48 0 .24.24 0 0 1-.48 0zM257.96 145.27a.12.12 0 0 1 .12-.12.12.12 0 0 1 0 .24.12.12 0 0 1-.12-.12zM363.8 145.22a.12.12 0 0 1 .24 0 .12.12 0 0 1-.24 0z"/>
  <path class="h" d="M7.88 89.67v-1.96"/>
  <path class="c" d="M384.41 49.93h13.2M322.5 72.94h-13.35M309.15 72.94v2.91M213.17 41.82h7.28M220.45 41.82v-2.91M264.24 146.64h-8.11M244.14 195.39v8.25M362.46 150.63v-13.09M22.15 61.82v8.21M22.15 61.82h2.92M213.17 41.82v-2.91M14.01 77.74h.08M14.14 77.69v-.08M14.01 77.56h.08M13.96 77.61v.08M14.78 78.38h-1.46M14.78 78.38v-.69M13.32 78.38v-.69M14.24 76.94a.21.21 0 0 0-.29 0M14.48 77.86l.12-.05M13.41 77.26a.88.88 0 0 0-.08.42M13.65 76.9a1.13 1.13 0 0 0-.24.36M14.41 77.93a.74.74 0 0 0 .29-.12M13.63 77.86a1.75 1.75 0 0 0 .85 0M14.7 77.26a1.13 1.13 0 0 0-.24-.36M13.51 77.81l.12.05M13.7 77.93a2.12 2.12 0 0 0 .71 0M13.5 77.55a.28.28 0 0 0 0 .22M13.91 76.94a1.69 1.69 0 0 0-.41.61M14.61 77.77a.28.28 0 0 0 0-.22M13.33 77.68a.22.22 0 0 0 .08.13M13.41 77.81a.74.74 0 0 0 .29.12M14.61 77.55a1.69 1.69 0 0 0-.41-.61M13.39 77.57a.26.26 0 0 0 .12.24M14.46 76.9a.55.55 0 0 0-.8 0M14.6 77.81a.26.26 0 0 0 .12-.24M14.45 76.93a.54.54 0 0 0-.4-.17M14.72 77.57a1.23 1.23 0 0 0-.27-.64M14.05 76.76a.54.54 0 0 0-.39.17M13.66 76.93a1.23 1.23 0 0 0-.27.64M13.96 77.68a.06.06 0 0 0 .06.06M14.09 77.74a.06.06 0 0 0 .06-.06M14.02 77.55a.06.06 0 0 0-.06.06M14.15 77.61a.06.06 0 0 0-.06-.06M14.7 77.81a.22.22 0 0 0 .08-.13M14.78 77.68a.88.88 0 0 0-.08-.42M14.05 78.04a.1.1 0 0 0-.08.1.09.09 0 0 0 .08.09.09.09 0 0 0 .09-.09.1.1 0 0 0-.09-.1zM21.22 78.38h2.62M23.84 78.38v-1.11M21.22 78.38v-1.11M22.94 78.38h-.82M22.75 77.49h-.14M22.53 77.71v-.14M22.45 77.49h-.14M22.53 77.41v-.14M21.38 77.2a1.17 1.17 0 0 0 .46.55M21.84 77.75a1.2 1.2 0 0 0 .69.16M23.24 77.75a1.21 1.21 0 0 0 .45-.55M22.53 77.91a1.21 1.21 0 0 0 .7-.16M22.44 76.36a2.1 2.1 0 0 0-.79.21M23.84 77.26a.64.64 0 0 0-.25-.54M22.62 76.36h-.18M21.8 77.71a5.17 5.17 0 0 0 1.47 0M23.4 78.16a1.67 1.67 0 0 0 .38-1.07M22.53 78.36a3.08 3.08 0 0 0 .75-.08M23.24 78.24a.2.2 0 0 0 .12-.08M22.53 78.22a4.52 4.52 0 0 0 .74-.06M23.41 78.09a1.51 1.51 0 0 0 .37-1M23.24 78.16a.21.21 0 0 0 .14-.07M21.29 77.09a1.51 1.51 0 0 0 .37 1M21.29 77.09a1.7 1.7 0 0 0 .37 1.08M21.79 78.16a4.71 4.71 0 0 0 .74.06M21.78 78.24a3.19 3.19 0 0 0 .75.08M21.66 78.09a.19.19 0 0 0 .13.07M21.66 78.17a.29.29 0 0 0 .12.07M21.47 76.72a.66.66 0 0 0-.25.54M21.65 76.6a.71.71 0 0 0-.18.12M23.59 76.72a.66.66 0 0 0-.17-.12M23.42 76.6a2.21 2.21 0 0 0-.8-.21M22.89 76.57a1.46 1.46 0 0 0-.72 0M21.52 76.87a.38.38 0 0 0-.14.33M22.17 76.57a1.44 1.44 0 0 0-.65.3M23.68 77.2a.4.4 0 0 0-.13-.33M23.55 76.87a1.47 1.47 0 0 0-.66-.3M22.36 77.48a.18.18 0 0 1 .17-.17.17.17 0 0 1 .17.17.16.16 0 0 1-.17.17.17.17 0 0 1-.17-.17z"/>
  <path class="c" d="M22.41 77.48a.13.13 0 0 1 .12-.12.12.12 0 0 1 .12.12.12.12 0 0 1-.12.13.13.13 0 0 1-.12-.13zM32.39 76.72v-2.43M30.82 76.37h1.19M32.39 74.29h-1.94M30.45 74.29v2.43M30.45 76.72h1.94M30.58 74.69v1.64M30.77 76.55h1.29M32.06 74.46h-1.29M32.25 76.33v-1.64M30.72 74.76v1.49M32.11 76.25v-1.49M32.01 74.64h-1.19"/>
  <path class="i" d="M31.95 75.61"/>
  <path class="c" d="M31.95 75.69v-.13M31.81 75.51h.1M31.95 75.33v.13M32.09 75.51h-.1M30.78 74.46a.22.22 0 0 0-.2.22M32.24 74.68a.22.22 0 0 0-.2-.22M32.06 76.55a.22.22 0 0 0 .18-.19M30.58 76.36a.22.22 0 0 0 .2.23M30.73 76.25c0 .06 0 .12.09.12M32.01 76.36a.11.11 0 0 0 .1-.12M32.11 74.76c0-.07 0-.12-.1-.12M30.82 74.64s-.09.05-.09.12M31.95 75.36a.12.12 0 0 0-.11.13.11.11 0 1 0 .22 0 .12.12 0 0 0-.11-.13z"/>
  <path class="c" d="M31.95 75.36a.1.1 0 0 0-.08.1.09.09 0 0 0 .08.1s.08 0 .08-.1a.09.09 0 0 0-.08-.1zM4.41 82.33v1.71M4.33 81.58h1.85M4.33 81.58v.65M5.25 82.63h.69M4.41 84.04l.16-1.41M5.25 82.63h-.68M6.1 84.04l-.16-1.41M4.45 84.04l.16-1.41M6.06 84.04l-.16-1.41M6.1 82.33v1.71M6.18 81.58v.65M4.41 84.04l.02.19M4.43 84.23l.07.18M4.5 84.41l.12.16M4.62 84.57l.15.13M4.77 84.7l.18.08M4.95 84.78l.2.05M5.15 84.83h.21M5.36 84.83l.2-.05M5.56 84.78l.18-.08M5.74 84.7l.15-.13M5.89 84.57l.12-.16M6.01 84.41l.07-.18M6.08 84.23l.02-.19M4.45 84.04l.02.18M4.47 84.22l.07.17M4.54 84.39l.11.15M4.65 84.54l.15.12M4.8 84.66l.17.08M4.97 84.74l.19.05M5.16 84.79h.19M5.35 84.79l.19-.05M5.54 84.74l.17-.08M5.71 84.66l.15-.12M5.86 84.54l.11-.15M5.97 84.39l.07-.17M6.04 84.22l.02-.18M4.43 82.36a7.59 7.59 0 0 0 1.65 0M4.33 82.22a.12.12 0 0 0 .1.11M6.08 82.36a.11.11 0 0 0 .1-.11M5.24 81.89a.09.09 0 1 0 .09.09.09.09 0 0 0-.09-.09zM17.82 78.38h2.62M20.44 78.38v-1.11M17.82 78.38v-1.11M19.54 78.38h-.82M19.35 77.49h-.14M19.13 77.71v-.14M19.05 77.49h-.14M19.13 77.41v-.14M17.98 77.2a1.17 1.17 0 0 0 .46.55M18.44 77.75a1.2 1.2 0 0 0 .69.16M19.83 77.75a1.15 1.15 0 0 0 .45-.55M19.13 77.91a1.21 1.21 0 0 0 .7-.16M19.04 76.36a2.21 2.21 0 0 0-.79.21M20.45 77.26a.69.69 0 0 0-.25-.54M19.24 76.36h-.2M18.4 77.71a5.17 5.17 0 0 0 1.47 0M20.01 78.16a1.72 1.72 0 0 0 .37-1.07M19.13 78.36a3.08 3.08 0 0 0 .75-.08M19.88 78.24a.26.26 0 0 0 .13-.08M19.13 78.22a4.52 4.52 0 0 0 .74-.06M20.01 78.09a1.51 1.51 0 0 0 .37-1M19.87 78.16a.19.19 0 0 0 .14-.07M17.89 77.09a1.51 1.51 0 0 0 .37 1M17.89 77.09a1.7 1.7 0 0 0 .37 1.08M18.4 78.16a4.52 4.52 0 0 0 .74.06M18.39 78.24a3.08 3.08 0 0 0 .75.08M18.24 78.09a.19.19 0 0 0 .14.07M18.24 78.17a.33.33 0 0 0 .13.07M18.07 76.72a.66.66 0 0 0-.25.54M18.24 76.6a.71.71 0 0 0-.18.12M20.24 76.72a.94.94 0 0 0-.18-.12M20.02 76.6a2.21 2.21 0 0 0-.78-.24M19.49 76.57a1.46 1.46 0 0 0-.72 0M18.12 76.87a.44.44 0 0 0-.14.33M18.77 76.57a1.44 1.44 0 0 0-.65.3M20.24 77.2a.4.4 0 0 0-.13-.33M20.15 76.87a1.47 1.47 0 0 0-.66-.3M18.96 77.48a.18.18 0 0 1 .17-.17.17.17 0 0 1 .17.17.16.16 0 0 1-.17.17.17.17 0 0 1-.17-.17z"/>
  <path class="c" d="M19.01 77.48a.13.13 0 0 1 .12-.12.13.13 0 0 1 .13.12.13.13 0 0 1-.13.13.13.13 0 0 1-.12-.13zM10.94 77.74h.08M11.07 77.69v-.08M10.94 77.56h.08M10.89 77.61v.08M11.71 78.38h-1.46M11.71 78.38v-.69M10.25 78.38v-.69M11.12 76.94a.19.19 0 0 0-.28 0M11.4 77.86l.13-.05M10.34 77.26a1 1 0 0 0-.09.42M10.58 76.9a.88.88 0 0 0-.24.36M11.34 77.93a.7.7 0 0 0 .28-.12M10.56 77.86a1.71 1.71 0 0 0 .84 0M11.62 77.26a1 1 0 0 0-.24-.36M10.43 77.81l.13.05M10.62 77.93a2.18 2.18 0 0 0 .72 0M10.42 77.55a.41.41 0 0 0 0 .22M10.84 76.94a1.85 1.85 0 0 0-.42.61M11.54 77.77a.41.41 0 0 0 0-.22M10.24 77.68a.22.22 0 0 0 .08.13M10.33 77.81a.81.81 0 0 0 .29.12M11.54 77.55a1.85 1.85 0 0 0-.42-.61M10.31 77.57a.29.29 0 0 0 .12.24M11.38 76.9a.55.55 0 0 0-.8 0M11.53 77.81a.25.25 0 0 0 .11-.24M11.37 76.93a.52.52 0 0 0-.39-.17M11.64 77.57a1.15 1.15 0 0 0-.27-.64M10.98 76.76a.52.52 0 0 0-.39.17M10.59 76.93a1.24 1.24 0 0 0-.28.64M10.89 77.68a.06.06 0 0 0 .05.06M11.02 77.74a.06.06 0 0 0 0-.06M10.94 77.55a.06.06 0 0 0-.05.06M11.07 77.61a.06.06 0 0 0 0-.06M11.62 77.81a.2.2 0 0 0 .09-.13M11.71 77.68a1 1 0 0 0-.09-.42M10.98 78.04a.1.1 0 0 0-.09.1.09.09 0 1 0 .18 0 .1.1 0 0 0-.09-.1zM7.29 80.29H4.78M7.29 76.5H4.78M4.12 77.15v2.49M7.95 77.15v2.49M5.25 79.42h-.17M4.93 79.42h-.17M5.01 79.66v-.17M5.01 79.34v-.17M3.85 76.34v4.12M8.11 80.56H3.96M8.22 76.34v4.12M8.11 76.23H3.96M8.11 80.56a.11.11 0 0 0 .11-.11M7.29 80.29a.65.65 0 0 0 .66-.65M8.24 76.36a.11.11 0 0 0-.11-.11M7.95 77.14a.66.66 0 0 0-.66-.65M3.85 80.45a.11.11 0 0 0 .11.11M4.13 79.64a.65.65 0 0 0 .65.65M3.96 76.22a.11.11 0 0 0-.11.11M4.78 76.49a.66.66 0 0 0-.65.65M5.14 79.41a.13.13 0 0 0-.13-.13.13.13 0 0 0-.14.13.14.14 0 0 0 .14.14.13.13 0 0 0 .13-.14z"/>
  <path class="c" d="M5.24 79.41a.2.2 0 0 0-.19-.19.19.19 0 0 0-.19.19.18.18 0 0 0 .19.19.19.19 0 0 0 .19-.19zM9.44 82.33v1.71M9.36 81.58h1.85M9.36 81.58v.65M10.29 82.63h.68M9.44 84.04l.16-1.41M10.29 82.63H9.6M11.14 84.04l-.17-1.41M9.48 84.04l.17-1.41M11.09 84.04l-.16-1.41M11.14 82.33v1.71M11.21 81.58v.65M9.44 84.04l.02.19M9.46 84.23l.07.18M9.53 84.41l.12.16M9.65 84.57l.15.13M9.8 84.7l.19.08M9.99 84.78l.19.05M10.18 84.83h.21M10.39 84.83l.2-.05M10.59 84.78l.18-.08M10.77 84.7l.15-.13M10.92 84.57l.12-.16M11.04 84.41l.07-.18M11.11 84.23l.03-.19M9.48 84.04l.02.18M9.5 84.22l.07.17M9.57 84.39l.11.15M9.68 84.54l.15.12M9.83 84.66l.17.08M10 84.74l.19.05M10.19 84.79h.19M10.38 84.79l.19-.05M10.57 84.74l.18-.08M10.75 84.66l.14-.12M10.89 84.54l.11-.15M11 84.39l.07-.17M11.07 84.22l.02-.18M9.46 82.36a7.68 7.68 0 0 0 1.66 0M9.37 82.22a.11.11 0 0 0 .09.11M11.12 82.36a.11.11 0 0 0 .09-.11M10.29 81.89a.09.09 0 1 0 .09.09.09.09 0 0 0-.09-.09zM13.81 81.85h2.51M13.81 85.65h2.51M16.98 85v-2.5M13.15 85v-2.5M15.85 82.73h.17M16.17 82.73h.17M16.1 82.48v.17M16.1 82.8v.18M17.25 85.81v-4.12M12.99 81.58h4.15M12.88 85.81v-4.12M12.99 85.92h4.15M12.99 81.58a.11.11 0 0 0-.11.11M13.81 81.85a.65.65 0 0 0-.65.65M12.88 85.81a.1.1 0 0 0 .11.1M13.16 84.99a.65.65 0 0 0 .65.65M17.24 81.69a.11.11 0 0 0-.11-.11M16.98 82.5a.65.65 0 0 0-.66-.65M17.14 85.91a.1.1 0 0 0 .11-.1M16.32 85.64a.65.65 0 0 0 .66-.65M16.24 82.72a.13.13 0 0 0-.13-.13.13.13 0 0 0-.14.13.14.14 0 0 0 .14.14.13.13 0 0 0 .13-.14z"/>
  <path class="c" d="M16.29 82.72a.2.2 0 0 0-.19-.19.19.19 0 0 0-.19.19.18.18 0 0 0 .19.19.19.19 0 0 0 .19-.19zM28.76 86.34h2.62M31.38 86.34v1.11M28.76 86.34v1.11M30.48 86.34h-.82M30.29 87.23h-.14M30.07 87.01v.14M29.99 87.23h-.14M30.07 87.31v.14M29.37 86.96a1.21 1.21 0 0 0-.45.55M30.07 86.8a1.23 1.23 0 0 0-.7.16M31.24 87.51a1.21 1.21 0 0 0-.45-.55M30.77 86.96a1.23 1.23 0 0 0-.7-.16M29.18 88.11a2.21 2.21 0 0 0 .8.21M31.13 87.99a.64.64 0 0 0 .25-.54M29.98 88.36a.54.54 0 0 0 .18 0M30.8 87a5.1 5.1 0 0 0-1.46 0M31.31 87.62a1.6 1.6 0 0 0-.37-1.07M30.82 86.47a3.74 3.74 0 0 0-.75-.08M30.94 86.55a.2.2 0 0 0-.12-.08M30.81 86.55a4.52 4.52 0 0 0-.74-.06M31.31 87.62a1.41 1.41 0 0 0-.37-1M30.94 86.62a.17.17 0 0 0-.13-.07M29.24 86.62a1.46 1.46 0 0 0-.37 1M29.24 86.54a1.65 1.65 0 0 0-.37 1.08M30.07 86.49a4.62 4.62 0 0 0-.74.06M30.07 86.36a3.19 3.19 0 0 0-.75.08M29.33 86.55a.17.17 0 0 0-.13.07M29.32 86.47a.24.24 0 0 0-.12.07M28.76 87.45a.64.64 0 0 0 .25.54M29.01 87.99a.66.66 0 0 0 .17.12M30.96 88.11a.66.66 0 0 0 .17-.12M30.16 88.36a2.21 2.21 0 0 0 .8-.21M29.71 88.14a1.46 1.46 0 0 0 .72 0M28.92 87.51a.38.38 0 0 0 .14.33M29.06 87.84a1.44 1.44 0 0 0 .65.3M31.09 87.84a.4.4 0 0 0 .13-.33M30.43 88.14a1.47 1.47 0 0 0 .66-.3M29.9 87.23a.17.17 0 1 1 .34 0 .17.17 0 1 1-.34 0z"/>
  <path class="c" d="M29.95 87.23a.12.12 0 0 1 .24 0 .12.12 0 0 1-.24 0zM25.36 86.34h2.62M27.98 86.34v1.11M25.36 86.34v1.11M27.08 86.34h-.82M26.89 87.23h-.14M26.67 87.01v.14M26.59 87.23h-.14M26.67 87.31v.14M25.98 86.96a1.17 1.17 0 0 0-.46.55M26.67 86.8a1.2 1.2 0 0 0-.69.16M27.82 87.51a1.21 1.21 0 0 0-.45-.55M27.37 86.96a1.21 1.21 0 0 0-.7-.16M25.78 88.11a2.21 2.21 0 0 0 .8.21M27.73 87.99a.64.64 0 0 0 .25-.54M26.58 88.36a.54.54 0 0 0 .18 0M27.41 87a5.17 5.17 0 0 0-1.47 0M27.92 87.62a1.67 1.67 0 0 0-.38-1.07M27.42 86.47a3.74 3.74 0 0 0-.75-.08M27.54 86.55a.2.2 0 0 0-.12-.08M27.41 86.55a4.52 4.52 0 0 0-.74-.06M27.92 87.62a1.51 1.51 0 0 0-.37-1M27.55 86.62a.21.21 0 0 0-.14-.07M25.8 86.62a1.46 1.46 0 0 0-.37 1M25.8 86.54a1.65 1.65 0 0 0-.37 1.08M26.67 86.49a4.71 4.71 0 0 0-.74.06M26.67 86.36a3.19 3.19 0 0 0-.75.08M25.93 86.55a.17.17 0 0 0-.13.07M25.92 86.47a.29.29 0 0 0-.12.07M25.36 87.45a.64.64 0 0 0 .25.54M25.61 87.99a.66.66 0 0 0 .17.12M27.56 88.11a.66.66 0 0 0 .17-.12M26.76 88.36a2.21 2.21 0 0 0 .8-.21M26.31 88.14a1.46 1.46 0 0 0 .72 0M25.52 87.51a.38.38 0 0 0 .14.33M25.66 87.84a1.44 1.44 0 0 0 .65.3M27.69 87.84a.4.4 0 0 0 .13-.33M27.03 88.14a1.47 1.47 0 0 0 .66-.3M26.5 87.23a.17.17 0 0 1 .17-.17.16.16 0 0 1 .17.17.17.17 0 0 1-.17.17.18.18 0 0 1-.17-.17z"/>
  <path class="c" d="M26.55 87.23a.12.12 0 0 1 .24 0 .12.12 0 1 1-.24 0zM24.94 84.47h1.71M24.19 84.54V82.7M24.19 84.54h.65M25.24 83.62v-.68M26.65 84.47l-1.41-.16M25.24 83.62v.69M26.65 82.77l-1.41.17M26.65 84.43l-1.41-.17M26.65 82.82l-1.41.16M24.94 82.77h1.71M24.19 82.7h.65M26.65 84.47l.19-.02M26.84 84.45l.18-.07M27.02 84.38l.16-.12M27.18 84.26l.13-.15M27.31 84.11l.09-.19M27.4 83.92l.04-.2M27.44 83.72v-.2M27.44 83.52l-.04-.2M27.4 83.32l-.09-.18M27.31 83.14l-.13-.15M27.18 82.99l-.16-.12M27.02 82.87l-.18-.07M26.84 82.8l-.19-.03M26.65 84.43l.18-.03M26.83 84.4l.17-.06M27 84.34l.15-.11M27.15 84.23l.12-.15M27.27 84.08l.08-.17M27.35 83.91l.05-.19M27.4 83.72v-.19M27.4 83.53l-.05-.19M27.35 83.34l-.08-.18M27.27 83.16l-.12-.14M27.15 83.02l-.15-.11M27 82.91l-.17-.07M26.83 82.84l-.18-.02M24.95 84.44a7.58 7.58 0 0 0 0-1.65M24.84 84.54a.12.12 0 0 0 .11-.1M24.95 82.79a.12.12 0 0 0-.11-.09M24.69 83.62a.09.09 0 1 0-.09.09.09.09 0 0 0 .09-.09zM402.7 86.35h.07M402.83 86.4v.08M402.7 86.53h.07M402.64 86.48v-.08M403.46 85.71h-1.45M403.46 85.71v.69M402.01 85.71v.69M402.59 87.14a.21.21 0 0 0 .29 0M403.29 86.27l-.13-.05M402.01 86.36a1.2 1.2 0 0 0 .08.42M402.09 86.82a1.13 1.13 0 0 0 .24.36M403.38 86.27a.7.7 0 0 0-.28-.12M403.16 86.22a1.71 1.71 0 0 0-.84 0M403.14 87.18a1.13 1.13 0 0 0 .24-.36M402.32 86.22l-.13.05M403.1 86.15a2.18 2.18 0 0 0-.72 0M402.18 86.36a.28.28 0 0 0 0 .22M402.18 86.53a1.82 1.82 0 0 0 .41.61M403.29 86.53a.33.33 0 0 0 0-.22M402.09 86.27a.22.22 0 0 0-.08.13M402.38 86.15a.81.81 0 0 0-.29.12M402.88 87.14a1.69 1.69 0 0 0 .41-.61M402.24 86.27a.25.25 0 0 0-.12.24M402.33 87.18a.56.56 0 0 0 .8 0M403.4 86.51a.25.25 0 0 0-.11-.24M402.74 87.36a.52.52 0 0 0 .39-.17M403.13 87.15a1.15 1.15 0 0 0 .27-.64M402.35 87.15a.52.52 0 0 0 .39.17M402.07 86.51a1.16 1.16 0 0 0 .28.64M402.7 86.36a.06.06 0 0 0 0 .06M402.83 86.36a.06.06 0 0 0 0-.06M402.65 86.47a.06.06 0 0 0 0 .06M402.78 86.53a.06.06 0 0 0 0-.06M403.47 86.36a.3.3 0 0 0-.09-.13M403.38 86.82a1 1 0 0 0 .09-.42M402.74 85.85a.09.09 0 0 0-.09.09.09.09 0 1 0 .18 0 .09.09 0 0 0-.09-.09zM414.35 74.91h-1.72M415.09 74.84v1.85M415.09 74.84h-.64M414.04 75.76v.69M412.63 74.91l1.41.17M414.04 75.76v-.68M412.63 76.61l1.41-.16M412.63 74.96l1.41.16M412.63 76.57l1.41-.17M414.35 76.61h-1.72M415.09 76.69h-.64M412.63 74.91l-.19.03M412.44 74.94l-.18.07M412.26 75.01l-.15.12M412.11 75.13l-.13.15M411.98 75.28l-.09.18M411.89 75.46l-.05.2M411.84 75.66v.21M411.84 75.87l.05.19M411.89 76.06l.09.19M411.98 76.25l.13.15M412.11 76.4l.15.12M412.26 76.52l.18.07M412.44 76.59l.19.02M412.63 74.96l-.18.02M412.45 74.98l-.17.07M412.28 75.05l-.14.11M412.14 75.16l-.12.14M412.02 75.3l-.09.18M411.93 75.48l-.04.19M411.89 75.67v.19M411.89 75.86l.04.19M411.93 76.05l.09.17M412.02 76.22l.12.15M412.14 76.37l.14.11M412.28 76.48l.17.07M412.45 76.55l.18.02M414.34 74.93a9.09 9.09 0 0 0 0 1.65M414.45 74.84a.12.12 0 0 0-.11.09M414.34 76.58a.12.12 0 0 0 .11.1M414.78 75.76a.09.09 0 1 0-.09.09.09.09 0 0 0 .09-.09zM395.06 82.51h2.62M397.68 82.51V81.4M395.06 82.51V81.4M396.78 82.51h-.83M396.59 81.62h-.14M396.37 81.84v-.14M396.29 81.62h-.14M396.37 81.53v-.14M395.24 81.36a1.24 1.24 0 0 0 .45.56M395.67 81.88a1.23 1.23 0 0 0 .7.16M397.07 81.88a1.24 1.24 0 0 0 .45-.56M396.37 82.04a1.23 1.23 0 0 0 .7-.16M396.24 80.51a2.22 2.22 0 0 0-.8.22M397.68 81.36a.67.67 0 0 0-.25-.55M396.46 80.51h-.22M395.64 81.83a4.47 4.47 0 0 0 1.46 0M397.24 82.29a1.6 1.6 0 0 0 .37-1.07M396.37 82.45a3.82 3.82 0 0 0 .75-.08M397.12 82.36a.2.2 0 0 0 .12-.08M396.37 82.36a4.6 4.6 0 0 0 .74-.05M397.24 82.22a1.43 1.43 0 0 0 .37-1M397.11 82.29a.21.21 0 0 0 .13-.07M395.13 81.22a1.43 1.43 0 0 0 .37 1M395.13 81.22a1.6 1.6 0 0 0 .37 1.07M395.63 82.29a4.6 4.6 0 0 0 .74.05M395.62 82.36a3.82 3.82 0 0 0 .75.08M395.5 82.22a.21.21 0 0 0 .13.07M395.5 82.29a.2.2 0 0 0 .12.08M395.31 80.84a.67.67 0 0 0-.25.55M395.48 80.73l-.17.11M397.43 80.84l-.17-.11M397.24 80.73a2.22 2.22 0 0 0-.8-.22M396.73 80.7a1.46 1.46 0 0 0-.72 0M395.35 81a.39.39 0 0 0-.13.32M396.01 80.7a1.37 1.37 0 0 0-.66.3M397.52 81.36a.37.37 0 0 0-.14-.32M397.38 81a1.34 1.34 0 0 0-.65-.3M396.24 81.61a.17.17 0 0 1 .17-.17.17.17 0 0 1 0 .34.17.17 0 0 1-.17-.17z"/>
  <path class="c" d="M396.24 81.61a.12.12 0 1 1 .12.12.12.12 0 0 1-.12-.12zM414.35 80.01h-1.72M415.09 79.94v1.84M415.09 79.94h-.64M414.04 80.86v.68M412.63 80.01l1.41.17M414.04 80.86v-.68M412.63 81.71l1.41-.17M412.63 80.05l1.41.17M412.63 81.67l1.41-.17M414.35 81.71h-1.72M415.09 81.78h-.64M412.63 80.01l-.19.03M412.44 80.04l-.18.07M412.26 80.11l-.15.11M412.11 80.22l-.13.16M411.98 80.38l-.09.18M411.89 80.56l-.05.2M411.84 80.76v.2M411.84 80.96l.05.2M411.89 81.16l.09.18M411.98 81.34l.13.16M412.11 81.5l.15.11M412.26 81.61l.18.08M412.44 81.69l.19.02M412.63 80.05l-.18.03M412.45 80.08l-.17.07M412.28 80.15l-.14.11M412.14 80.26l-.12.14M412.02 80.4l-.09.18M411.93 80.58l-.04.18M411.89 80.76v.2M411.89 80.96l.04.19M411.93 81.15l.09.17M412.02 81.32l.12.14M412.14 81.46l.14.11M412.28 81.57l.17.07M412.45 81.64l.18.03M414.34 80.03a9.09 9.09 0 0 0 0 1.65M414.45 79.93a.12.12 0 0 0-.11.1M414.34 81.68a.12.12 0 0 0 .11.1M414.78 80.86a.09.09 0 1 0-.09.09.09.09 0 0 0 .09-.09zM391.58 82.51h2.62M394.2 82.51V81.4M391.58 82.51V81.4M393.3 82.51h-.83M393.11 81.62h-.14M392.89 81.84v-.14M392.81 81.62h-.14M392.89 81.53v-.14M391.74 81.36a1.24 1.24 0 0 0 .45.56M392.24 81.88a1.23 1.23 0 0 0 .7.16M393.59 81.88a1.24 1.24 0 0 0 .45-.56M392.89 82.04a1.23 1.23 0 0 0 .7-.16M392.8 80.51a2.22 2.22 0 0 0-.8.22M394.24 81.36a.67.67 0 0 0-.25-.55M392.98 80.51h-.18M392.16 81.83a4.47 4.47 0 0 0 1.46 0M393.76 82.29a1.6 1.6 0 0 0 .37-1.07M392.89 82.45a3.82 3.82 0 0 0 .75-.08M393.64 82.36a.2.2 0 0 0 .12-.08M392.89 82.36a4.6 4.6 0 0 0 .74-.05M393.76 82.22a1.43 1.43 0 0 0 .37-1M393.63 82.29a.21.21 0 0 0 .13-.07M391.65 81.22a1.43 1.43 0 0 0 .37 1M391.65 81.22a1.6 1.6 0 0 0 .37 1.07M392.15 82.29a4.6 4.6 0 0 0 .74.05M392.14 82.36a3.82 3.82 0 0 0 .75.08M392.02 82.22a.21.21 0 0 0 .13.07M392.02 82.29a.2.2 0 0 0 .12.08M391.83 80.84a.67.67 0 0 0-.25.55M392 80.73l-.17.11M393.95 80.84l-.17-.11M393.78 80.73a2.22 2.22 0 0 0-.8-.22M393.24 80.7a1.46 1.46 0 0 0-.72 0M391.88 81a.37.37 0 0 0-.14.32M392.53 80.7a1.3 1.3 0 0 0-.65.3M394.04 81.36a.37.37 0 0 0-.14-.32M393.9 81a1.3 1.3 0 0 0-.65-.3M392.72 81.61a.17.17 0 1 1 .17.17.18.18 0 0 1-.17-.17z"/>
  <path class="c" d="M392.77 81.61a.12.12 0 1 1 .12.12.12.12 0 0 1-.12-.12zM395.06 83.14h2.62M397.68 83.14v1.11M395.06 83.14v1.11M396.78 83.14h-.83M396.59 84.03h-.14M396.37 83.81v.14M396.29 84.03h-.14M396.37 84.11v.14M395.67 83.76a1.16 1.16 0 0 0-.45.55M396.37 83.59a1.16 1.16 0 0 0-.7.17M397.52 84.36a1.16 1.16 0 0 0-.45-.55M397.07 83.76a1.16 1.16 0 0 0-.7-.17M395.48 84.9a2 2 0 0 0 .8.22M397.43 84.79a.65.65 0 0 0 .25-.55M396.24 85.12h.18M397.1 83.8a4.47 4.47 0 0 0-1.46 0M397.61 84.41a1.6 1.6 0 0 0-.37-1.05M397.12 83.27a2.74 2.74 0 0 0-.75-.08M397.24 83.36a.19.19 0 0 0-.12-.07M397.11 83.36a6.13 6.13 0 0 0-.74-.05M397.61 84.41a1.45 1.45 0 0 0-.37-1M397.24 83.41a.21.21 0 0 0-.13-.07M395.5 83.41a1.43 1.43 0 0 0-.37 1M395.5 83.36a1.6 1.6 0 0 0-.37 1.07M396.37 83.29a6.13 6.13 0 0 0-.74.05M396.37 83.19a2.74 2.74 0 0 0-.75.08M395.63 83.36a.21.21 0 0 0-.13.07M395.62 83.27a.19.19 0 0 0-.12.07M395.06 84.24a.65.65 0 0 0 .25.55M395.31 84.79l.17.11M397.24 84.9l.17-.11M396.46 85.12a2 2 0 0 0 .8-.22M396.01 84.93a1.46 1.46 0 0 0 .72 0M395.24 84.36a.39.39 0 0 0 .13.32M395.35 84.63a1.37 1.37 0 0 0 .66.3M397.38 84.63a.37.37 0 0 0 .14-.32M396.73 84.93a1.34 1.34 0 0 0 .65-.3M396.24 84.02a.17.17 0 0 1 .17-.17.18.18 0 0 1 .17.17.17.17 0 0 1-.17.17.16.16 0 0 1-.17-.17z"/>
  <path class="c" d="M396.24 84.02a.12.12 0 1 1 .24 0 .12.12 0 1 1-.24 0zM391.58 83.14h2.62M394.2 83.14v1.11M391.58 83.14v1.11M393.3 83.14h-.83M393.11 84.03h-.14M392.89 83.81v.14M392.81 84.03h-.14M392.89 84.11v.14M392.24 83.76a1.16 1.16 0 0 0-.45.55M392.89 83.59a1.16 1.16 0 0 0-.7.17M394.04 84.36a1.16 1.16 0 0 0-.45-.55M393.59 83.76a1.16 1.16 0 0 0-.7-.17M392 84.9a2 2 0 0 0 .8.22M393.95 84.79a.65.65 0 0 0 .25-.55M392.8 85.12h.18M393.62 83.8a4.47 4.47 0 0 0-1.46 0M394.13 84.41a1.6 1.6 0 0 0-.37-1.07M393.64 83.27a2.74 2.74 0 0 0-.75-.08M393.76 83.36a.19.19 0 0 0-.12-.07M393.63 83.36a6.13 6.13 0 0 0-.74-.05M394.13 84.41a1.45 1.45 0 0 0-.37-1M393.76 83.41a.21.21 0 0 0-.13-.07M392.02 83.41a1.43 1.43 0 0 0-.37 1M392.02 83.36a1.6 1.6 0 0 0-.37 1.07M392.89 83.29a6.13 6.13 0 0 0-.74.05M392.89 83.19a2.74 2.74 0 0 0-.75.08M392.15 83.36a.21.21 0 0 0-.13.07M392.14 83.27a.19.19 0 0 0-.12.07M391.58 84.24a.65.65 0 0 0 .25.55M391.83 84.79l.17.11M393.78 84.9l.17-.11M392.98 85.12a2 2 0 0 0 .8-.22M392.53 84.93a1.46 1.46 0 0 0 .72 0M391.74 84.36a.37.37 0 0 0 .14.32M391.88 84.63a1.3 1.3 0 0 0 .65.3M393.9 84.63a.37.37 0 0 0 .14-.32M393.24 84.93a1.3 1.3 0 0 0 .65-.3M392.72 84.02a.17.17 0 0 1 .34 0 .17.17 0 0 1-.34 0z"/>
  <path class="c" d="M392.77 84.02a.12.12 0 1 1 .24 0 .12.12 0 1 1-.24 0zM385.26 86.19v-2.43M386.83 85.84h-1.19M385.26 83.76h1.94M387.2 83.76v2.43M387.2 86.19h-1.94M387.07 84.16v1.63M386.87 86.02h-1.28M385.59 83.93h1.28M385.39 85.79v-1.63M386.92 84.23v1.49M385.54 85.72v-1.49M385.64 84.11h1.19"/>
  <path class="i" d="M385.7 85.07"/>
  <path class="c" d="M385.7 85.16v-.14M385.84 84.98h-.1M385.7 84.8v.13M385.55 84.98h.11M387.07 84.15c0-.13-.09-.23-.19-.23M385.59 83.92a.21.21 0 0 0-.19.23M385.4 85.79a.21.21 0 0 0 .19.23M386.88 86.02c.1 0 .18-.1.19-.23M386.83 85.84c.05 0 .09-.06.09-.13M385.54 85.71c0 .07 0 .13.1.13M385.64 84.11c-.06 0-.1.05-.1.12M386.92 84.23c0-.07 0-.12-.09-.12M385.7 84.83a.14.14 0 1 0 .11.14.13.13 0 0 0-.11-.14z"/>
  <path class="c" d="M385.7 84.87a.1.1 0 0 0-.08.1.08.08 0 1 0 .16 0 .1.1 0 0 0-.08-.1zM414.35 86.81h-1.72M415.09 86.74v1.84M415.09 86.74h-.64M414.04 87.66v.68M412.63 86.81l1.41.16M414.04 87.66v-.69M412.63 88.51l1.41-.17M412.63 86.85l1.41.17M412.63 88.46l1.41-.16M414.35 88.51h-1.72M415.09 88.58h-.64M412.63 86.81l-.19.02M412.44 86.83l-.18.08M412.26 86.91l-.15.11M412.11 87.02l-.13.15M411.98 87.17l-.09.19M411.89 87.36l-.05.2M411.84 87.56v.2M411.84 87.76l.05.2M411.89 87.96l.09.18M411.98 88.14l.13.15M412.11 88.29l.15.12M412.26 88.41l.18.07M412.44 88.48l.19.03M412.63 86.85l-.18.03M412.45 86.88l-.17.06M412.28 86.94l-.14.11M412.14 87.05l-.12.15M412.02 87.2l-.09.17M411.93 87.37l-.04.19M411.89 87.56v.2M411.89 87.76l.04.18M411.93 87.94l.09.18M412.02 88.12l.12.14M412.14 88.26l.14.11M412.28 88.37l.17.07M412.45 88.44l.18.02M414.34 86.83a9.09 9.09 0 0 0 0 1.65M414.45 86.73a.12.12 0 0 0-.11.1M414.34 88.48a.13.13 0 0 0 .11.1M414.78 87.65a.09.09 0 1 0-.09.09.09.09 0 0 0 .09-.09zM414.35 91.06h-1.72M415.09 90.98v1.85M415.09 90.98h-.64M414.04 91.91v.68M412.63 91.06l1.41.16M414.04 91.91v-.69M412.63 92.76l1.41-.17M412.63 91.1l1.41.17M412.63 92.71l1.41-.16M414.35 92.76h-1.72M415.09 92.83h-.64M412.63 91.06l-.19.02M412.44 91.08l-.18.07M412.26 91.15l-.15.12M412.11 91.27l-.13.15M411.98 91.42l-.09.18M411.89 91.6l-.05.2M411.84 91.8v.21M411.84 92.01l.05.2M411.89 92.21l.09.18M411.98 92.39l.13.15M412.11 92.54l.15.12M412.26 92.66l.18.07M412.44 92.73l.19.03M412.63 91.1l-.18.02M412.45 91.12l-.17.07M412.28 91.19l-.14.11M412.14 91.3l-.12.15M412.02 91.45l-.09.17M411.93 91.62l-.04.19M411.89 91.81V92M411.89 92l.04.19M411.93 92.19l.09.17M412.02 92.36l.12.15M412.14 92.51l.14.11M412.28 92.62l.17.07M412.45 92.69l.18.02M414.34 91.07a9.2 9.2 0 0 0 0 1.66M414.45 90.98a.12.12 0 0 0-.11.09M414.34 92.73a.12.12 0 0 0 .11.09M414.78 91.9a.09.09 0 1 0-.09.09.09.09 0 0 0 .09-.09z"/>
  <path class="j" d="M370.81 74.98a4.87 4.87 0 0 0 4.86-4.86M392.93 174.03a2.43 2.43 0 0 0-2.43-2.43M392.93 181.85a2.43 2.43 0 0 0-2.43-2.43M390.5 179.42a2.43 2.43 0 0 0 2.43-2.43M274.14 171.28h5.63M286.4 171.28h6.97M350.71 159.04a3.85 3.85 0 0 0-3.88 3.81v.08M350.47 178.61a3.84 3.84 0 0 0-3.88 3.81v.08M387.69 164.36a3.89 3.89 0 0 0-3.89-3.88M383.8 160.43a3.82 3.82 0 0 0 3.89-3.74v-.15M316.24 161.36a2.3 2.3 0 0 0 2.43-2.17v-.26"/>
  <path class="j" d="M318.67 158.92a2.39 2.39 0 0 0 2.35 2.43h.08M381.01 70.13h-5.34M380.77 69.4v.73M370.81 69.4v5.58M276.13 191.75v.48M291.23 191.75v.48M276.13 191.99h15.1M315.56 143.73v15.2M315.8 143.73v14.95M315.56 158.93h.68M315.8 158.68h.44M354.23 163.54v19.57M353.62 163.54v18.96M354.23 183.11h-3.76M346.58 183.11h-16.21M353.62 182.5h-3.15M346.58 182.5h-16.21M346.83 163.54h-16.12M346.58 162.93h-15.87M346.58 183.11v-.61M346.34 183.11v-.61M350.47 183.11v-4.49M350.71 183.11v-.61M346.83 162.93v.61M346.58 162.93v.61M350.71 159.05v4.49M350.95 162.93v.61M330.95 163.24h15.63M330.61 182.5v.61M330.61 182.8h15.73M350.71 182.8h3.22M353.93 163.78v19.02M383.19 170.24v-5.92M383.19 156.55v-5.92M383.8 150.63v5.92M383.8 164.32v5.92M387.68 156.55h-4.49M387.68 164.32h-4.49M383.8 164.56h-.61M375.67 70.13v-.49M375.67 69.64h5.1M365.47 54.86v5.31M370.57 69.4h.24M370.57 70.13h.24M375.91 69.64v.49M383.5 156.31v-5.44M383.5 164.56V170M346.58 162.93h.25M350.71 162.93h.24M350.71 163.54h.24M321.09 161.36v-2.68M316.24 161.36v-2.68M353.62 163.78h.61M330.95 162.93v.61M383.8 170h-.61M383.8 150.87h-.61M275.89 192.23h15.59M321.09 158.93h5.54M321.09 158.68h5.54M321.34 158.93v-.25M316 158.93v-.25M383.8 156.31h-.61M365.71 60.17h-.48M365.23 60.42v-5.8M365.71 60.42v-5.8M375.91 69.89h4.86M275.89 191.75h15.59M390.5 174.03h2.43M390.5 181.85h2.43M390.5 177h2.43M365.23 54.86h.48"/>
  <path class="k" d="M415.84 73.43v5.82M416.09 73.43v5.82M416.94 73.43v5.82M415.72 109.84h.25M416.94 109.84V98.19M415.84 109.84V98.19M416.09 109.84V98.19M415.84 85.56v5.83M416.09 85.56v5.83M416.94 85.56v5.83M415.24 73.43v5.82M415.24 109.84V98.19M415.24 85.56v5.83M415.84 44.29v5.59M416.09 44.29v5.59M416.94 44.29v5.59M415.84 58.01v5.58M416.09 58.01v5.58M416.94 58.01v5.58M414.99 44.29v5.59M414.99 58.01v5.58M36.04 238.26v-.24M43.32 1.08V.84M373.81 237.53v1.7M415.85 148.27v-5.58M416.1 148.27v-5.58M416.94 148.27v-5.58M415.24 148.27v-5.58M415.85 159.92v-5.58M416.94 159.92v-5.58M416.1 159.92v-5.58M415.24 159.92v-5.58M415.85 171.58v-5.59M416.94 171.58v-5.59M416.1 171.58v-5.59M415.24 171.58v-5.59M415.85 183.23v-5.59M416.94 183.23v-5.59M416.1 183.23v-5.59M415.24 183.23v-5.59M1.1 109.84V98.19M1.33 67.6V44.29M2.05 50.12h-.6M2.05 61.58h-.6M1.57 74.64v17.19M1.33 74.64v17.19M2.05 55.85h-.6M2.05 67.6V44.29M373.97.84v.24M1.08 133.1v-16.22M2.05 133.1v-16.22M.35 133.1v-16.22M2.05 109.84V98.19M.35 109.84V98.19M.35 74.64v17.19M2.05 74.64v17.19M.35 67.6V44.29M1.08 67.6V44.29M1.33 133.1v-16.22M1.34 109.84V98.19M94.3 238.26v.25M87.02 238.26v.25M123.44 238.26v.25M116.15 238.26v.25M101.59 238.26v.25M108.87 238.26v.25M269.09 238.26v.25M261.81 238.26v.25M298.23 238.26v.25M290.94 238.26v.25M330.27 238.26v.25M320.07 238.26v.25M359.4 238.26v.25M352.12 238.26v.25M337.55 238.26v.25M344.84 238.26v.25M65.17 238.26v.25M57.89 238.26v.25M72.46 238.26v.25M79.74 238.26v.25M43.32 238.26v.25M50.61 238.26v.25M312.79 238.26v.25M305.51 238.26v.25M283.66 238.26v.25M276.38 238.26v.25M152.57 238.26v.25M145.28 238.26v.25M130.72 238.26v.25M138 238.26v.25M181.7 238.26v.25M174.42 238.26v.25M159.85 238.26v.25M167.13 238.26v.25M210.83 238.26v.25M203.55 238.26v.25M188.98 238.26v.25M196.26 238.26v.25M239.96 238.26v.25M232.68 238.26v.25M218.11 238.26v.25M225.4 238.26v.25M247.25 238.26v.25M254.53 238.26v.25M94.3 1.33v-.25M87.02 1.33v-.25M123.44 1.33v-.25M116.15 1.33v-.25M101.59 1.33v-.25M108.87 1.33v-.25M269.09 1.33v-.25M261.81 1.33v-.25M298.23 1.33v-.25M290.94 1.33v-.25M330.27 1.33v-.25M320.07 1.33v-.25M359.4 1.33v-.25M352.12 1.33v-.25M337.55 1.33v-.25M344.84 1.33v-.25M65.17 1.33v-.25M57.89 1.33v-.25M72.46 1.33v-.25M79.74 1.33v-.25M50.61 1.33v-.25M312.79 1.33v-.25M305.51 1.33v-.25M283.66 1.33v-.25M276.38 1.33v-.25M152.57 1.33v-.25M145.28 1.33v-.25M130.72 1.33v-.25M138 1.33v-.25M181.7 1.33v-.25M174.42 1.33v-.25M159.85 1.33v-.25M167.13 1.33v-.25M210.83 1.33v-.25M203.55 1.33v-.25M188.98 1.33v-.25M196.26 1.33v-.25M239.96 1.33v-.25M232.68 1.33v-.25M218.11 1.33v-.25M225.4 1.33v-.25M247.25 1.33v-.25M254.53 1.33v-.25M36.04 238.5h337.93M36.04 238.26h337.93M36.04 237.53h337.93M36.04 239.23h337.93M87.02 238.38h7.28M116.15 238.38h7.29M261.81 238.38h7.28M290.94 238.38h7.29M320.07 238.38h10.2M352.12 238.38h7.28M57.89 238.38h7.28M145.28 238.38h7.29M174.42 238.38h7.28M203.55 238.38h7.28M232.68 238.38h7.28M43.32 1.08h330.65M43.32 1.33h330.65M43.32 2.05h330.65M43.32.35h330.65M87.02 1.2h7.28M116.15 1.2h7.29M261.81 1.2h7.28M290.94 1.2h7.29M320.07 1.2h10.2M352.12 1.2h7.28M57.89 1.2h7.28M145.28 1.2h7.29M174.42 1.2h7.28M203.55 1.2h7.28M232.68 1.2h7.28"/>
  <path class="c" d="M392.9 108.02h14.71M407.86 100.08h-14.71M396.82 111.54l4.21-7.28M397.06 111.54l4.21-7.28M215.81 138.9h-1.56M211.77 142.91v3.32M10.46 107.84h13.2M26.33 100.19H12.01"/>
  <path class="l" d="M327.84 2.54h14.28M383.68 2.79h-40.79"/>
  <path class="m" d="M24.05 94.4h8.49M2.2 94.4v-2.57M2.2 94.4h5.68M8.37 94.4h14.95M32.54 72.6v5.78M29.97 71.1h1.07M24.19 79.16h3.35M9 78.38h6.99M2.05 81.58h5.68M7.73 90.91v-9.33M12.88 81.58h10.29M12.88 81.58v5.05M12.1 81.58v5.2M8.51 81.58h3.59M8.51 86.78v-5.2M12.88 86.63h6.45M22.73 87.41h.44M12.01 87.41h7.32M8.51 90.91v-3.65M24.19 79.16v6.16M23.17 81.58v5.2M4.63 71.1h3.59M9 71.1h16.84M32.54 93.58v.82M32.54 82.31v3.01M16.77 75.46h-.78M15.99 75.46v2.92M16.77 75.46v2.92M9 71.92v-.82M8.22 71.92v-.82M9 78.38v-3.06M24.19 86.34h8.35M24.19 85.32h8.35M23.17 87.41v2.52M24.19 86.34v3.59M32.54 86.34v2.38M2.2 74.64V72.6M30.94 78.38h1.6M16.77 78.38h10.77M31.04 82.31v-3.3M31.04 72.6h1.5M2.2 72.6h2.43M4.63 72.6v-1.5M31.04 71.1v1.5M31.04 82.31h1.5M8.22 75.32v5.24M2.05 80.56h6.17M365.23 54.64h-22.34M385.18 79.37v-1.43M385.18 77.94h1.07M386.25 77.94v-4.37M386.25 73.57h18.65M404.9 73.57v.71M404.9 77.68v1.57M404.9 82.65v.34M404.9 82.99h-4.57M400.33 82.99v-.48M400.33 82.51H389.5M389.5 82.51v3.88M389.5 86.39h-4.32M385.18 86.39v-3.62M405.67 79.25v-.52M405.67 78.73h9.42M415.09 78.73v4.26M415.09 82.99h-9.42M405.67 82.99v-.34M405.67 74.28v-.71M405.67 73.57h9.42M415.09 73.57v4.38M415.09 77.95h-9.42M405.67 77.95v-.27M385.18 88.31v-1.14M385.18 87.17h5.1M390.28 87.17v-3.89M390.28 83.28h8.79M399.07 83.28v3.89M399.07 87.17h1.5M400.57 87.17v-1.46M400.57 85.71h4.33M404.9 85.71v.34M404.9 89.45v1.21M404.9 94.06v.34M404.9 94.4h-18.65M386.25 94.4v-.97M386.25 93.43h-1.07M385.18 93.43v-1.72M405.67 90.66v-.28M405.67 90.38h9.42M415.09 90.38v3.05M415.09 93.43h-2.43M412.66 93.43v.97M412.66 94.4h-6.99M405.67 94.4v-.34M405.67 89.45v.16M405.67 89.61h9.42M415.09 89.61v-3.9M415.09 85.71h-9.42M405.67 85.71v.34"/>
  <path class="n" d="M7.39 200.15l12.14-7.77M7.39 192.38l12.14 7.77M7.39 200.15h12.14M19.53 192.38H7.39M19.53 200.15v-7.77M5.01 154.35h17.83M22.84 154.35v11.67M22.84 166.02H5.01M5.01 166.02v-11.67M5.01 154.35l17.83 11.67M22.84 154.35L5.01 166.02M10.91 180.58l12.14-7.77M10.91 172.81l12.14 7.77M10.91 180.58h12.14M23.05 172.81H10.91M10.91 172.81v7.77M7.39 200.15v-7.77M23.05 172.81v7.77M409.41 136.2v-7.76M395.82 128.44l13.59 7.76M395.82 136.2l13.59-7.76M395.82 124.26l13.59-7.77M395.82 116.49l13.59 7.77M395.82 124.26h13.59M409.41 116.49h-13.59M395.82 116.49v7.77M395.82 128.44h13.59M409.41 136.2h-13.59M395.82 136.2v-7.76M409.41 124.26v-7.77"/>
  <path class="o" d="M30.7 37.98H.35v6.32h1.7v-5.83h2.43v1.21h26.7v-1.21h1.22V4.48h-1.22V2.05h12.14V.35H30.7v37.63"/>
  <path class="p" d="M32.16 40.9h1.46v9.47h-1.46z"/>
  <path class="o" d="M33.61 56.48v-1.26h-1.45v.39H2.05v.82h30.11v.05h1.45M25.6 62.55h8.01v-1.21h-1.45v.48h-7.09v8.21H4.48v.92h3.89v.97h.48v-.97h16.99v-.92h-.24v-7.48"/>
  <path class="p" d="M29.97 70.03h1.21v.92h-1.21z"/>
  <path class="o" d="M.35 67.6v7.04h1.7V67.6H.35M16.14 78.52H8.85v-3.16h-.48v5.38h-6.8v.37h.49v.36h5.82v9.47h.49v-3.68h.24v-.49h-.24v-5.34h3.87v5.34H12v.49h7.32v-.49h-6.58v-5.34h10.58v5.34h-.59v.49h.59v2.66h.73v-3.73h8.64v2.53h.93v-6.56h-.93v3.3h-8.64v-6.45h3.5v-.49H16.62V75.6h-.48zm-7.29.49h1.46v1.69H8.85zm6.07.24v1.45h-3.88v-1.45zm4.62 1.45h-4.13v-1.45h4.13zm3.78 0h-3.3v-1.45h3.3zM33.61 79.74v-7.29h-.92v6.07h-1.75v.49h.24v.73h2.43M31.18 94.55h-7.13v-.25h-.73v.25h.58v.97h7.28v-.97"/>
  <path class="p" d="M14.19 94.55h7.28v.97h-7.28z"/>
  <path class="o" d="M11.76 95.52v-.97H8.37v-.25h-.49v.25h-3.4v.97h7.28M2.05 91.83H.35v6.36h1.7V91.83"/>
  <path class="p" d="M32.69 93.58h.92v.97h-.92z"/>
  <path class="o" d="M31.18 99.64h2.43v-.29h4.71v.9h.97v-1.87h-5.68v-1.89h-2.43v3.15M33.61 108.04h-2.43v3.5h2.43v-1.89h5.68v-1.87h-.97v.9h-4.71v-.64"/>
  <path class="p" d="M32.16 113.48h1.46v11.51h-1.46zM23.9 112.51h7.28v.97H23.9zM14.19 112.51h7.28v.97h-7.28zM4.48 112.51h7.28v.97H4.48z"/>
  <path class="o" d="M.35 109.84v7.04h1.7v-7.04H.35M2.05 133.1H.35v72.39h1.7V152.57h1.7v14.56h.73v-14.56H23.9v1.79h1.22v-3.01h6.06v1.22h2.43v-7.29h-.97v4.42H2.05v-16.6"/>
  <path class="p" d="M32.16 129.84h1.46v13.01h-1.46zM60.32 141.64h2.43v1.21h-2.43z"/>
  <path class="o" d="M32.4 191.41h1.21v-21.85H32.4v1.21h.73v11.03h-.73v9.61M57.79 237.53h2.53v-2.42h-2.53v-5H55.8v.82h1.17v6.6h.82"/>
  <path class="p" d="M62.74 235.11h.92v2.43h-.92z"/>
  <path class="o" d="M205.97 235.11h.3v-30.98h14.13v-.48h-14.09v-9.81h-.34v41.27M226.03 203.65h-1.27v.48h.34v33.4h.59v-33.4h.34v-.48M247.05 203.65H230.4v.48h16.65v33.4h.88v-41.75h1.16v-1.26h-4.66V190h-.92v5.39h3.54v8.26"/>
  <path class="p" d="M208.4 193.25h26.7v.58h-26.7zM235.11 193.84h2.43v1.55h-2.43z"/>
  <path class="o" d="M237.53 185.63h6.9v-11.46h-.73V185h-6.75v6.41h.58v-5.78M206.36 166.55h37.34v.1h.73v-1.41h-.87v.44h-36.71v-.59h-.88v26.32h.39v-24.86M266.67 193.84h-2.43v.82h-8.11V171.5h10.73v-1.36h-.68v.63h-10.05V160h10.05v6.26h.68v-6.99h-10.73v-15.54h8.11v-.87h2.43v2.42h-2.43v7.29h2.43V155h-.49v.38h.68v-11.65h.85v-.92h-12.16v51.71h-1.61v1.26h12.1v39.33h.63v-41.27M273.66 191.75h-1.12v.49h3.35v-.49h-1.75v-15.2h-.48v15.2"/>
  <path class="p" d="M266.67 191.75h1.51v.49h-1.51zM291.48 191.75h1.89v.49h-1.89zM295.8 191.41h8.16v.49h-8.16zM293.37 154.99h.83v36.41h-.83z"/>
  <path class="o" d="M293.37 235.11h.63v-22.1h2.92v-.48H294v-18.69h-.63v41.27"/>
  <path class="p" d="M262.44 235.11h1.8v2.43h-1.8zM266.67 235.11h2.43v2.43h-2.43z"/>
  <path class="o" d="M291.72 235.35h1.65v-.24h-1.89v2.42h.24v-2.18M307.26 237.53v-24.52H316v-.48h-14.72v.48h5.49v24.52h.49M329.15 237.53h1.22v-44.42h-1.94v-2.19h-.59v3.4h1.31v18.21h-8.78v.48h8.78v24.52M385.5 170.85v11.94h-3.59v-3.32h-.61v3.93h2.38v.24h2.43v-8.08h3.78V177h.61v-2.97h-.61v1.29h-3.78v-4.47h3.78v.75h.61v-1.36h-9.2v5.83h.61v-5.22h3.59"/>
  <path class="p" d="M412.15 171.58h4.78v6.07h-4.78z"/>
  <path class="o" d="M416.94 159.92h-1.7V165.99h1.7v-6.07"/>
  <path class="p" d="M412.15 148.27h4.78v6.07h-4.78zM412.15 160.55h.66v3.54h-.66z"/>
  <path class="o" d="M415.24 138.24v2.92h-2.43v-1.94h-1.7v-25.74h1.7v-.97h-7.28v.97h4.37v12.14h-14.57v-2.34h-.92v6.12h.92v-2.32h14.57v12.04h-14.08v1.07h7.28v-.97h2.43v.97h6.62v2.5h4.79v-1.53h.39v-29.62h-.39v-1.7h-1.7v28.4M386.11 147.23v3.4h.63v-4.23h-3.06v-7.04h-4.47v.49h3.98v10.78h.49v-3.4h2.43"/>
  <path class="p" d="M394.41 135.23h.92v3.88h-.92zM386.11 139.56h7.28v.63h-7.28zM395.82 112.51h7.28v.97h-7.28z"/>
  <path class="o" d="M393.39 112.51h-7.28v1.21h8.3v3.74h.92v-3.98h-1.94v-.97M383.68 111.54h.73v-4.85h-5.54v-.56h-.73v1.28h5.54v4.13M384.41 97.65v-1.16h-.73v.44h-5.54v1.67h.73v-.95h5.54M385.04 93.58v-1.87h-.73v.41h-.63v1.46h1.36M383.68 87.89h.63v.41h.73v-1.28h5.1v-3.89h9.1v3.89h1.21v-1.46h4.61v.49h.49v-.49h11.39v-6.31h-1.7v3.88h-9.71v-.48h-.49v.48h-4.8v-.48h-10.59v3.88h-4.61v-3.76h-.73v.41h-.63zm25.73-4.27h5.83v1.45h-5.83zm-9.71 0h9.23v1.45h-9.23z"/>
  <path class="p" d="M386.11 94.55h7.28v.97h-7.28zM395.82 94.55h7.28v.97h-7.28zM405.53 94.55h7.28v.97h-7.28z"/>
  <path class="o" d="M415.24 93.58v4.61h1.7v-6.8h-1.7v2.19M405.04 89.45v1.21h.49v-.42h9.71v-.49h-9.71v-.3h-.49"/>
  <path class="p" d="M405.04 94.06h.49v.49h-.49z"/>
  <path class="o" d="M405.04 79.25h.49v-.67h9.71v-.48h-9.71v-.42h-.49v1.57M386.11 73.43h18.93v.85h.49v-.85h11.41v-9.84H415v2.68h.24v3.39H415v2.31h-29.62V59.49h-1.22v-.24h-.48V69.4h-2.67v.73h2.67v4.27h2.43v-.97M383.68 78.96h.63v.41h.73V77.8h-1.36v1.16M416.94 58.01v-8.13H415v2.96h-16.66v-4.22h-.73v4.22h-13.2v-4.37h-.73v6.41h.48v-.24h1.22v-.49H415v3.86h1.94M412.47 39.92v1.46H415v2.92h1.94v-6.32h-30.35V.35h-12.62v1.7h12.14v2.92h-1.22v33.01h1.22v1.94h11.5v4.33h.73v-4.33h14.13"/>
  <path class="p" d="M383.68 41.38h.73v2.72h-.73z"/>
  <path class="o" d="M342.12 69.98h21.85v.39h.92v-.24h5.68v-.73h-4.86v-2.28h-.48v2.28h-22.34V54.49h22.34v.13h.48v-.61h-22.82V1.08h-.77v68.9"/>
  <path class="p" d="M365.23 60.42h.49v1.85h-.49z"/>
  <path class="o" d="M366.15 127.81v-52.2h-1.26v-.39h-.92v.39h-2.87v-.63h-2.81v-.58h-1.32v2.04h8.4v49.47h-26.22v.78h26.22v1.12h.78M354.25 75.61h-26.41v2.19h-.29v33.01h.29v3.4h-.43v11.7h-2.63v.78h6.12v-.78h-2.67V76.44h26.32V74.4h-.3v1.21M316.53 125.91H294.2V83.23h1.6v-1.06h-2.43v-.49h-26.7v.49h23.77v1.06h2.79v42.68h-2.58v.78h25.88v-.78M325.42 75.85h-30.5v-3.4h-.68v3.99h.49v3.3h.68v-3.3h30.01v-.59"/>
  <path class="p" d="M294.24 4.48h.68v65.55h-.68z"/>
  <path class="o" d="M269.29 30.89V1.08h-.49v28.75h-9.17v.48h9.17v.58h.49M268.8 38.76l-14.71 11.66v.33h.49v-.09l14.71-11.67v-3.73h-.49v3.5"/>
  <path class="p" d="M254.29 29.83h.97v.49h-.97z"/>
  <path class="o" d="M233.02 29.83v1.01h.48v-.53h16.41v-.48h-16.89M233.02 4v21.46h.48V4.48h1.61V4h-2.09M233.5 38.91v-3.69h-.48v3.2h-26.71V4.48h-.34v65.55h.88v-5.59h30.2v1.22h.48v-3.21l-1.33-7.78-.48.08 1.33 7.74v1.47h-30.2V49.1h27.91l.23 1.34.48-.08-.39-2.25-.48.08.07.43h-27.96v-9.71h26.3l.85 4.97.48-.08-.84-4.89"/>
  <path class="p" d="M208.4 81.53h26.7v.63h-26.7zM237.53 81.53h1.12v.63h-1.12zM237.29 72.46h.24v7.28h-.24z"/>
  <path class="o" d="M245.4 81.53h-1.89v.64h.43v44.03h.49V82.17h.97v-.64M264.24 81.53h-9.66V69.98h-.49v11.55h-1.16v.64h2.38v44.52h27.09v-.78h-26.12V82.17h7.96v-.64"/>
  <path class="p" d="M254.09 55.12h.49v10.49h-.49z"/>
  <path class="o" d="M210.73 4.48V2.05h-.24v2.19h-2.09v.24h2.33"/>
  <path class="p" d="M205.98 72.46h.39v7.28h-.39z"/>
  <path class="o" d="M206.9 82.17h-.93v60.69h.73v-12.72h18.43v6.17l18.43-.01v24.08h.87v-26.65h-.49v1.7H226v-6.17h-19.1V82.17"/>
  <path class="p" d="M205.98 154.99h.87v5.24h-.87zM208.4 154.39h26.7v.61h-26.7z"/>
  <path class="o" d="M206.58 145.28h-.61v7.29h2.43-1.82v-7.29"/>
  <path class="p" d="M273.66 170.39h.49v1.8h-.49z"/>
  <path class="o" d="M274.14 165.53v-21.8h19.23v-.87h2.43v.87h9.32v-.92h-9.32v-.97h-2.43v.97h-19.71v22.72h.48"/>
  <path class="p" d="M293.37 145.28h.83v7.28h-.83z"/>
  <path class="o" d="M313.37 142.81v.92h9.13v-.87h2.43v.55h1.7v3.82h1.21v-3.48h3.98v-.6h-4.39v-5.61h26.19v1.21h.68v-1.21h11.07v13.09h-3.3v.6h4.08v-11.38h3.84v-.49h-3.84v-3.69h-.78v1.26h-38.55v5.88h-13.45M327.84 150.63h-1.21v40.29h1.21v-7.81h2.53v-.61h-2.53v-18.96h2.87v-.61h-2.87v-12.3"/>
  <path class="o" d="M352.24 151.03h1.41v.2h4.07v-4.64h-3.39v-3.47h-18.09v.61h16zm2.09-3.81h2.91v3.4h-2.91zM366.15 163.54v-3.98h-.61v3.37h-11.31v-7.33h-.61v7.33h-2.67v.61h15.2M358.66 196.26v-7.28h-5.87v7.28zm-4.35-5.34h2.93v3.44h-2.91z"/>
  <path class="p" d="M324.93 191.41h.49v.49h-.49zM316.77 191.41h5.73v.49h-5.73zM354.16 2.05h.39v2.91h-.39zM118.58 141.64h2.43v1.21h-2.43zM176.84 141.64h2.43v1.21h-2.43zM176.84 82.17h2.43v1.21h-2.43zM118.58 82.17h2.43v1.21h-2.43z"/>
  <path class="o" d="M373.81 237.53v1.7h12.79v-52.19h30.34v-3.81h-1.7V186.55h-2.43v-2.91h-.66v.78H390.5v-2.57h-.61v2.57h-3.78v2.62h-1.41v33.02h1.41v3.39h-2.43v.64h1.02v10.53h1.41v2.91H373.81M4.48 204.28v1.21h26.7v29.62h1.22v-4.18h19.03v-.82H32.4v-25.35h1.82v-2.3h-.61v-8.62h-.73v8.62h-4.49v1.82h-7.4v-5.1h-1.22v5.1H4.48M33.61 237.53h-2.43v1.7h4.86v-1.7h-2.43M4.48 190.92h-.73v12.14h.73v-10.92h15.29v1.21h1.22v-6.51h4.13v-7.23H23.9v6.22H4.48v-15.66H23.9v3.61h1.22v-7.76H23.9v2.93H4.48v.61h-.73v18.94h.73v-.97h15.29v3.39H4.48"/>
  <path class="a" d="M2.05 98.19H.35M2.05 109.84H.35M.35 74.64h1.7M.35 116.88h1.7M.35 44.29h1.7M.35 67.6h1.7M.35 91.83h1.7M234.6 48.19l.48-.08M8.85 71.92h-.48M31.19 108.04h2.42M31.19 99.64h2.42M23.9 185.83v-6.22M4.48 185.83v-15.66M118.58 193.84h2.43M121.01 191.41h-2.43M121.01 235.11h-2.43M19.78 204.28H4.48M23.9 185.83H4.48M19.78 192.14H4.48M4.48 192.14v12.14M19.78 204.28v-5.1M33.61 235.11v2.42M32.4 235.11h1.21M62.74 193.84v-2.43M60.32 191.41v2.43M60.32 193.84h2.42M62.74 191.41h-2.42M89.45 235.11h2.43M91.88 237.53v-2.42M89.45 235.11v2.42M89.45 193.84h2.43M91.88 193.84v-2.43M91.88 191.41h-2.43M89.45 191.41v2.43M118.58 235.11v2.42M118.58 191.41v2.43M121.01 237.53v-2.42M121.01 193.84v-2.43M150.14 237.53v-2.42M150.14 235.11h-2.43M147.71 235.11v2.42M147.71 193.84h2.43M150.14 193.84v-2.43M150.14 191.41h-2.43M147.71 191.41v2.43M179.27 237.53v-2.42M179.27 235.11h-2.43M176.84 235.11v2.42M176.84 193.84h2.43M179.27 193.84v-2.43M179.27 191.41h-2.43M176.84 191.41v2.43M208.4 237.53v-2.42M205.98 165.09v72.44M208.4 235.11h-2.13M208.4 193.25v-1.84M237.53 237.53v-2.42M237.53 235.11h-2.42M235.11 235.11v2.42M236.95 191.41h-1.84M235.11 191.41v1.84M266.67 235.11v-42.88M266.67 191.41h-2.43M295.8 237.53v-2.42M295.8 235.11H294M293.37 235.35v2.18M294 193.84h1.8M295.8 193.84v-1.95M303.95 191.41h-9.75M416.94 187.04H386.6M322.5 193.84h2.43M324.93 235.11h-2.43M322.5 235.11v2.42M322.5 191.89v1.95M327.84 237.53v-2.91M327.84 234.62h-2.42M325.42 234.62v2.91M324.93 237.53v-2.42M325.42 194.32h3.73M326.63 190.92h-1.21M325.42 190.92v.49M324.93 193.84v-1.95M357.22 234.62h-2.92M354.3 234.62v2.91M357.22 237.53v-2.91M386.6 239.23v-52.19M383.68 234.62v2.91M383.68 220.06v4.03M412.15 183.64h3.09M121.01 4.48h-2.43M118.58 72.46h2.43M121.01 79.74h-2.43M118.58 145.28h2.43M121.01 152.57h-2.43M118.58 154.99h2.43M4.48 39.68h26.71M23.9 95.52h7.29M24.05 94.55h8.64M31.19 112.51H23.9M2.05 113.48h30.11M.35 133.1h1.7M2.05 94.55v-2.72M4.48 95.52h7.28M11.76 112.51H4.48M23.9 152.57H4.48M4.48 168.95H23.9M4.48 170.17H23.9M2.05 142.86h2.43M4.48 142.86v2.42M4.48 145.28H2.05M2.05 145.28v4.42M4.48 152.57v16.38M4.48 95.52v.97M4.48 96.49H2.05M2.05 94.55h5.83M2.05 142.86v-9.76M2.05 116.88v-3.4M4.48 112.51v-.97M4.48 111.54H2.05M2.05 111.54v-1.7M2.05 98.19v-1.7M8.37 94.55h14.95M14.19 95.52h7.28M21.47 112.51h-7.28M14.19 95.52v.97M14.19 96.49h-2.43M11.76 96.49v-.97M14.19 112.51v-.97M14.19 111.54h-2.43M11.76 111.54v.97M23.9 95.52v.97M23.9 96.49h-2.43M21.47 96.49v-.97M23.9 112.51v-.97M23.9 111.54h-2.43M21.47 111.54v.97M.35 37.98H30.7M.35 204.28V133.1M.35 116.88v-7.04M.35 98.19v-6.36M.35 74.64V67.6M.35 44.29v-6.31M4.48 39.68v1.22M4.48 40.9H2.05M2.05 70.03h23.02M2.05 72.46h2.43M4.48 72.46v-1.51M30.7.35v37.63M32.69 72.46v6.06M31.19 142.86v2.42M31.19 145.28h1.45M32.64 145.28v4.42M31.19 152.57v2.42M31.19 82.17h1.5M31.19 79.01v3.16M39.29 100.25h-.97M39.29 100.25v-1.87M38.32 100.25v-.9M39.29 107.78h-.97M39.29 107.78v1.87M38.32 107.78v.9M33.61 99.64v-.29M33.61 98.38v-4.8M31.19 95.52v4.12M33.61 108.04v.64M33.61 109.65v15.34M31.19 108.04v4.47M62.74 145.28v-2.42M60.32 142.86v2.42M60.32 145.28h2.42M62.74 152.57h-2.42M60.32 154.99h2.42M62.74 154.99v-2.42M60.32 152.57v2.42M62.74 82.17v-2.43M60.32 79.74v2.43M60.32 82.17h2.42M62.74 79.74h-2.42M32.4 4.48v33.99M32.16 40.9h-.97M31.19 40.9v-1.22M32.4 38.47h1.21M33.61 38.47v11.89M31.19 70.95v1.51M31.19 72.46h1.5M33.61 4.48V2.05M32.4 4.48h1.21M62.74 72.46v-2.43M60.32 70.03v2.43M60.32 72.46h2.42M62.74 70.03h-2.42M62.74 4.48V2.05M60.32 2.05v2.43M60.32 4.48h2.42M89.45 145.28h2.43M91.88 145.28v-2.42M91.88 142.86h-2.43M89.45 142.86v2.42M91.88 152.57h-2.43M89.45 154.99h2.43M91.88 154.99v-2.42M89.45 152.57v2.42M89.45 82.17h2.43M91.88 82.17v-2.43M91.88 79.74h-2.43M89.45 79.74v2.43M118.58 142.86v2.42M118.58 152.57v2.42M118.58 79.74v2.43M89.45 72.46h2.43M91.88 72.46v-2.43M91.88 70.03h-2.43M89.45 70.03v2.43M89.45 4.48h2.43M91.88 2.05v2.43M89.45 4.48V2.05M118.58 70.03v2.43M118.58 4.48V2.05M121.01 145.28v-2.42M121.01 154.99v-2.42M121.01 82.17v-2.43M147.71 145.28h2.43M150.14 145.28v-2.42M150.14 142.86h-2.43M147.71 142.86v2.42M150.14 152.57h-2.43M147.71 154.99h2.43M150.14 154.99v-2.42M147.71 152.57v2.42M147.71 82.17h2.43M150.14 82.17v-2.43M150.14 79.74h-2.43M147.71 79.74v2.43M121.01 72.46v-2.43M121.01 2.05v2.43M147.71 72.46h2.43M150.14 72.46v-2.43M147.71 70.03v2.43M150.14 2.05v2.43M150.14 4.48h-2.43M147.71 4.48V2.05M206.36 79.74v-7.28M176.84 145.28h2.43M179.27 145.28v-2.42M176.84 142.86v2.42M179.27 152.57h-2.43M176.84 154.99h2.43M179.27 154.99v-2.42M176.84 152.57v2.42M179.27 82.17v-2.43M179.27 79.74h-2.43M176.84 79.74v2.43M208.4 81.53v-1.79M208.4 79.74h-2.04M176.84 72.46h2.43M179.27 72.46v-2.43M176.84 70.03v2.43M179.27 2.05v2.43M179.27 4.48h-2.43M176.84 4.48V2.05M208.4 72.46v-2.43M206.36 72.46h2.04M208.4 70.03h-1.5M208.4 2.05v2.19M235.11 154.99h2.42M237.29 79.74h-2.18M235.11 79.74v1.79M235.11 72.46h2.18M237.53 70.03h-2.42M235.11 70.03v2.43M237.53 2.05v2.43M237.53 4.48h-4.03M235.11 4V2.05M264.24 154.99v-11.26M264.24 154.99h1.94M266.67 79.74h-2.43M264.24 79.74v1.79M294.2 145.28h1.6M295.8 145.28v-1.55M295.8 152.57h-1.6M294.2 154.99h1.6M295.8 154.99v-2.42M295.8 83.23v-3.49M295.8 79.74h-.39M293.37 79.74v1.94M264.24 72.46h2.43M266.67 81.68v-1.94M266.67 70.03h-2.43M264.24 70.03v2.43M264.24 4.48h2.43M264.24 4.48V2.05M266.67 2.05v2.43M293.37 72.46h.87M295.8 72.46v-2.43M295.8 70.03h-.88M293.37 70.03v2.43M295.8 2.05v2.43M295.8 4.48h-.88M293.37 4.48V2.05M386.11 39.92h11.5M386.11 95.52h7.28M386.11 113.73h8.3M386.11 112.51h7.28M405.04 94.55h-18.93M386.59 37.98h30.35M324.93 79.74h-2.43M322.5 82.17h2.43M322.5 145.28h2.43M324.93 152.57h-2.43M322.5 154.99h2.43M322.5 143.73v1.55M322.5 152.57v2.42M322.5 79.74v2.43M325.42 150.63h1.21M326.63 147.23h-1.21M325.42 147.23v3.4M324.93 145.28v-1.86M324.93 154.99v-2.42M324.93 82.17v-2.43M325.42 77.8h2.13M327.84 75.61V74.4M327.84 74.4h-2.42M325.42 74.4v1.45M325.42 114.21h1.99M327.55 110.81h-2.13M325.42 110.81v3.4M324.93 4.48h-2.43M322.5 72.46h2.43M324.93 70.03h-2.43M322.5 70.03v2.43M322.5 4.48V2.05M325.42 41.38h2.42M327.84 41.38v-3.4M327.84 37.98h-2.42M325.42 37.98v3.4M324.93 72.46v-2.43M327.84 2.05h-2.42M324.93 2.05v2.43M327.84 2.05v2.92M327.84 4.97h-2.42M325.42 4.97V2.05M357.22 110.81h-2.92M354.3 114.21h2.92M354.3 110.81v3.4M357.22 114.21v-3.4M386.11 139.22v.34M383.68 139.12h2.43M386.11 77.8v-4.37M385.04 77.8h1.07M386.11 94.55v-.97M386.11 93.58h-1.07M386.11 96.49v-.97M386.11 96.49h-1.7M378.14 98.6h.73M378.87 98.6v-.95M378.87 97.65h5.54M378.14 98.6v-1.67M378.14 96.93h5.54M383.68 114.45h2.43M386.11 114.45v-.72M378.14 106.13h.73M383.68 114.45v-2.91M378.14 106.13v1.28M378.87 106.13v.55M386.11 111.54v.97M384.89 4.97v33.02M386.59.35v37.63M383.68 44.1v-6.11M386.11 41.38v-1.46M386.11 41.38h-1.7M384.89 37.99h-1.21M383.68 2.05h-9.71M373.97 2.05V.35M373.97.35h12.62M384.84 4.97h-1.16M383.68 4.97V2.05M416.94 63.59v9.84M412.81 96.49h2.43M415.24 93.58h-2.43M412.81 114.45h2.43M412.81 111.54h2.43M415.24 138.24h-2.43M415.24 164.1h-3.09M394.41 129.4v-6.11M395.33 127.08h14.57M395.33 127.08v2.32M394.41 139.12v-3.89M395.33 139.12v-3.89M411.11 139.22h1.7M412.81 138.24v.98M403.1 141.16v-.97M403.1 141.16h2.43M405.53 141.16v-.97M405.53 140.19h6.62M395.33 113.48h14.57M395.82 112.51h7.28M395.82 95.52h7.28M395.33 125.62h14.57M393.39 95.52v.97M393.39 96.49h2.43M395.82 96.49v-.97M395.33 113.48v3.98M393.39 112.51v-.97M393.39 111.54h2.43M395.82 111.54v.97M395.33 125.62v-2.33M412.81 94.55h-7.28M412.81 93.58v.97M412.81 95.52v.97M403.1 95.52v.97M403.1 96.49h2.43M405.53 96.49v-.97M405.53 95.52h7.28M412.81 113.48h-1.7M412.81 113.48v.97M412.81 112.51v-.97M403.1 112.51v-.97M403.1 111.54h2.43M405.53 111.54v.97M405.53 112.51h7.28M409.9 125.62v-12.14M415.24 138.24v-23.79M416.94 79.25v6.31M416.94 91.39v6.8M415.24 79.25v3.89M415.24 98.19v-1.7M415.24 93.58v-2.19M415.24 111.54v-1.7M415.24 98.19h1.7M415.24 109.84h1.7M415.24 79.25h1.7M405.53 73.43h11.41M415.24 91.39h1.7M414.99 41.38h-2.52M412.47 39.92v1.46M416.94 49.88v8.13M416.94 44.29v-6.31M414.99 49.88v2.96M414.99 41.38v2.91M414.99 63.59v2.67M414.99 58.01h1.95M414.99 63.59h1.95M414.99 44.29h1.95M414.99 49.88h1.95M354.16 2.05h2.91M378.87 106.68h5.54M378.14 107.41h5.54M383.68 107.41v4.13M384.41 106.68v4.86M25.12 151.35v3.01M23.9 152.57v1.79M411.11 139.22v-25.74M409.9 139.12v-12.04M403.1 140.19h-7.28M393.39 141.16v-.97M393.39 141.16h2.43M395.82 141.16v-.97M36.04 239.23H32.4M36.04 239.23v-1.7M36.04 237.53h-2.43M208.4 2.05h-2.42M237.53 2.05h-2.42M179.27 2.05h-2.43M150.14 2.05h-2.43M121.01 2.05h-2.43M91.88 2.05h-2.43M62.74 2.05h-2.42M43.32.35H30.7M43.32.35v1.7M43.32 2.05h-9.71M235.11 145.28h2.42M237.53 145.28v-2.42M237.53 142.86h-2.42M235.11 142.86v2.42M237.53 152.57h-2.42M237.53 154.99v-2.42M235.11 152.57v1.82M208.4 142.86h-1.7M206.85 154.99h1.55M208.4 154.39v-1.82M205.98 2.05v158.19M206.32 193.84h28.79M208.4 191.41h-2.04M386.6 239.23h-12.79M373.81 239.23v-1.7M373.81 237.53h9.87M25.12 173.78v-7.76M25.12 186.85v-7.24M20.99 204.28v-5.1M20.99 193.35v-6.5M23.9 166.02v2.93M32.4 204.76v25.35M34.22 204.76v-2.3M28.39 202.46h4.49M33.61 202.46h.61M28.39 204.28h-7.4M28.39 204.28v-1.82M386.74 150.63h-3.55M412.15 160.55h3.09M412.15 154.34h4.79M412.15 142.69h4.79M416.94 142.69v-1.53M412.15 148.27h4.79M416.94 154.34v-6.07M415.24 159.92h1.7M415.24 160.55v-.63M415.24 165.99v-1.89M415.24 165.99h1.7M416.94 165.99v-6.07M412.15 171.58h4.79M412.15 177.64h4.79M416.94 177.64v-6.06M416.94 187.04v-3.81M415.24 183.64v-.41M415.24 183.23h1.71M386.11 141.16h-2.43M383.68 139.12v.24M32.4 204.76h1.82M33.61 70.03v18.69M2.05 70.03V67.6M2.05 44.29V40.9M405.04 73.43h-18.93M405.53 83.14h9.71M405.53 90.24h9.71M405.53 89.75h9.71M399.22 83.14v3.88M400.43 85.56v1.46M405.04 86.05h.49M405.04 89.45h.49M405.53 86.05v-.49M405.04 86.05v-.49M405.53 85.56h11.41M405.04 90.66h.49M405.53 90.66v-.42M405.53 89.75v-.3M405.04 90.66v-1.21M390.14 87.02h-5.1M405.04 83.14h-4.85M405.04 85.56h-4.61M385.04 77.8v1.57M390.14 83.14v3.88M389.65 86.54h-4.61M389.65 82.65v3.89M400.19 82.65h-10.54M399.22 83.14h-9.08M400.43 87.02h-1.21M400.19 82.65v.49M405.04 77.68v1.57M405.53 78.1h9.71M405.53 77.68v.42M405.04 77.68h.49M405.53 78.58h9.71M405.53 78.58v.67M405.04 82.65v.49M405.04 79.25h.49M405.04 82.65h.49M405.53 82.65v.49M405.04 74.28h.49M405.04 73.43v.85M405.53 73.43v.85M384.31 92.12h-.63M384.31 87.89h-.63M384.31 83.19h-.63M384.31 78.96h-.63M385.04 79.37h-.73M385.04 82.77h-.73M385.04 82.77v3.77M384.31 82.77v.42M385.04 91.71v1.87M385.04 88.31h-.73M384.31 87.89v.42M384.31 91.71v.41M385.04 91.71h-.73M385.04 87.02v1.29M383.68 83.19v4.7M383.68 92.12v4.81M384.41 44.1v-2.72M384.41 48.47v4.37M384.41 52.84h13.2M397.61 52.84v-4.22M397.61 44.25v-4.33M398.34 44.25v-4.33M398.34 48.62v4.22M414.99 52.84h-16.65M414.99 54.15h-29.61M383.68 48.47v6.41M383.68 59.25V69.4M414.99 71.97h-29.61M385.38 71.97V59.49M385.38 54.64v-.49M370.57 69.4h-4.86M384.41 96.49v1.16M383.68 69.4h-2.67M365.71 69.4v-2.28M365.71 54.01h-22.82M383.68 70.13h-2.67M370.57 70.13h-5.68M364.89 70.13v.24M364.89 75.22v.39M364.89 75.61h1.26M366.15 75.61v52.2M366.15 135.67v3.69M386.11 139.56h7.28M383.68 139.36h-4.47M369.99 139.36h-3.84M379.21 139.36v.49M369.99 139.85v-.49M342.12 1.08v68.9M363.97 69.98v.39M363.97 75.22v.39M294.92 4.48v65.55M294.92 75.85h30.5M327.84 75.61h26.42M361.1 75.61h2.87M358.29 74.98v-.58M254.29 29.83h.97M259.63 29.83h9.17M268.8 29.83V1.08M269.29 1.08v29.81M269.29 35.26v3.73M249.92 29.83h-16.9M249.92 30.31H233.5M233.5 25.46V4.48M233.02 25.46V4M206.32 4.48h4.41M208.4 4.24h2.09M210.73 4.48V2.05M210.49 4.24V2.05M206.32 38.42h26.7M206.85 49.1h27.91M206.85 63.96h30.2M208.4 81.53h26.71M233.5 25.46h-.48M233.02 38.42v-3.2M233.02 30.85v-1.02M233.02 35.22h.48M233.02 30.85h.48M233.5 35.22v3.69M233.5 30.31v.54M254.29 30.31h.97M254.29 30.31v-.48M249.92 29.83v.48M255.26 30.31v-.48M259.63 29.83v.48M259.63 30.31h9.17M268.8 30.89h.49M268.8 35.26h.49M237.29 72.46v7.28M237.05 64.44h-30.2M233.01 38.91l.85 4.97M234.6 48.19l.07.43M233.5 38.91l.84 4.89M235.08 48.11l.38 2.25M206.85 49.1v14.86M206.9 82.17h31.75M243.51 82.17h.43M252.93 82.17h2.37M237.53 81.53h1.12M243.51 81.53h1.89M252.93 81.53h1.16M206.71 38.91v9.71M206.32 38.42V4.48M266.67 81.68h26.7M294.24 70.03V4.48M254.58 55.12v10.49M254.58 69.98v11.55M254.09 55.12v10.49M254.09 69.98v11.55M254.58 69.98h-.49M254.58 65.61h-.49M237.53 81.53v-11.5M268.8 30.31v.58M268.8 35.26v3.5M254.58 55.12h-.49M254.58 50.75h-.49M254.58 50.65l14.71-11.66M254.09 50.75v-.33M254.09 50.42l14.71-11.66M254.58 50.75v-.1M234.99 50.44l.47-.08M233.86 43.88l.48-.08M365.37 76.44v49.47M328.23 125.91V76.44M327.55 77.8v33.01M354.55 76.44h-26.32M356.97 76.44h8.4M330.9 125.91v.78M339.16 125.91v.78M365.37 135.67v1.26M365.37 137.54v13.09M365.37 126.69h-26.21M330.9 126.69h-6.12M316.53 126.69h-25.88M282.4 126.69h-27.1M255.3 126.69V82.17M256.28 82.17v43.74M256.28 125.91h26.12M290.65 125.91h2.57M324.78 125.91h2.63M339.16 125.91h26.21M327.41 114.21v11.7M282.4 126.69v-.78M290.65 126.69v-.78M325.42 76.44h-30.01M294.73 76.44h-.49M244.43 194.52V190M244.43 185.63v-11.46M244.43 166.65v-1.41M244.43 160.38v-26.65M244.43 126.2V82.17M243.56 165.68v-.44M243.56 160.38V136.3M243.94 82.17v44.03M243.94 133.73v1.7M243.94 135.43H226M243.56 136.3l-18.43.01M226 135.43v-6.16M225.13 136.31v-6.17M226 129.27l-19.1-.01M225.13 130.14H206.7M206.9 129.26V82.17M243.51 82.17v-.64M238.65 82.17v-.64M252.93 81.53v.64M245.4 81.53v.64M243.94 133.73h.49M243.94 126.2h.49M244.43 194.52h4.66M253.95 194.52h1.6M255.55 194.52v-51.71M326.82 136.93h38.55M327.43 137.54h26.19M354.3 137.54h11.07M326.82 136.93v5.88M327.43 137.54v5.61M326.82 142.81h-13.45M326.63 143.42h-1.7M305.12 142.81v.92M313.37 142.81v.92M267.71 142.81v.92M273.66 142.81v22.72M273.66 142.81h19.71M295.8 142.81v-.97M295.8 141.84h-2.43M293.37 141.84v.97M267.71 142.81h-12.16M264.24 143.73h-8.11M256.13 143.73v15.54M256.13 159.27h10.73M266.18 160h-10.05M266.18 170.77h-10.05M274.14 191.75h1.75M256.13 171.5h10.73M266.86 171.5v-1.36M266.86 166.26v-6.99M266.86 155.38v-11.65M266.18 154.99v.39M266.18 155.38h.68M266.86 143.73h.85M273.66 170.39v1.79M266.18 160v6.26M266.18 170.14v.63M266.18 166.26h.68M266.18 170.14h.68M274.14 143.73v21.8M274.14 176.55v15.2M274.14 165.53h-.48M274.14 170.39h-.48M273.66 172.18h.48M273.66 176.55h.48M274.14 143.73h19.23M273.66 176.55v15.2M273.66 191.75h-1.12M268.17 191.75h-1.5M272.54 192.23h3.35M256.13 194.66h8.11M264.24 191.41v3.25M272.54 191.75v.48M268.17 191.75v.48M275.89 191.75v.48M291.48 191.75v.48M293.37 192.23v42.88M266.67 235.11h2.42M269.09 235.11v2.42M293.37 235.11h-1.89M293.37 235.35h-1.65M291.48 235.11v2.42M291.72 235.35v2.18M268.17 192.23h-1.5M253.95 194.52v1.26M249.09 194.52v1.26M247.92 195.78h1.17M253.95 195.78h12.09M247.92 195.78v41.75M206.85 165.68h36.71M206.36 191.41v-24.86M235.11 193.25H208.4M236.95 191.41V185M236.95 185h6.75M243.7 166.55h-37.34M244.43 190h-.92M244.43 185.63h-6.9M244.43 174.17h-.73M243.7 166.65h.73M206.27 204.13h14.13M224.77 204.13h.34M230.4 204.13h16.65M206.32 203.64h14.08M224.77 203.64h1.26M230.4 203.64h16.65M243.51 195.39h3.54M243.51 190v5.39M235.11 193.84v1.55M235.11 195.39h2.42M237.53 195.39v-9.76M247.05 195.39v8.25M243.7 185v-10.83M230.4 203.64v.49M226.03 203.64v.49M224.77 203.64v.49M220.4 203.64v.49M206.32 203.64v-9.8M247.05 237.53v-33.4M225.69 237.53v-33.4M225.11 237.53v-33.4M206.27 204.13v30.98M305.12 143.73h-9.32M325.42 191.41h-8.65M316.77 191.41v.48M316.77 191.89h5.73M324.93 191.89h.49M303.95 191.89v-.48M303.95 191.89h-8.15M294.2 191.41v-36.42M326.63 190.92v-40.29M328.43 193.11h1.94M330.37 193.11v44.42M294 212.53h2.91M301.28 212.53H316M320.37 212.53h8.78M294 193.84v18.69M296.91 212.53v.49M301.28 212.53v.49M320.37 212.53v.49M316 212.53v.49M329.15 212.53v-18.21M329.15 213.02v24.51M307.26 213.02v24.51M320.37 213.02h8.78M316 213.02h-8.74M296.91 213.02H294M383.68 224.09h1.02M384.7 220.06v-33.02M384.7 224.09v10.53M350.95 163.54h15.2M328.43 190.92v2.19M366.15 159.56h-.61M365.54 159.56v3.37M365.54 162.93h-11.31M366.15 159.56v3.98M353.62 151.23h4.08M362.07 151.23h4.08M365.37 150.63h-3.3M366.15 139.85h3.84M379.21 139.85h3.98M327.84 190.92v-7.81M327.84 190.92h.59M353.62 162.93h-2.67M331.82 143.75h-3.98M353.62 143.15h-17.43M331.82 143.15h-4.39M326.63 147.23v-3.81M331.82 143.75v-.6M336.19 143.15v.6M354.23 155.6h-.61M353.62 151.04h-1.4M354.3 137.54v1.21M354.3 143.12v3.48M353.62 143.15v-.03M353.62 138.75v-1.21M354.3 138.75h-.68M354.3 143.12h-.68M357.7 151.23v-4.63M354.3 146.6h3.4M362.07 150.63v.6M330.71 162.93v.61M330.37 182.5v.61M383.68 187.04v-3.64M383.68 183.4h-2.38M381.3 183.4v-3.93M381.91 182.79v-3.32M381.3 179.47h.61M381.3 176.07h.61M381.3 170.24v5.83M381.91 170.85v5.22M390.5 184.42v-2.57M390.5 177v-2.97M390.5 171.6v-1.36M389.89 184.42v-2.57M389.89 177v-1.44M389.89 171.6v-.75M381.3 170.24h9.2M381.91 170.85h3.59M381.91 182.79h3.59M386.11 170.85v4.47M385.5 182.79v-11.94M390.5 184.42h21.65M412.15 184.42v-.78M412.15 164.1v-3.55M412.15 142.69v-2.5M393.39 140.19h-7.28M2.05 55.61h30.11M33.61 62.55H25.6M25.6 62.55v7.48M32.16 55.22v.39M32.16 61.82h-7.09M25.07 61.82v8.21M2.05 56.43h30.11M32.16 40.9v9.46M32.16 61.34v.48M33.61 61.34v1.21M29.97 70.95h1.22M24.05 79.01h3.49M8.85 78.52h7.28M1.57 80.71h6.8M1.57 81.07h.48M8.37 90.91h-.49M8.37 94.3h-.49M2.05 81.44h5.83M7.88 94.55v-.25M7.88 90.91v-9.47M12.74 81.44h10.58M8.37 86.78h.24M8.37 87.26h.24M12.74 81.44v5.34M12.25 81.44v5.34M8.37 81.44h3.88M8.37 86.78v-5.34M12.74 86.78h6.59M22.73 87.26v-.48M19.33 87.26v-.48M12.01 87.26v-.48M8.61 87.26v-.48M22.73 86.78h.59M22.73 87.26h.59M12.01 87.26h7.32M12.01 86.78h.24M8.37 94.55v-.25M8.37 90.91v-3.65M24.05 79.01v6.46M24.05 89.93h-.73M24.05 94.3h-.73M24.05 94.3v.25M23.32 94.3v.25M23.32 81.44v5.34M4.48 70.95h3.89M8.85 70.95h16.99M33.61 88.72h-.92M33.61 93.58h-.92M32.69 93.58v.97M32.69 82.17v3.3M32.4 230.93h19.03M32.4 230.11h19.03M32.16 129.84h1.45M32.16 129.84v13.02M32.16 124.99h1.45M32.16 113.48v11.51M16.62 75.61h-.49M16.13 75.61v2.91M16.62 75.61v2.91M8.85 71.92v-.97M8.37 71.92v-.97M8.85 78.52v-3.2M29.97 70.03h3.64M56.97 230.93v6.6M57.79 230.11v5M63.67 235.11v2.42M25.84 70.03v.92M33.61 56.48h-1.45M33.61 61.34h-1.45M33.61 55.22h-1.45M33.61 50.36h-1.45M29.97 70.03v.92M24.05 86.2h8.64M24.05 85.47h8.64M2.05 149.7h30.59M33.61 55.22v1.26M370.57 69.4v.73M381.01 69.4v.73M385.38 54.64h-1.22M385.38 59.49h-1.22M384.41 44.1h-.73M383.68 48.47h.73M397.61 44.25h.73M397.61 48.62h.73M365.71 67.12h-.48M364.89 70.37h-.92M364.89 75.22h-.92M365.37 127.81h.78M365.37 135.67h.78M244.43 165.24h-.87M206.7 142.86v-12.72M244.43 160.38h-.87M206.85 154.99v5.25M206.85 165.09v.59M205.98 165.09h.87M205.98 160.24h.87M243.7 166.65v-.1M405.04 94.06h.49M405.53 94.06v.49M405.04 94.06v.49M395.33 139.12h14.57M294.2 152.57v-7.29M294.92 72.46v3.39M294.73 79.74v-3.3M294.24 76.44v-3.98M262.44 235.11v2.42M266.04 235.11h-3.6M32.16 142.86h-.97M23.9 173.78v-3.61M19.78 193.35v-1.21M23.32 87.26v2.67M24.05 86.2v3.73M32.69 86.2v2.52M2.05 74.64v-2.18M384.7 234.62h-1.02M394.41 113.73v3.73M384.41 111.54h1.7M398.34 39.92h14.13M414.99 54.15v3.86M384.31 78.96v.41M386.11 140.19v.97M386.74 150.63v-4.23M386.11 170.85h3.78M383.19 150.63v-10.78M389.89 184.42h-3.78M384.7 220.06h-1.02M384.7 187.04h-1.02M306.77 213.02h-5.49M294 213.02v22.09M306.77 213.02v24.51M118.58 70.03h2.43M147.71 70.03h2.43M176.84 70.03h2.43M313.37 143.73h9.13M325.42 191.89v2.43M295.8 142.81h9.32M266.04 195.78v39.33M266.67 191.75v-.34M291.48 191.75h1.89M291.48 192.23h1.89M225.69 204.13h.34M237.53 237.53h-2.42M208.4 237.53h-2.42M179.27 237.53h-2.43M150.14 237.53h-2.43M121.01 237.53h-2.43M89.45 237.53h2.43M60.32 237.53h2.42M32.4 230.93v4.18M55.8 230.11h1.99M55.8 230.93h1.17M31.19 191.41v2.43M31.19 193.84h1.69M32.4 191.41h-1.21M256.13 171.5v23.16M256.13 160v10.77M244.43 82.17h.97M256.28 82.17h34.17M254.58 81.53h9.66M266.67 72.46v-2.43M206.85 64.44v5.59M234.76 49.1l.23 1.34M206.71 48.62h27.96M32.16 56.43v.05M27.54 79.01v-.49M30.94 79.01h.25M30.94 78.52h1.75M25.6 70.03h.24M206.71 38.91h26.3M294.2 4.48h-.83M294.24 70.03h-.87M294.92 72.46h.88M294.73 79.74h-1.36M363.97 69.98h-21.85M365.23 69.4h-22.34M365.71 54.62v-.61M383.68 70.13v8.83M414.99 71.97v-2.31M330.71 163.54h-2.87M330.71 162.93h-2.87M330.37 183.11h-2.53M330.37 182.5h-2.53M327.84 182.5v-18.96M352.22 143.75h-16.03M325.42 76.44v1.36M16.62 78.52h10.92M8.37 75.32h.48M295.41 76.44v3.3M324.93 2.05h-2.43M327.84 162.93v-19.18M274.14 170.39v1.79M293.37 143.73v48.02M328.23 125.91h2.67M365.37 126.69v1.12M294.2 125.91h22.33M414.99 66.26h-2.18M412.81 66.26v3.4M412.81 69.66h2.18M415.24 78.58v-.48M415.24 90.24v-.49M394.41 139.12h-1.02M393.39 139.12v.44M329.15 237.53h1.22M357.22 237.53h-2.92M327.84 237.53h-2.42M324.93 237.53h-2.43M295.8 237.53h-2.43M291.48 237.53h.24M57.79 237.53h-.82M55.8 230.11v.82M51.43 230.93v-.82M210.49 2.05h.24M30.94 78.52v.49M264.24 2.05h2.43M268.8 1.08h.49M295.8 2.05h-2.43M356.97 76.44v1.36M356.97 77.8h-2.42M354.55 77.8v-1.36M354.16 2.05v2.92M354.16 4.97h2.91M357.07 4.97V2.05M350.95 162.93v.61M342.89 1.08h-.77M306.77 237.53h.49M247.92 237.53h-.87M225.69 237.53h-.58M365.71 54.62h-.48M342.89 1.08v52.93M365.23 69.4v-2.28M316.53 126.69v-.78M324.78 126.69v-.78M366.15 139.85v11.38M352.22 143.75v7.29M353.62 162.93v-7.33M353.62 151.23v-.19M354.23 162.93v-7.33M352.79 188.98h5.87M358.66 188.98v7.28M358.66 196.26h-5.87M352.79 196.26v-7.28M237.05 65.66v-1.22M237.05 62.49l-1.33-7.74M235.72 54.75l.48-.08M237.53 62.45v3.21M237.53 65.66h-.48M354.26 74.4v1.21M354.26 74.4h4.03M237.05 63.96v-1.47M236.2 54.67l1.33 7.78M342.89 54.49V69.4M383.68 146.4h3.06M412.15 177.64v-6.06M412.15 154.34v-6.07M386.11 175.32h3.78M386.11 175.56h3.78M19.78 199.18h1.21M20.99 193.35h-1.21M25.12 186.85h-4.13M25.12 173.78H23.9M23.9 166.02h1.22M23.9 154.36h1.22M23.9 179.61h1.22M33.61 167.13h-2.42M31.19 167.13v2.43M31.19 169.56h1.21M33.61 193.84v-26.71M33.13 181.8v-11.03M8.37 80.71v-5.39M395.33 135.23h-.92M395.33 129.4h-.92M394.41 117.46h.92M394.41 123.29h.92M62.74 38.47v2.43M62.74 38.47h-2.42M60.32 40.9h2.42M33.61 154.99v-25.15M63.67 237.53h-5.88M293.22 83.23v42.68M294.2 83.23v42.68M386.11 175.56v8.86M389.89 175.32v-1.29M383.68 146.4v-5.24M269.09 237.53h-6.65M365.71 62.26h-.48M365.71 60.42h-.48M365.23 62.26v-1.84M365.71 62.26v-1.84M365.23 54.49h-22.34M384.16 54.88h-.48M384.16 59.25h-.48M208.4 145.28v-2.42M206.58 152.57v-7.29M416.94 111.54v-1.7M417.33 141.16v-29.62M2.05 56.43v-.82M2.05 81.44v-.37M1.57 81.07v-.36M33.61 98.38h5.68M38.32 99.35h-4.71M365.23 54.62v-.13M384.16 54.64v.24M384.16 59.49v-.24M208.4 152.57h-1.82M206.58 145.28h1.82M208.4 154.39h26.71M208.4 154.99h26.71M416.94 141.16h.39M417.33 111.54h-.39M295.8 83.23h-1.6M293.22 83.23h-2.77M290.45 83.23v-1.06M358.29 74.98h2.81M361.1 74.98v.63M235.11 4h-2.09M389.89 174.03h.61M389.89 171.6h.61M389.89 181.85h.61M389.89 177h.61M57.79 235.11h5.88M33.61 193.84v8.62M32.88 193.84v8.62M32.4 169.56v1.21M32.4 170.77h.73M33.61 154.99h-2.42M31.19 152.57v-1.22M31.19 151.35h-6.07M32.4 181.8h.73M32.4 181.8v9.61M33.61 109.65h5.68M33.61 108.68h4.71M33.61 98.38h5.68M33.61 99.35h4.71M2.05 81.44v-.37M1.57 81.07v-.36M121.01 82.17v1.21M121.01 83.38h-2.43M118.58 83.38v-1.21M179.27 82.17v1.21M179.27 83.38h-2.43M176.84 83.38v-1.21M121.01 142.86v-1.22M121.01 141.64h-2.43M118.58 141.64v1.22M62.74 142.86v-1.22M62.74 141.64h-2.42M60.32 141.64v1.22M179.27 142.86v-1.22M179.27 141.64h-2.43M176.84 141.64v1.22M60.32 38.47v2.43"/>
</svg>
