<?xml version="1.0" encoding="utf-8"?>
<!-- Generator: Adobe Illustrator 22.0.1, SVG Export Plug-In . SVG Version: 6.00 Build 0)  -->
<svg version="1.1" id="Capa_1" xmlns="http://www.w3.org/2000/svg" xmlns:xlink="http://www.w3.org/1999/xlink" x="0px" y="0px"
	 viewBox="0 0 296 296" style="enable-background:new 0 0 296 296;" xml:space="preserve">
<style type="text/css">
	.st0{fill:#FFFFFF;}
	.st1{fill:#603D13;}
</style>
<g>
	<path class="st0" d="M232.7,31.5H16.1c-3.2,74.8,25.1,126.8,35.6,165.2h145C216.4,139.7,229.9,113,232.7,31.5z"/>
	<path d="M295.9,87.3c-0.1-4.3-3.7-7.8-8-7.8h-42.6c2.1-16.3,3.4-34.7,3.4-56c0-4.4-3.6-8-8-8H8c-4.4,0-8,3.6-8,8
		c0,69.8,13.9,109.1,26.2,143.8c10.8,30.4,20.9,59.2,20.9,105.2c0,4.4,3.6,8,8,8h138.6c4.4,0,8-3.6,8-8c0-22,2.3-40,5.9-56.1
		c37.2-4.8,64.2-28.5,78.3-68.7C296.5,117.3,296,88.5,295.9,87.3z M16.1,31.5h216.7c-7.8,99.5-18.1,103.9-36.1,165.2h-145
		C47.2,183.1,13,99.7,16.1,31.5z M185.8,264.5H63c-1.1-44.1-0.7-38.5-7.2-54h137.4C186.8,228,186.9,220.3,185.8,264.5z M270.7,142.8
		c-11.3,31.9-31,50.9-58.7,56.7c3.2-11.1,6.9-21.5,10.7-32.2c7.3-20.5,15.1-42.7,20.3-71.8h36.8
		C279.2,105.6,277.3,124.1,270.7,142.8z"/>
	<path class="st1" d="M63,264.5h122.8c3.9-43.7,4.1-36.5,7.4-54H55.8C59,226.4,58.2,221.3,63,264.5z"/>
</g>
</svg>
