<?xml version="1.0" encoding="utf-8"?>
<!-- Generator: Adobe Illustrator 21.1.0, SVG Export Plug-In . SVG Version: 6.00 Build 0)  -->
<svg version="1.1" id="Layer_1" xmlns="http://www.w3.org/2000/svg" xmlns:xlink="http://www.w3.org/1999/xlink" x="0px" y="0px"
	 viewBox="0 0 100 100" style="enable-background:new 0 0 100 100;" xml:space="preserve">
<style type="text/css">
	.st0{fill:#BBBDBF;}
	.st1{fill:#686868;}
	.st2{fill:url(#SVGID_1_);}
	.st3{fill:url(#SVGID_2_);}
</style>
<g id="Layer_2">
	<path class="st0" d="M93.3,84.8c0,6.6-3.9,8.9-8.9,8.9H15c-4.7,0-8.9-3.9-8.9-8.9V15.5c0-5,3.9-8.9,8.9-8.9h70
		c6.9,0,8.3,2.2,8.3,8.9V84.8z"/>
	<g>
		<path class="st1" d="M85.6,6.6c4.2,0,7.5,3.3,7.5,7.5h6.9V8.9c0-5-3.9-8.9-8.9-8.9h-5.6V6.6z"/>
		<path class="st1" d="M93.3,21.6v64c0,4.2-3.3,7.8-7.8,7.8H14.4c-4.2,0-7.8-3.3-7.8-7.8V14.4c0-4.2,3.3-7.8,7.8-7.8h63.9V0H8.9
			C4.2,0,0,3.9,0,8.9v82.3c0,5,3.9,8.9,8.9,8.9h82.2c5,0,8.9-3.9,8.9-8.9V21.6H93.3z"/>
	</g>
	<g>
		<g>
			
				<linearGradient id="SVGID_1_" gradientUnits="userSpaceOnUse" x1="33.8889" y1="10.7158" x2="33.8889" y2="93.2643" gradientTransform="matrix(1 0 0 -1 0 102)">
				<stop  offset="0" style="stop-color:#428CCB"/>
				<stop  offset="0.2969" style="stop-color:#408CCA"/>
				<stop  offset="0.4039" style="stop-color:#398BC7"/>
				<stop  offset="0.4801" style="stop-color:#2E8BC2"/>
				<stop  offset="0.5418" style="stop-color:#1D8ABB"/>
				<stop  offset="0.5939" style="stop-color:#0788B1"/>
				<stop  offset="0.6074" style="stop-color:#0088AE"/>
				<stop  offset="0.6227" style="stop-color:#0D93BB"/>
				<stop  offset="0.6559" style="stop-color:#23A6D0"/>
				<stop  offset="0.695" style="stop-color:#34B5E0"/>
				<stop  offset="0.7434" style="stop-color:#3FBFEC"/>
				<stop  offset="0.8114" style="stop-color:#46C5F2"/>
				<stop  offset="1" style="stop-color:#48C7F4"/>
			</linearGradient>
			<path class="st2" d="M48.9,91.4H18.6c-5.6,0-8.6-2.8-8.6-7.5V16.3c0-5,3.1-7.5,8.6-7.5h30.3c5.8,0,8.9,2.8,8.9,7.5v19.4H43.3
				V19.4H24.4v61.5h18.9V63.4h14.4v20.5C57.8,88.6,54.7,91.4,48.9,91.4z"/>
		</g>
		<g>
			
				<linearGradient id="SVGID_2_" gradientUnits="userSpaceOnUse" x1="66.8055" y1="10.5873" x2="66.8055" y2="93.1357" gradientTransform="matrix(1 0 0 -1 0 102)">
				<stop  offset="0" style="stop-color:#428CCB"/>
				<stop  offset="0.2969" style="stop-color:#408CCA"/>
				<stop  offset="0.4039" style="stop-color:#398BC7"/>
				<stop  offset="0.4801" style="stop-color:#2E8BC2"/>
				<stop  offset="0.5418" style="stop-color:#1D8ABB"/>
				<stop  offset="0.5939" style="stop-color:#0788B1"/>
				<stop  offset="0.6074" style="stop-color:#0088AE"/>
				<stop  offset="0.6227" style="stop-color:#0D93BB"/>
				<stop  offset="0.6559" style="stop-color:#23A6D0"/>
				<stop  offset="0.695" style="stop-color:#34B5E0"/>
				<stop  offset="0.7434" style="stop-color:#3FBFEC"/>
				<stop  offset="0.8114" style="stop-color:#46C5F2"/>
				<stop  offset="1" style="stop-color:#48C7F4"/>
			</linearGradient>
			<path class="st3" d="M81.4,91.4H52.2c-5.6,0-8.9-2.8-8.9-7.5V63.4h14.4v17.7h17.8V64.8L46.4,41.3c-2.5-1.9-3.1-3.3-3.1-6.6V16.3
				c0-5,3.1-7.5,8.9-7.5h29.2c5.6,0,8.9,2.8,8.9,7.5v18.6H75.8V19.1H58.1v15l29.2,23.3c2.5,1.9,3.1,3.6,3.1,6.6v19.7
				C90.3,88.6,86.9,91.4,81.4,91.4z"/>
		</g>
	</g>
</g>
</svg>
