<?xml version="1.0" encoding="UTF-8" standalone="no"?>
<!-- Created with Inkscape (http://www.inkscape.org/) -->

<svg
   xmlns:dc="http://purl.org/dc/elements/1.1/"
   xmlns:cc="http://creativecommons.org/ns#"
   xmlns:rdf="http://www.w3.org/1999/02/22-rdf-syntax-ns#"
   xmlns:svg="http://www.w3.org/2000/svg"
   xmlns="http://www.w3.org/2000/svg"
   xmlns:sodipodi="http://sodipodi.sourceforge.net/DTD/sodipodi-0.dtd"
   xmlns:inkscape="http://www.inkscape.org/namespaces/inkscape"
   width="100%"
   height="100%"
   viewBox="0 0 744.09448819 1052.3622047"
   id="svg2"
   version="1.1"
   inkscape:version="0.91 r13725"
   enable-background="new"
   sodipodi:docname="lightbulb_onn.svg">
  <defs
     id="defs4">
    <inkscape:perspective
       sodipodi:type="inkscape:persp3d"
       inkscape:vp_x="0 : 526.1811 : 1"
       inkscape:vp_y="0 : 1000 : 0"
       inkscape:vp_z="744.09449 : 526.1811 : 1"
       inkscape:persp3d-origin="372.04724 : 350.7874 : 1"
       id="perspective3349" />
  </defs>
  <sodipodi:namedview
     id="base"
     pagecolor="#ffffff"
     bordercolor="#666666"
     borderopacity="1.0"
     inkscape:pageopacity="0.0"
     inkscape:pageshadow="2"
     inkscape:zoom="0.35"
     inkscape:cx="270.79694"
     inkscape:cy="613.86723"
     inkscape:document-units="px"
     inkscape:current-layer="layer3"
     showgrid="false"
     showguides="false"
     inkscape:window-width="1855"
     inkscape:window-height="1056"
     inkscape:window-x="65"
     inkscape:window-y="24"
     inkscape:window-maximized="1" />
  <metadata
     id="metadata7">
    <rdf:RDF>
      <cc:Work
         rdf:about="">
        <dc:format>image/svg+xml</dc:format>
        <dc:type
           rdf:resource="http://purl.org/dc/dcmitype/StillImage" />
        <dc:title></dc:title>
      </cc:Work>
    </rdf:RDF>
  </metadata>
  <g
     inkscape:label="Layer 1"
     inkscape:groupmode="layer"
     id="layer1" />
  <g
     inkscape:groupmode="layer"
     id="layer2"
     inkscape:label="Layer 2"
     style="display:none">
    <rect
       style="fill:#000000"
       id="rect4171"
       width="1548.5714"
       height="1545.7142"
       x="-188.57143"
       y="-153.35208" />
  </g>
  <g
     inkscape:groupmode="layer"
     id="layer3"
     inkscape:label="Layer 3">
    <path
       d="m 541.57757,377.60276 c -8.24375,-89.2362 -87.2675,-154.8937 -176.50375,-146.65 -89.23625,8.2425 -154.89375,87.2663 -146.65125,176.5025 5.0225,54.3613 36.31125,99.9725 80.17375,125.4575 l 2.585,27.9863 69.03875,-6.3775 c 8.11375,0.48 16.365,0.3562 24.70625,-0.415 8.34125,-0.7713 16.47625,-2.16 24.36375,-4.1175 l 68.9625,-6.3713 -2.58125,-27.9325 c 38.49625,-33.0875 60.93,-83.6862 55.90625,-138.0825"
       style="fill:#fbc533;fill-opacity:1;fill-rule:nonzero;stroke:none"
       id="path3403"
       inkscape:connector-curvature="0" />
    <path
       d="m 347.56757,556.61406 -15.12875,-163.7688 0,-10e-4 c -0.0513,-0.5475 -0.0438,-1.1 0.0137,-1.65 0.0263,-0.2487 0.0963,-0.4812 0.14375,-0.7225 0.0575,-0.2937 0.0962,-0.5912 0.18625,-0.8812 0.0912,-0.2913 0.22625,-0.5613 0.3475,-0.8388 0.0975,-0.2225 0.16875,-0.4512 0.28625,-0.6662 0.5275,-0.975 1.24375,-1.835 2.10375,-2.5313 0.17875,-0.145 0.3775,-0.25 0.565,-0.3775 0.26375,-0.1812 0.5175,-0.3725 0.80125,-0.5212 0.255,-0.135 0.5275,-0.2238 0.79375,-0.33 0.24,-0.096 0.46875,-0.2125 0.72,-0.2875 0.7775,-0.2313 1.585,-0.3475 2.39375,-0.3475 0.29125,0 0.58375,0.015 0.875,0.046 0.26125,0.027 0.50625,0.1 0.76125,0.1512 0.28,0.056 0.56375,0.092 0.83875,0.1775 0.3075,0.096 0.59375,0.2375 0.88625,0.3663 0.20625,0.091 0.42,0.1575 0.62125,0.2675 0.49125,0.2662 0.955,0.5762 1.3825,0.9325 l 14.73,12.2387 12.24875,-14.74 c 1.66,-1.9962 4.0475,-3.0275 6.455,-3.0275 1.88875,0 3.7875,0.635 5.355,1.9363 l 14.7425,12.2462 12.2375,-14.7287 c 0.35375,-0.4275 0.75125,-0.8175 1.18375,-1.1675 0.2,-0.1638 0.42375,-0.2838 0.63625,-0.425 0.24125,-0.1613 0.47,-0.3388 0.72875,-0.475 0.275,-0.145 0.56875,-0.2425 0.8575,-0.355 0.22,-0.086 0.4275,-0.195 0.6575,-0.2625 0.53,-0.1588 1.0725,-0.2663 1.6225,-0.3163 l 0.0488,0 c 0.24375,-0.021 0.48875,-0.031 0.735,-0.031 0.2875,0 0.57625,0.014 0.86375,0.044 0.27125,0.029 0.5275,0.1038 0.79,0.1575 0.2725,0.055 0.545,0.089 0.81,0.1713 0.31625,0.098 0.60875,0.2425 0.9075,0.375 0.20125,0.09 0.4075,0.1525 0.6025,0.2587 0.97375,0.5275 1.835,1.2425 2.53375,2.1025 0.1525,0.1888 0.26375,0.3988 0.39875,0.5975 0.17125,0.2538 0.355,0.4963 0.5,0.7688 0.14,0.2662 0.23125,0.5475 0.34125,0.825 0.0913,0.23 0.205,0.4475 0.27625,0.6887 0.1575,0.53 0.26625,1.0725 0.31625,1.6213 l 0,0 15.12875,163.7687 -16.70375,1.5438 -13.265,-143.6063 -4.66625,5.6175 c -1.42125,1.71 -3.46375,2.7875 -5.67875,2.9925 -0.2575,0.024 -0.51375,0.035 -0.77,0.035 -1.95,0 -3.84875,-0.6812 -5.36125,-1.9362 l -14.7425,-12.25 -12.24875,14.7425 c -1.4225,1.7112 -3.46375,2.7875 -5.67875,2.9925 -0.2575,0.024 -0.51625,0.035 -0.7725,0.035 -1.94875,0 -3.8475,-0.68 -5.3575,-1.9363 l -5.6175,-4.6675 13.26625,143.605 -16.7025,1.5438"
       style="fill:#cca42c;fill-opacity:1;fill-rule:nonzero;stroke:none"
       id="path3407"
       inkscape:connector-curvature="0" />
    <path
       d="m 491.64507,580.36406 -187.07,17.2812 c -10.145,0.9375 -19.1325,-6.5312 -20.06875,-16.6762 -0.9375,-10.145 6.53,-19.1338 16.675,-20.07 l 187.07125,-17.2813 c 10.145,-0.9375 19.13125,6.5313 20.06875,16.6763 0.9375,10.145 -6.53,19.1325 -16.67625,20.07"
       style="fill:#f4f6f5;fill-opacity:1;fill-rule:nonzero;stroke:none"
       id="path3409"
       inkscape:connector-curvature="0" />
    <path
       d="m 302.85757,597.72406 c -0.004,0 -0.007,0 -0.0113,0 -9.41875,-0.01 -17.4575,-7.1913 -18.34,-16.755 l 0,0 223.815,-20.675 c 0.0537,0.575 0.08,1.145 0.08,1.7112 0.004,9.4263 -7.185,17.475 -16.75625,18.3588 l -187.07,17.2812 c -0.575,0.053 -1.15,0.079 -1.7175,0.079 l 0,0"
       style="fill:#d5d6d4;fill-opacity:1;fill-rule:nonzero;stroke:none"
       id="path3415"
       inkscape:connector-curvature="0" />
    <path
       d="m 495.2514,613.58702 -187.07,17.2812 c -10.145,0.9375 -19.1325,-6.5312 -20.06875,-16.6762 -0.9375,-10.145 6.53,-19.1338 16.675,-20.07 l 187.07125,-17.2813 c 10.145,-0.9375 19.13125,6.5313 20.06875,16.6763 0.9375,10.145 -6.53,19.1325 -16.67625,20.07"
       style="fill:#f4f6f5;fill-opacity:1;fill-rule:nonzero;stroke:none"
       id="path3409-6"
       inkscape:connector-curvature="0" />
    <path
       d="m 306.4639,630.94702 c -0.004,0 -0.007,0 -0.0113,0 -9.41875,-0.01 -17.4575,-7.1913 -18.34,-16.755 l 0,0 223.815,-20.675 c 0.0537,0.575 0.08,1.145 0.08,1.7112 0.004,9.4263 -7.185,17.475 -16.75625,18.3588 l -187.07,17.2812 c -0.575,0.053 -1.15,0.079 -1.7175,0.079 l 0,0"
       style="fill:#d5d6d4;fill-opacity:1;fill-rule:nonzero;stroke:none"
       id="path3415-7"
       inkscape:connector-curvature="0" />
  </g>
</svg>
