<svg id="Layer_1" data-name="Layer 1" xmlns="http://www.w3.org/2000/svg" width="520.31" height="93.4" viewBox="0 0 520.31 93.4"><defs><style>.cls-1{fill:#71767b;}.cls-2{fill:#7fdbff;}</style></defs><title>cellarstone-logo-modern</title><g id="Layer_1-2" data-name="Layer 1"><g id="logo"><path class="cls-1" d="M90.3,82.6a7.81,7.81,0,0,1-7.8,7.8H10.9a7.81,7.81,0,0,1-7.8-7.8h0V10.9a7.81,7.81,0,0,1,7.8-7.8H73.2V0H8.3A8.28,8.28,0,0,0,0,8.3H0V85.1a8.28,8.28,0,0,0,8.3,8.3H85.1a8.28,8.28,0,0,0,8.3-8.3V20.2H90.3ZM85.1,0H80V3.1h2.5a7.81,7.81,0,0,1,7.8,7.8h0v2.4h3.1v-5A8.28,8.28,0,0,0,85.1,0Z"/><path class="cls-2" d="M84.4,32.5V15.2c0-4.4-3-7-8.2-7H48.9a4.87,4.87,0,0,0-1.2.1,10.87,10.87,0,0,0-1.8-.1H17.6c-5.2,0-8.1,2.5-8.1,7.1V78.2c0,4.5,2.9,7.1,8.1,7.1H45.9a4.87,4.87,0,0,0,1.2-.1,9.7,9.7,0,0,0,1.7.1H76.1c5.2,0,8.2-2.5,8.2-7.1V59.9a6.58,6.58,0,0,0-3-6.2L54.2,31.9V18H70.8V32.5Zm-13.6,28V75.6H54.2V59.1H40.7V75.3H23.1V18.1H40.7V33.3h0a6.43,6.43,0,0,0,2.9,5.3Z"/><path class="cls-2" d="M84.4,32.5V15.2c0-4.4-3-7-8.2-7H48.9a4.87,4.87,0,0,0-1.2.1,10.87,10.87,0,0,0-1.8-.1H17.6c-5.2,0-8.1,2.5-8.1,7.1V78.2c0,4.5,2.9,7.1,8.1,7.1H45.9a4.87,4.87,0,0,0,1.2-.1,9.7,9.7,0,0,0,1.7.1H76.1c5.2,0,8.2-2.5,8.2-7.1V59.9a6.58,6.58,0,0,0-3-6.2L54.2,31.9V18H70.8V32.5Zm-13.6,28V75.6H54.2V59.1H40.7V75.3H23.1V18.1H40.7V33.3h0a6.43,6.43,0,0,0,2.9,5.3Z"/></g><path class="cls-1" d="M139.2,75.6a29,29,0,0,1-28.9-28.9,29.26,29.26,0,0,1,2.3-11.3,25.86,25.86,0,0,1,6.2-9.1A32,32,0,0,1,128,20a26.91,26.91,0,0,1,5.5-1.7,27.82,27.82,0,0,1,5.8-.5A29.17,29.17,0,0,1,150.6,20a37.17,37.17,0,0,1,4.8,2.7,24.36,24.36,0,0,1,4.3,3.5l-6,6.1a20.08,20.08,0,0,0-14.4-5.9A20.12,20.12,0,0,0,125,32.3a24,24,0,0,0-4.4,6.5,19.74,19.74,0,0,0,0,15.8,20.38,20.38,0,0,0,10.8,10.8,19.58,19.58,0,0,0,7.9,1.6,20.81,20.81,0,0,0,7.8-1.5,19.59,19.59,0,0,0,6.6-4.4l6,6a28.56,28.56,0,0,1-20.5,8.5Zm45.2.6A18.7,18.7,0,0,1,167,64.6,18.77,18.77,0,0,1,171.1,44a16.85,16.85,0,0,1,6.1-4.1,20,20,0,0,1,7.2-1.4,18.35,18.35,0,0,1,7.3,1.5,18.85,18.85,0,0,1,10.1,10.1,18.35,18.35,0,0,1,1.5,7.3v4H174.1a10.91,10.91,0,0,0,4,5,9.9,9.9,0,0,0,6.2,1.9,10.58,10.58,0,0,0,5.5-1.5,10.25,10.25,0,0,0,4-4l6.8,4a19.26,19.26,0,0,1-6.8,6.8,17.71,17.71,0,0,1-9.4,2.6ZM174.2,53.4h20.5a11.72,11.72,0,0,0-4-5.1,10.77,10.77,0,0,0-12.5,0A11.18,11.18,0,0,0,174.2,53.4Zm38.7,21.1v-57h8.6v57Zm20.3,0v-57h8.6v57ZM291.9,40V74.6h-8.6V69.9a1.38,1.38,0,0,0-.3.4,1.38,1.38,0,0,1-.3.4,21.1,21.1,0,0,1-6.1,4.1,18.83,18.83,0,0,1-24.5-24.6,18.22,18.22,0,0,1,4.1-6.1,19.83,19.83,0,0,1,6.1-4.1,18.9,18.9,0,0,1,14.4,0,18.22,18.22,0,0,1,6.1,4.1,4.35,4.35,0,0,0,.6.7V40ZM269.3,67.4a10.37,10.37,0,0,0,9.4-6.2,10.46,10.46,0,0,0,.8-3.9,10.22,10.22,0,0,0-10.1-10.2h-.1a10.46,10.46,0,0,0-3.9.8,8.75,8.75,0,0,0-3.2,2.2,10.22,10.22,0,0,0-3,7.2,10.46,10.46,0,0,0,.8,3.9,10.19,10.19,0,0,0,5.4,5.4A10.06,10.06,0,0,0,269.3,67.4Zm52.6-29a17.53,17.53,0,0,1,5.1.8,15.68,15.68,0,0,1,4.6,2l-4.8,7.2a10.61,10.61,0,0,0-4.9-1.3,14.4,14.4,0,0,0-4.1.5,10.17,10.17,0,0,0-2.8,1.3,5.81,5.81,0,0,0-1.8,1.7,9.91,9.91,0,0,0-1.1,1.7,10.64,10.64,0,0,0-.9,2.5,20,20,0,0,0-.4,2.4,14.92,14.92,0,0,0-.2,2.1V74.8H302V39.3h8.6v2.2a.1.1,0,0,1,.1-.1h0a20.3,20.3,0,0,1,11.2-3Zm27.8,37.4h-.8a17.37,17.37,0,0,1-3.9-.5,14.19,14.19,0,0,1-3.6-1.4,16.1,16.1,0,0,1-3-2.1,14,14,0,0,1-2.1-2.7l3.2-1.7a9,9,0,0,0,1.5,1.9,10.71,10.71,0,0,0,2.2,1.5,14.76,14.76,0,0,0,2.7,1,9.67,9.67,0,0,0,2.9.4h.1a10.12,10.12,0,0,0,3-.2,11.8,11.8,0,0,0,3.3-1.2,8.86,8.86,0,0,0,2.8-2.3,5.6,5.6,0,0,0,1.3-3.5,5.19,5.19,0,0,0-1.2-4,8.43,8.43,0,0,0-3.5-2.1,18.76,18.76,0,0,0-5.2-.8,17.86,17.86,0,0,1-2.1-.1,27,27,0,0,1-2.8-.4,14.19,14.19,0,0,1-2.9-1,8.32,8.32,0,0,1-2.6-1.9,8.18,8.18,0,0,1-2.2-6.3,9.78,9.78,0,0,1,2.7-6.3,11.77,11.77,0,0,1,5.6-3,16,16,0,0,1,4.4-.4,17,17,0,0,1,4.4.8,14.7,14.7,0,0,1,4,1.9,8,8,0,0,1,2.6,2.9L357.3,46a7.45,7.45,0,0,0-4.5-3.1,10.16,10.16,0,0,0-3.4-.6,9.82,9.82,0,0,0-3.4.3l-1.8.6a17.39,17.39,0,0,0-1.8,1.1,5.15,5.15,0,0,0-1.3,1.7,5.42,5.42,0,0,0-.6,2.5,3.84,3.84,0,0,0,1.2,3.5,5,5,0,0,0,1.9,1.3,15.46,15.46,0,0,0,2.3.7l2.1.3c.6,0,1.1.1,1.5.1a21.77,21.77,0,0,1,6.7,1,11,11,0,0,1,4.6,2.9,8.43,8.43,0,0,1,2.2,6.8,10.33,10.33,0,0,1-1.9,5.3,9.75,9.75,0,0,1-3.8,3.2,13.74,13.74,0,0,1-7.6,2.2Zm38-32.9h-7.4V74.5h-3.6V42.9h-5.4V39.3h5.4V17.5h3.6V39.2h7.4Zm25.6,32.8a18.45,18.45,0,1,1,7-1.4A17.85,17.85,0,0,1,413.3,75.7Zm0-33.3a14.35,14.35,0,0,0-5.8,1.2,14.57,14.57,0,0,0-7.9,7.9,15.51,15.51,0,0,0,0,11.6,14.9,14.9,0,1,0,13.7-20.7Zm55.8,1a16,16,0,0,1,4.8,11.4V74.5h-3.6V54.9a11.94,11.94,0,0,0-1-4.9,10.9,10.9,0,0,0-2.7-4,13.44,13.44,0,0,0-4-2.7,11.62,11.62,0,0,0-4.9-1h-.1a11.62,11.62,0,0,0-4.9,1A12.9,12.9,0,0,0,446,50a11.62,11.62,0,0,0-1,4.9V74.6h-3.6V40H445v4.8a15,15,0,0,1,1.1-1.3,16,16,0,0,1,11.5-4.8h.1a16.47,16.47,0,0,1,11.4,4.7Zm32.7,32.4a19.51,19.51,0,0,1-7.1-1.4,18.14,18.14,0,0,1-5.9-4,20.63,20.63,0,0,1-4.1-6,18.6,18.6,0,0,1-1.4-7,19.51,19.51,0,0,1,1.4-7.1,17.81,17.81,0,0,1,4.1-6,18.14,18.14,0,0,1,5.9-4,19.11,19.11,0,0,1,7.1-1.4,19.63,19.63,0,0,1,7.2,1.4,18.14,18.14,0,0,1,5.9,4,19.86,19.86,0,0,1,4,5.9,16.25,16.25,0,0,1,1.4,7.2v1.8H487.1a13.38,13.38,0,0,0,1.7,5.1,13,13,0,0,0,3.2,4.1,14.87,14.87,0,0,0,21-1.2,13.68,13.68,0,0,0,1.8-2.4l3.1,1.8a18.44,18.44,0,0,1-6.6,6.7,19.81,19.81,0,0,1-9.5,2.5ZM487.1,55.5h29.5a15.18,15.18,0,0,0-1.6-5.1,14.64,14.64,0,0,0-3.2-4.2,16.17,16.17,0,0,0-4.5-2.8,15,15,0,0,0-18.6,6.9,14.25,14.25,0,0,0-1.6,5.2Z"/><path class="cls-1" d="M417.8,40.1,433.6,22l2.9,2.5L420.7,42.6Z"/><path class="cls-1" d="M446,21l.9-3.7,23.3,5.8-.9,3.7Z"/><path class="cls-1" d="M440,11.3a7.3,7.3,0,1,0,7.3,7.3,7.28,7.28,0,0,0-7.3-7.3Zm0,13.4a6.1,6.1,0,1,1,6.1-6.1,6.12,6.12,0,0,1-6.1,6.1Zm34.9-4a6,6,0,1,0,6,6,6,6,0,0,0-6-6Zm0,11.3a5.2,5.2,0,1,1,5.2-5.2h0a5.16,5.16,0,0,1-5.2,5.2Z"/><path class="cls-2" d="M446.1,18.6a6.2,6.2,0,1,1-6.2-6.2,6.23,6.23,0,0,1,6.2,6.2Z"/></g></svg>