<svg id="Layer_1" data-name="Layer 1" xmlns="http://www.w3.org/2000/svg" xmlns:xlink="http://www.w3.org/1999/xlink" viewBox="0 0 93.4 93.4"><defs><style>.cls-1{fill:#fff;}.cls-2{fill:#bbbdbf;}.cls-3{fill:#a8a8a8;opacity:0.81;}.cls-3,.cls-5{isolation:isolate;}.cls-4,.cls-7{fill:none;stroke-miterlimit:10;}.cls-4{stroke:#e6e7e8;}.cls-5{opacity:0.75;}.cls-6{fill:url(#linear-gradient);}.cls-7{stroke:#d0d2d3;}</style><linearGradient id="linear-gradient" x1="46.95" y1="781.29" x2="46.95" y2="704.19" gradientTransform="translate(0 -696)" gradientUnits="userSpaceOnUse"><stop offset="0" stop-color="#428ccb"/><stop offset="0.3" stop-color="#408cca"/><stop offset="0.4" stop-color="#398bc7"/><stop offset="0.48" stop-color="#2e8bc2"/><stop offset="0.54" stop-color="#1d8abb"/><stop offset="0.59" stop-color="#0788b1"/><stop offset="0.61" stop-color="#0088ae"/><stop offset="0.62" stop-color="#0d93bb"/><stop offset="0.66" stop-color="#23a6d0"/><stop offset="0.69" stop-color="#34b5e0"/><stop offset="0.74" stop-color="#3fbfec"/><stop offset="0.81" stop-color="#46c5f2"/><stop offset="1" stop-color="#48c7f4"/></linearGradient></defs><title>logo-modified_black</title><g id="Layer_1-2" data-name="Layer 1"><g id="logo"><path class="cls-1" d="M90.3,82.6a7.81,7.81,0,0,1-7.8,7.8H10.9a7.81,7.81,0,0,1-7.8-7.8V10.9a7.81,7.81,0,0,1,7.8-7.8H73.2V0H8.3A8.28,8.28,0,0,0,0,8.3H0V85.1a8.28,8.28,0,0,0,8.3,8.3H85.1a8.28,8.28,0,0,0,8.3-8.3h0V20.2H90.3Z"/><path class="cls-1" d="M85.1,0H80V3.1h2.5a7.79,7.79,0,0,1,7.8,7.7h0v2.4h3.1v-5A8.26,8.26,0,0,0,85.1,0Z"/><path class="cls-2" d="M90.3,81.4c0,6.7-4,8.9-8.9,8.9H11a8.92,8.92,0,0,1-8.9-8.9V12A8.92,8.92,0,0,1,11,3.1H81.8c7,0,8.5,2.1,8.5,8.9Z"/><path class="cls-3" d="M90.3,81.4c0,6.7-4,8.9-8.9,8.9H11a8.92,8.92,0,0,1-8.9-8.9V12A8.92,8.92,0,0,1,11,3.1H81.8c7,0,8.5,2.1,8.5,8.9Z"/><path class="cls-4" d="M90.3,81.4c0,6.7-4,8.9-8.9,8.9H11a8.92,8.92,0,0,1-8.9-8.9V12A8.92,8.92,0,0,1,11,3.1H81.8c7,0,8.5,2.1,8.5,8.9Z"/><image class="cls-5" width="680" height="698" transform="translate(4.79 3.55) scale(0.12)" xlink:href="../../../../../../../../Downloads/F70B908F.png"/><path class="cls-6" d="M84.4,32.5V15.3c0-4.4-3-7-8.2-7H48.9a4.87,4.87,0,0,0-1.2.1,10.87,10.87,0,0,0-1.8-.1H17.6c-5.2,0-8.1,2.5-8.1,7.1V78.3c0,4.5,2.9,7,8.1,7H47.1a10.28,10.28,0,0,0,1.7.1H76.1c5.2,0,8.2-2.5,8.2-7.1V59.9a6.84,6.84,0,0,0-3-6.3L54.2,31.9V18H70.8V32.5Zm-13.6,28V75.6H54.2V59.1H40.7V75.3H23.1V18.1H40.7V33.3h0a6.43,6.43,0,0,0,2.9,5.3Z"/><path class="cls-7" d="M84.4,32.5V15.3c0-4.4-3-7-8.2-7H48.9a4.87,4.87,0,0,0-1.2.1,10.87,10.87,0,0,0-1.8-.1H17.6c-5.2,0-8.1,2.5-8.1,7.1V78.3c0,4.5,2.9,7,8.1,7H47.1a10.28,10.28,0,0,0,1.7.1H76.1c5.2,0,8.2-2.5,8.2-7.1V59.9a6.84,6.84,0,0,0-3-6.3L54.2,31.9V18H70.8V32.5Zm-13.6,28V75.6H54.2V59.1H40.7V75.3H23.1V18.1H40.7V33.3h0a6.43,6.43,0,0,0,2.9,5.3Z"/></g></g></svg>