<svg xmlns="http://www.w3.org/2000/svg" xmlns:xlink="http://www.w3.org/1999/xlink" viewBox="4444 4616 130 80">
  <defs>
    <style>
      .cls-1, .cls-3 {
        fill: #fff;
      }

      .cls-1 {
        stroke: #95989a;
      }

      .cls-2 {
        clip-path: url(#clip-path);
      }
    </style>
    <clipPath id="clip-path">
      <rect id="Rectangle_134" data-name="Rectangle 134" class="cls-1" width="130" height="80" transform="translate(393 514)"/>
    </clipPath>
  </defs>
  <g id="Mask_Group_4" data-name="Mask Group 4" class="cls-2" transform="translate(4051 4102)">
    <g id="cookies" transform="translate(414.526 510.526)">
      <g id="Group_65" data-name="Group 65">
        <g id="Group_64" data-name="Group 64">
          <path id="Path_47" data-name="Path 47" class="cls-3" d="M86.94,31.886l-.023-1.16-1.156-.1a6.492,6.492,0,0,1-5.835-5.361l-.243-1.408-1.377.384a8.186,8.186,0,0,1-10.227-9.5l.248-1.239-1.233-.275a6.506,6.506,0,0,1-4.871-7.974L62.6,3.81l-1.484-.162a29.476,29.476,0,0,0-3.18-.174A29.065,29.065,0,0,0,29.782,25.455q-.383-.01-.767-.01A29.015,29.015,0,1,0,57.165,61.492q.382.01.767.01A29.048,29.048,0,0,0,86.947,32.488C86.947,32.287,86.944,32.087,86.94,31.886Zm-57.925,49A26.432,26.432,0,1,1,55.447,54.459,26.462,26.462,0,0,1,29.015,80.891ZM57.932,58.92c-.082,0-.164,0-.246,0A29.028,29.028,0,0,0,32.4,25.643,26.478,26.478,0,0,1,57.932,6.056c.508,0,1.021.015,1.535.045q-.034.392-.034.786a9.152,9.152,0,0,0,5.944,8.522q-.042.476-.042.953A10.763,10.763,0,0,0,77.7,27.006a9.082,9.082,0,0,0,6.655,6.013A26.462,26.462,0,0,1,57.932,58.92Z"/>
        </g>
      </g>
      <g id="Group_67" data-name="Group 67">
        <g id="Group_66" data-name="Group 66">
          <path id="Path_48" data-name="Path 48" class="cls-3" d="M54.427,13.082a3.9,3.9,0,1,0,3.9,3.9A3.9,3.9,0,0,0,54.427,13.082Zm0,5.216a1.317,1.317,0,1,1,1.317-1.317A1.319,1.319,0,0,1,54.427,18.3Z"/>
        </g>
      </g>
      <g id="Group_69" data-name="Group 69">
        <g id="Group_68" data-name="Group 68">
          <path id="Path_49" data-name="Path 49" class="cls-3" d="M39.034,18.389c-.451.6-.878,1.229-1.271,1.868l2.2,1.352c.351-.571.733-1.133,1.136-1.669Z"/>
        </g>
      </g>
      <g id="Group_71" data-name="Group 71">
        <g id="Group_70" data-name="Group 70">
          <path id="Path_50" data-name="Path 50" class="cls-3" d="M49.585,10.357a24.393,24.393,0,0,0-9.015,6.184l1.9,1.747a21.8,21.8,0,0,1,8.054-5.526Z"/>
        </g>
      </g>
      <g id="Group_73" data-name="Group 73">
        <g id="Group_72" data-name="Group 72">
          <path id="Path_51" data-name="Path 51" class="cls-3" d="M77.684,40.115a21.618,21.618,0,0,1-2.667,4.75L77.092,46.4a24.2,24.2,0,0,0,2.985-5.318Z"/>
        </g>
      </g>
      <g id="Group_75" data-name="Group 75">
        <g id="Group_74" data-name="Group 74">
          <path id="Path_52" data-name="Path 52" class="cls-3" d="M65.908,41.757a3.9,3.9,0,1,0,3.9,3.9A3.9,3.9,0,0,0,65.908,41.757Zm0,5.216a1.317,1.317,0,1,1,1.317-1.317A1.319,1.319,0,0,1,65.908,46.973Z"/>
        </g>
      </g>
      <g id="Group_77" data-name="Group 77">
        <g id="Group_76" data-name="Group 76">
          <path id="Path_53" data-name="Path 53" class="cls-3" d="M57.932,25.021a3.9,3.9,0,1,0,3.9,3.9A3.9,3.9,0,0,0,57.932,25.021Zm0,5.217a1.317,1.317,0,1,1,1.317-1.317A1.318,1.318,0,0,1,57.932,30.237Z"/>
        </g>
      </g>
      <g id="Group_79" data-name="Group 79">
        <g id="Group_78" data-name="Group 78">
          <path id="Path_54" data-name="Path 54" class="cls-3" d="M72.288,30.449a4.833,4.833,0,1,0,4.833,4.833A4.839,4.839,0,0,0,72.288,30.449Zm0,7.084a2.251,2.251,0,1,1,2.251-2.251A2.253,2.253,0,0,1,72.288,37.533Z"/>
        </g>
      </g>
      <g id="Group_81" data-name="Group 81">
        <g id="Group_80" data-name="Group 80">
          <path id="Path_55" data-name="Path 55" class="cls-3" d="M30.716,31.634a3.9,3.9,0,1,0,3.9,3.9A3.9,3.9,0,0,0,30.716,31.634Zm0,5.216a1.317,1.317,0,1,1,1.317-1.317A1.318,1.318,0,0,1,30.716,36.85Z"/>
        </g>
      </g>
      <g id="Group_83" data-name="Group 83">
        <g id="Group_82" data-name="Group 82">
          <path id="Path_56" data-name="Path 56" class="cls-3" d="M9.63,40.253c-.451.6-.879,1.23-1.271,1.868l2.2,1.352c.351-.571.733-1.133,1.136-1.669Z"/>
        </g>
      </g>
      <g id="Group_85" data-name="Group 85">
        <g id="Group_84" data-name="Group 84">
          <path id="Path_57" data-name="Path 57" class="cls-3" d="M20.181,32.221a24.391,24.391,0,0,0-9.015,6.184l1.9,1.747a21.794,21.794,0,0,1,8.054-5.526Z"/>
        </g>
      </g>
      <g id="Group_87" data-name="Group 87">
        <g id="Group_86" data-name="Group 86">
          <path id="Path_58" data-name="Path 58" class="cls-3" d="M48.858,62.283a21.63,21.63,0,0,1-2.667,4.75l2.075,1.538a24.2,24.2,0,0,0,2.985-5.318Z"/>
        </g>
      </g>
      <g id="Group_89" data-name="Group 89">
        <g id="Group_88" data-name="Group 88">
          <path id="Path_59" data-name="Path 59" class="cls-3" d="M10.765,64.532l-2.26,1.25a24.292,24.292,0,0,0,4.252,5.59l1.809-1.844A21.715,21.715,0,0,1,10.765,64.532Z"/>
        </g>
      </g>
      <g id="Group_91" data-name="Group 91">
        <g id="Group_90" data-name="Group 90">
          <path id="Path_60" data-name="Path 60" class="cls-3" d="M8.927,60.117l-2.489.689a24.166,24.166,0,0,0,.945,2.756l2.387-.984A21.557,21.557,0,0,1,8.927,60.117Z"/>
        </g>
      </g>
      <g id="Group_93" data-name="Group 93">
        <g id="Group_92" data-name="Group 92">
          <path id="Path_61" data-name="Path 61" class="cls-3" d="M36.99,63.727a3.9,3.9,0,1,0,3.9,3.9A3.9,3.9,0,0,0,36.99,63.727Zm0,5.216a1.317,1.317,0,1,1,1.317-1.317A1.318,1.318,0,0,1,36.99,68.944Z"/>
        </g>
      </g>
      <g id="Group_95" data-name="Group 95">
        <g id="Group_94" data-name="Group 94">
          <path id="Path_62" data-name="Path 62" class="cls-3" d="M11.185,47.951a3.9,3.9,0,1,0,3.9,3.9A3.9,3.9,0,0,0,11.185,47.951Zm0,5.216A1.317,1.317,0,1,1,12.5,51.851,1.319,1.319,0,0,1,11.185,53.168Z"/>
        </g>
      </g>
      <g id="Group_97" data-name="Group 97">
        <g id="Group_96" data-name="Group 96">
          <path id="Path_63" data-name="Path 63" class="cls-3" d="M29.015,46.992a3.9,3.9,0,1,0,3.9,3.9A3.9,3.9,0,0,0,29.015,46.992Zm0,5.216a1.317,1.317,0,1,1,1.317-1.317A1.318,1.318,0,0,1,29.015,52.208Z"/>
        </g>
      </g>
      <g id="Group_99" data-name="Group 99">
        <g id="Group_98" data-name="Group 98">
          <path id="Path_64" data-name="Path 64" class="cls-3" d="M46.912,48.878a4.833,4.833,0,1,0,4.833,4.833A4.839,4.839,0,0,0,46.912,48.878Zm0,7.084a2.251,2.251,0,1,1,2.251-2.251A2.253,2.253,0,0,1,46.912,55.961Z"/>
        </g>
      </g>
      <g id="Group_101" data-name="Group 101">
        <g id="Group_100" data-name="Group 100">
          <path id="Path_65" data-name="Path 65" class="cls-3" d="M21.967,67.438A4.833,4.833,0,1,0,26.8,72.271,4.839,4.839,0,0,0,21.967,67.438Zm0,7.084a2.251,2.251,0,1,1,2.251-2.251A2.253,2.253,0,0,1,21.967,74.522Z"/>
        </g>
      </g>
    </g>
  </g>
</svg>
