<svg xmlns="http://www.w3.org/2000/svg" xmlns:xlink="http://www.w3.org/1999/xlink" viewBox="4444 5220 130 80">
  <defs>
    <style>
      .cls-1, .cls-3 {
        fill: #fff;
      }

      .cls-1 {
        stroke: #95989a;
      }

      .cls-2 {
        clip-path: url(#clip-path);
      }
    </style>
    <clipPath id="clip-path">
      <rect id="Rectangle_137" data-name="Rectangle 137" class="cls-1" width="130" height="80" transform="translate(960 514)"/>
    </clipPath>
  </defs>
  <g id="Mask_Group_7" data-name="Mask Group 7" class="cls-2" transform="translate(3484 4706)">
    <g id="soda" transform="translate(985 514)">
      <g id="Group_103" data-name="Group 103">
        <path id="Path_70" data-name="Path 70" class="cls-3" d="M46.623,24.9V13.334H41.666V6.257L52.124,3.269h0A1.666,1.666,0,0,0,51.667,0a1.648,1.648,0,0,0-.457.065h0L39.542,3.4h0A1.666,1.666,0,0,0,38.333,5v8.334H33.377V24.9s-6.712,11.451-6.712,18.275,1.7,17.439,1.7,22.108a58.365,58.365,0,0,1-1.7,11.382S28.381,79.977,40,80c11.619-.023,13.335-3.332,13.335-3.332a58.366,58.366,0,0,1-1.7-11.382c0-4.669,1.7-15.285,1.7-22.108S46.623,24.9,46.623,24.9ZM43.335,43.334V56.668H36.666V43.334ZM30,43.178c0-2.276,1.078-5.922,3.033-10.266,1.587-3.523,3.2-6.3,3.22-6.323l.458-.781V16.666h1.622V40h-5v8.264h-3.1C30.091,46.432,30,44.69,30,43.178ZM48.3,75.762a1.667,1.667,0,0,0-3.3.35,1.482,1.482,0,0,0,.027.277c-.962.117-2.075.205-3.362.248a1.665,1.665,0,0,0-3.33,0c-1.287-.043-2.4-.131-3.359-.248A1.728,1.728,0,0,0,35,76.112a1.666,1.666,0,0,0-3.3-.35,10.81,10.81,0,0,1-1.306-.455,53.229,53.229,0,0,0,1.3-10.021c0-2.288-.347-5.6-.748-9.441-.143-1.377-.293-2.814-.431-4.247h2.814V60H46.667V51.6H49.48c-.137,1.433-.288,2.87-.43,4.247-.4,3.838-.75,7.153-.75,9.441a53.333,53.333,0,0,0,1.3,10.021A10.644,10.644,0,0,1,48.3,75.762Zm1.474-27.5h-3.1V40h-5V16.666h1.622v9.141l.459.781c.015.027,1.606,2.75,3.194,6.265C48.913,37.223,50,40.89,50,43.178,50,44.69,49.909,46.432,49.77,48.264Z"/>
      </g>
    </g>
  </g>
</svg>
