<svg xmlns="http://www.w3.org/2000/svg" xmlns:xlink="http://www.w3.org/1999/xlink" viewBox="4141 5220 130 80">
  <defs>
    <style>
      .cls-1, .cls-3 {
        fill: #fff;
      }

      .cls-1 {
        stroke: #95989a;
      }

      .cls-2 {
        clip-path: url(#clip-path);
      }
    </style>
    <clipPath id="clip-path">
      <rect id="Rectangle_136" data-name="Rectangle 136" class="cls-1" width="130" height="80" transform="translate(1267 514)"/>
    </clipPath>
  </defs>
  <g id="Mask_Group_8" data-name="Mask Group 8" class="cls-2" transform="translate(2874 4706)">
    <g id="water-bottle" transform="translate(1292 514)">
      <g id="Group_104" data-name="Group 104">
        <path id="Path_71" data-name="Path 71" class="cls-3" d="M55.187,27.238a1.2,1.2,0,0,0-.138-.529L45.577,9.39a1.134,1.134,0,0,0-.463-.435,2.621,2.621,0,0,0,.639-1.681V2.645A2.639,2.639,0,0,0,43.108,0H36.881a2.646,2.646,0,0,0-2.645,2.645V7.274a2.6,2.6,0,0,0,.645,1.681,1.088,1.088,0,0,0-.457.435L24.951,26.714a1.092,1.092,0,0,0-.138.523V72.974a1.076,1.076,0,0,0,.017.187,2.871,2.871,0,0,0-.017.3c0,3.02,2.639,6.535,6.034,6.535a5.777,5.777,0,0,0,4.574-2.474,5.464,5.464,0,0,0,9.147,0A5.761,5.761,0,0,0,49.142,80c3.4,0,6.045-3.516,6.045-6.535a2.814,2.814,0,0,0-.022-.292,1.15,1.15,0,0,0,.022-.2V27.238Zm-2.221,45.4a1.142,1.142,0,0,0-.044.474c0,.011.044.342.044.353,0,1.951-1.763,4.326-3.824,4.326-1.675,0-3.009-1.5-3.549-2.9a1.108,1.108,0,0,0-1.03-.711,1.119,1.119,0,0,0-1.03.711c-.54,1.4-1.874,2.9-3.549,2.9s-3.014-1.5-3.543-2.9a1.152,1.152,0,0,0-2.061,0c-.529,1.4-1.863,2.9-3.543,2.9-2.066,0-3.83-2.38-3.83-4.326l.044-.353a1.025,1.025,0,0,0-.044-.43V27.519l9.037-16.5h7.918l9.01,16.5V72.638Z"/>
        <path id="Path_72" data-name="Path 72" class="cls-3" d="M29.618,40.9v10.96A2.241,2.241,0,0,0,31.861,54.1H48.128a2.246,2.246,0,0,0,2.248-2.243V40.9a2.246,2.246,0,0,0-2.248-2.243H31.861A2.241,2.241,0,0,0,29.618,40.9Z"/>
        <ellipse id="Ellipse_31" data-name="Ellipse 31" class="cls-3" cx="6.723" cy="3.615" rx="6.723" ry="3.615" transform="translate(33.272 22.201)"/>
      </g>
    </g>
  </g>
</svg>
